<?xml version="1.0" standalone="no"?>
<!DOCTYPE svg PUBLIC "-//W3C//DTD SVG 1.1//EN" "http://www.w3.org/Graphics/SVG/1.1/DTD/svg11.dtd" >
<svg xmlns="http://www.w3.org/2000/svg" xmlns:xlink="http://www.w3.org/1999/xlink" version="1.1">
<metadata>
Created by FontForge 20200314 at Sat Dec 13 10:24:43 2008
 By Unknown
(c) Inter IKEA Systems B.V.. SWF-X by Digidea.
</metadata>
<defs>
<font id="IKEASans-Regular" horiz-adv-x="575" >
  <font-face 
    font-family="IKEA Sans"
    font-weight="400"
    font-stretch="normal"
    units-per-em="1024"
    panose-1="0 11 6 0 5 3 2 2 2 4"
    ascent="819"
    descent="-205"
    x-height="468"
    cap-height="712"
    bbox="-180 -256 1210 1124"
    underline-thickness="0"
    underline-position="-263"
    unicode-range="U+0020-215E"
  />
<missing-glyph horiz-adv-x="1024" 
d="M896 0h-768v768h768v-768zM192 65v-1h640v640h-640v-640v0v1z" />
    <glyph glyph-name=".notdef" horiz-adv-x="1024" 
d="M896 0h-768v768h768v-768zM192 65v-1h640v640h-640v-640v0v1z" />
    <glyph glyph-name="space" unicode=" " horiz-adv-x="262" 
d="M0 0v1v-1z" />
    <glyph glyph-name="exclam" unicode="!" horiz-adv-x="256" 
d="M78 728h100l-12 -552h-75zM128 107v-1c16 0 30 -6 42 -18s18 -26 18 -42s-6 -30 -18 -42s-26 -18 -42 -18s-30 6 -42 18s-18 26 -18 42s6 30 18 42s26 18 42 18v1z" />
    <glyph glyph-name="quotedbl" unicode="&#x22;" horiz-adv-x="439" 
d="M361 712h1l-16 -274h-62l-14 274h91zM167 713l1 -1l-16 -274h-62l-14 274h91v0v1z" />
    <glyph glyph-name="numbersign" unicode="#" 
d="M559 430h2h-108l-32 -148h139v-76h-156l-44 -206h-77l45 206h-150l-43 -206h-76l43 206h-90v76h106l32 148h-139v77h156l43 206h77l-46 -206h150l43 206h77l-43 -206h91v-77zM377 431v-1h-150l-31 -148h150l31 148v0v1z" />
    <glyph glyph-name="dollar" unicode="$" 
d="M324 399l-2 -3c72 -29 122 -59 150 -90s42 -70 42 -119c0 -51 -17 -94 -50 -130c-34 -36 -81 -58 -141 -66v-129h-68v128c-80 8 -150 38 -210 89l54 68c49 -42 102 -67 157 -76v258c-68 27 -116 57 -144 90s-42 75 -42 125c0 47 17 87 50 122s79 56 136 64v76h68v-76
c60 -4 118 -23 174 -58l-42 -74c-45 29 -89 46 -132 51v-250zM255 422l-1 1v220c-30 -5 -54 -17 -71 -36s-26 -41 -26 -66c0 -28 8 -51 24 -69c16 -17 41 -34 74 -50zM323 69l-1 -1c32 7 57 21 76 42c18 21 27 47 27 76c0 24 -8 45 -24 62s-42 34 -78 50v-230v1z" />
    <glyph glyph-name="percent" unicode="%" horiz-adv-x="845" 
d="M660 697v-1l-420 -711l-56 34l418 710zM204 728c49 0 90 -16 122 -48s48 -72 48 -120s-16 -88 -48 -120s-73 -48 -122 -48s-90 16 -122 48s-48 72 -48 120s16 88 48 120s73 48 122 48zM205 454h-1c29 0 53 10 70 29c17 20 26 46 26 77s-9 56 -26 75s-40 29 -69 29
s-53 -10 -70 -29s-26 -44 -26 -75s9 -56 26 -76s41 -30 70 -30zM641 322c49 0 90 -16 122 -48s48 -72 48 -120s-16 -88 -48 -120s-73 -48 -122 -48s-90 16 -122 48s-48 72 -48 120s16 88 48 120s73 48 122 48zM642 49l-1 -1c29 0 53 10 70 29c17 20 26 46 26 77
s-9 56 -26 75s-41 29 -70 29s-53 -10 -70 -29s-26 -44 -26 -75s9 -56 26 -76s41 -30 71 -30v1z" />
    <glyph glyph-name="ampersand" unicode="&#x26;" horiz-adv-x="641" 
d="M623 3l3 -3h-110l-64 81c-77 -64 -149 -96 -215 -96c-57 0 -105 16 -143 49s-57 78 -57 133c0 41 13 78 38 109c25 32 68 69 131 110c-55 65 -82 127 -82 184c0 44 17 82 50 113s75 47 125 47c51 0 92 -15 124 -44s48 -68 48 -116c0 -28 -12 -58 -36 -90
c-25 -32 -61 -67 -110 -104l140 -174c35 32 63 60 84 84l54 -57c-28 -31 -58 -60 -90 -89zM278 435v-1c39 29 66 54 83 74c16 20 24 40 24 60c0 28 -8 49 -24 64s-37 23 -64 23c-24 0 -44 -8 -60 -24c-17 -16 -25 -37 -25 -62c0 -35 22 -79 66 -134zM401 145l-1 -3l-144 178
c-46 -32 -78 -59 -95 -82s-26 -46 -26 -70c0 -31 10 -56 30 -75s46 -28 78 -28c43 0 95 26 158 79v1z" />
    <glyph glyph-name="quotesingle" unicode="'" horiz-adv-x="245" 
d="M167 713l1 -1l-16 -274h-62l-14 274h91v0v1z" />
    <glyph glyph-name="parenleft" unicode="(" horiz-adv-x="296" 
d="M268 -177v-1l-69 -44c-100 157 -150 318 -150 485c0 164 50 324 150 481l69 -44c-89 -148 -134 -293 -134 -436c0 -147 45 -294 134 -442v1z" />
    <glyph glyph-name="parenright" unicode=")" horiz-adv-x="296" 
d="M28 701v-1l69 44c100 -157 150 -317 150 -481c0 -167 -50 -328 -150 -485l-69 44c89 148 134 295 134 442c0 143 -45 288 -134 436v1z" />
    <glyph glyph-name="asterisk" unicode="*" horiz-adv-x="415" 
d="M354 628v-2l-96 -57l94 -58l-31 -50l-88 59l3 -110h-58l4 110l-90 -59l-30 50l91 58l-93 58l30 50l91 -58l-2 110h58l-3 -110l90 60l30 -52v0v1z" />
    <glyph glyph-name="plus" unicode="+" 
d="M532 317v-1h-206v-206h-78v206h-206v79h206v206h78v-206h206v-79v0v1z" />
    <glyph glyph-name="comma" unicode="," horiz-adv-x="236" 
d="M101 -14h3c-32 9 -48 29 -48 58c0 16 6 30 18 42s26 18 42 18s30 -6 42 -18s18 -26 18 -42c0 -39 -25 -92 -76 -161h-50c27 44 44 78 51 102v1z" />
    <glyph glyph-name="hyphen" unicode="-" horiz-adv-x="398" 
d="M356 214v-1h-314v87h314v-87v0v1z" />
    <glyph glyph-name="period" unicode="." horiz-adv-x="236" 
d="M117 107l1 -1c16 0 30 -6 42 -18s18 -26 18 -42s-6 -30 -18 -42s-26 -18 -42 -18c-17 0 -31 6 -43 18s-18 26 -18 42s6 30 18 42s26 18 42 18v1z" />
    <glyph glyph-name="slash" unicode="/" horiz-adv-x="529" 
d="M502 694v-1l-413 -708l-62 35l413 708l62 -35v0v1z" />
    <glyph glyph-name="zero" unicode="0" 
d="M288 730v-2c79 0 141 -33 186 -98s67 -156 67 -272c0 -117 -22 -209 -66 -274c-45 -65 -107 -98 -187 -98c-79 0 -141 33 -186 98s-68 157 -68 275c0 117 23 208 68 273s107 98 186 98zM288 74v-2c50 0 89 25 116 74s41 119 41 209c0 85 -13 154 -38 206
c-26 52 -66 78 -119 78c-51 0 -90 -25 -117 -75c-27 -49 -41 -119 -41 -208c0 -90 14 -160 41 -209s66 -74 117 -74v1z" />
    <glyph glyph-name="one" unicode="1" 
d="M360 2v-2h-92v628h-146l46 85h192v-712v0v1z" />
    <glyph glyph-name="two" unicode="2" 
d="M536 1v-1h-502l296 344c41 48 67 84 77 107s15 45 15 65c0 37 -12 67 -36 90s-53 34 -88 34c-39 0 -72 -13 -100 -39s-45 -63 -50 -111h-98c7 76 33 135 80 176s103 62 170 62c63 0 115 -19 156 -58s62 -90 62 -154c0 -29 -7 -59 -20 -90s-33 -61 -59 -92l-214 -246h311
v-88v1z" />
    <glyph glyph-name="three" unicode="3" 
d="M396 373v-3c39 -12 70 -34 93 -66c22 -32 33 -68 33 -109c0 -63 -22 -114 -66 -153s-101 -58 -171 -58c-63 0 -117 19 -162 58s-70 91 -73 158h96c3 -41 17 -74 44 -97s59 -34 96 -34c41 0 75 12 101 36s39 55 39 93c0 39 -13 71 -40 95s-67 36 -119 36h-40v80h38
c45 0 81 11 107 34s39 53 39 89c0 35 -11 62 -34 82s-53 30 -90 30c-33 0 -63 -10 -88 -31s-39 -48 -42 -83h-94c4 61 28 109 71 145s95 54 156 54c62 0 113 -18 153 -54s60 -83 60 -141c0 -36 -9 -69 -28 -98s-46 -51 -79 -64v1z" />
    <glyph glyph-name="four" unicode="4" 
d="M532 252v-83h-78v-169h-89v169h-349v83l362 476h76v-476h78zM366 253v-1v324l-246 -324h246v0v1z" />
    <glyph glyph-name="five" unicode="5" 
d="M189 466l-1 1c21 5 45 8 72 8c77 0 140 -21 187 -64s70 -101 70 -176c0 -68 -23 -127 -70 -176s-110 -74 -190 -74c-88 0 -168 32 -240 96l56 70c55 -55 117 -82 185 -82c49 0 89 16 118 48c29 33 44 72 44 119c0 51 -17 89 -52 116s-83 40 -146 40
c-45 0 -90 -8 -134 -24l54 343h349v-86h-278l-24 -160v1z" />
    <glyph glyph-name="six" unicode="6" 
d="M220 460l1 -2c27 15 60 23 97 23c63 0 116 -23 161 -68s67 -102 67 -171c0 -77 -25 -138 -74 -185s-110 -70 -182 -70c-73 0 -134 23 -183 69c-49 47 -74 108 -74 184c0 39 9 78 26 118s46 88 85 144l156 220h108zM289 73l1 -1c44 0 81 15 112 45c31 31 46 70 46 118
c0 51 -15 90 -46 119s-67 43 -110 43c-45 0 -84 -15 -115 -45c-32 -30 -48 -69 -48 -117c0 -49 15 -88 46 -118s69 -45 114 -45v1z" />
    <glyph glyph-name="seven" unicode="7" 
d="M559 713v-1l-355 -712h-104l312 626h-355v86h502v0v1z" />
    <glyph glyph-name="eight" unicode="8" 
d="M398 376v-1c39 -16 69 -40 90 -72s32 -68 32 -109c0 -64 -23 -115 -69 -152s-101 -56 -165 -56c-65 0 -121 19 -166 58s-68 89 -68 151c0 41 11 78 33 110s52 56 91 72c-33 17 -59 39 -76 67c-18 28 -27 58 -27 90c0 60 21 107 63 142s92 53 150 53c60 0 111 -18 152 -54
s62 -83 62 -142c0 -31 -9 -61 -26 -89s-43 -51 -76 -68zM285 416h1c33 0 61 11 85 34s36 50 36 82c0 34 -12 61 -35 82s-52 32 -85 32s-61 -11 -84 -32c-24 -21 -36 -49 -36 -82c0 -32 12 -59 35 -82s51 -34 83 -34zM288 71l-2 -1c40 0 73 12 100 36s40 56 40 95
c0 36 -14 67 -41 93s-60 39 -97 39s-69 -13 -96 -39c-27 -25 -41 -56 -41 -93c0 -39 13 -71 40 -95s59 -36 97 -36v1z" />
    <glyph glyph-name="nine" unicode="9" 
d="M355 254l-1 1c-27 -15 -60 -22 -97 -22c-63 0 -116 23 -161 68s-67 102 -67 170c0 77 25 139 74 186s110 70 182 70c73 0 134 -23 183 -70c49 -46 74 -107 74 -183c0 -39 -9 -78 -26 -118s-46 -88 -85 -144l-156 -220h-108zM283 316h-1c45 0 84 15 116 44
c31 30 47 69 47 117c0 50 -16 90 -47 119s-69 44 -113 44s-81 -15 -112 -45s-46 -69 -46 -118c0 -51 15 -90 46 -119s67 -43 110 -43v1z" />
    <glyph glyph-name="colon" unicode=":" horiz-adv-x="256" 
d="M128 484c16 0 30 -6 42 -18s18 -26 18 -42s-6 -30 -18 -42s-26 -18 -42 -18s-30 6 -42 18s-18 26 -18 42s6 30 18 42s26 18 42 18zM128 107v-1c16 0 30 -6 42 -18s18 -26 18 -42s-6 -30 -18 -42s-26 -18 -42 -18s-30 6 -42 18s-18 26 -18 42s6 30 18 42s26 18 42 18v1z
" />
    <glyph glyph-name="semicolon" unicode=";" horiz-adv-x="256" 
d="M110 -15l4 1c-32 9 -48 29 -48 58c0 16 6 30 18 42s26 18 42 18s30 -6 42 -18s18 -26 18 -42c0 -39 -25 -92 -76 -161h-50c27 44 43 78 50 102zM128 485v-1c16 0 30 -6 42 -18s18 -26 18 -42s-6 -30 -18 -42s-26 -18 -42 -18s-30 6 -42 18s-18 26 -18 42s6 30 18 42
s26 18 42 18v1z" />
    <glyph glyph-name="less" unicode="&#x3c;" 
d="M532 105v-1l-490 213v80l490 213v-85l-387 -168l387 -168v-85v0v1z" />
    <glyph glyph-name="equal" unicode="=" 
d="M532 493v-79h-490v79h490zM532 219v-1h-490v79h490v-79v0v1z" />
    <glyph glyph-name="greater" unicode="&#x3e;" 
d="M532 317v-1l-490 -213v85l387 168l-387 168v85l490 -213v-80v0v1z" />
    <glyph glyph-name="question" unicode="?" horiz-adv-x="555" 
d="M37 507h1c7 68 34 122 81 162s101 60 162 60c70 0 127 -21 171 -64c43 -43 65 -95 65 -158c0 -45 -12 -87 -36 -126s-67 -77 -130 -114c-20 -12 -33 -23 -38 -34c-6 -11 -9 -25 -9 -42v-12h-87v10c0 33 7 61 20 85c13 25 33 45 60 61c53 32 87 61 104 88s25 55 25 84
c0 39 -13 71 -40 98s-62 40 -107 40c-39 0 -73 -12 -101 -36s-45 -58 -50 -102h-91zM257 107l2 -1c16 0 30 -6 42 -18s18 -26 18 -42s-6 -30 -18 -42s-26 -18 -42 -18s-30 6 -43 18s-19 26 -19 42s6 30 18 42s26 18 42 18v1z" />
    <glyph glyph-name="at" unicode="@" horiz-adv-x="967" 
d="M782 -145l2 -7c-88 -47 -178 -70 -270 -70c-83 0 -159 21 -230 62s-127 98 -168 171s-61 154 -61 242c0 83 20 162 60 237c39 75 94 133 164 176s149 64 237 64c111 0 206 -37 283 -112s116 -171 116 -288c0 -101 -23 -184 -68 -248c-45 -63 -99 -95 -160 -95
c-29 0 -52 8 -68 24s-24 39 -24 68c-20 -29 -45 -51 -74 -67s-61 -24 -94 -24c-56 0 -102 20 -137 60s-53 92 -53 157c0 77 23 143 70 199s107 84 180 84c36 0 67 -7 92 -22s45 -37 60 -66l14 72h80l-49 -263c-12 -63 -18 -98 -18 -106c0 -15 3 -26 10 -33
c6 -7 15 -10 27 -10c28 0 57 26 86 77s44 115 44 190c0 99 -31 179 -94 242s-140 94 -232 94c-107 0 -196 -40 -268 -120s-108 -175 -108 -284c0 -119 37 -215 112 -289s165 -111 272 -111c83 0 162 21 235 64zM435 63v1c42 0 79 15 112 46s53 72 60 121l8 45c1 3 1 8 1 16
c0 35 -12 63 -36 84s-54 32 -89 32c-49 0 -90 -20 -122 -60s-48 -87 -48 -140c0 -44 10 -79 30 -106s48 -40 84 -40v1z" />
    <glyph glyph-name="A" unicode="A" horiz-adv-x="685" 
d="M204 234h275l-139 326zM676 1l-1 -1h-98l-64 152h-344l-64 -152h-94l302 712h59l304 -712v0v1z" />
    <glyph glyph-name="B" unicode="B" horiz-adv-x="578" 
d="M407 387l-1 -3c43 -12 77 -34 100 -67s35 -69 35 -110c0 -63 -21 -113 -64 -150s-102 -56 -178 -56h-217v712h202c80 0 137 -17 172 -52c34 -35 51 -75 51 -121c0 -36 -8 -67 -25 -92s-42 -46 -75 -61zM172 417v1h116c37 0 67 11 90 32s35 48 35 80c0 29 -11 52 -33 71
s-51 28 -87 28h-121v-212zM174 86l-2 -2h124c49 0 87 11 113 32c26 22 39 53 39 93c0 37 -13 68 -38 91c-25 24 -59 36 -102 36h-134v-251v1z" />
    <glyph glyph-name="C" unicode="C" horiz-adv-x="668" 
d="M411 -13l1 -3c-107 0 -196 36 -265 107c-70 72 -105 161 -105 266c0 67 16 129 49 186c32 57 77 102 134 135s120 50 187 50c83 0 156 -18 220 -55v-108c-69 49 -143 74 -221 74c-77 0 -141 -27 -194 -82s-80 -121 -80 -200c0 -81 26 -149 78 -203
c51 -53 117 -80 198 -80c76 0 149 24 218 72v-106c-69 -36 -143 -54 -220 -54v1z" />
    <glyph glyph-name="D" unicode="D" horiz-adv-x="696" 
d="M80 711v1h194c115 0 207 -33 276 -98s103 -153 103 -262c0 -110 -35 -196 -106 -259s-167 -94 -288 -94h-179v712zM171 86l1 1h81c97 0 172 23 225 68c52 45 78 111 78 198c0 88 -27 155 -80 202s-128 70 -223 70h-82v-540v1z" />
    <glyph glyph-name="E" unicode="E" horiz-adv-x="525" 
d="M488 -1v1h-408v712h398v-86h-306v-224h293v-86h-293v-230h316v-87v0z" />
    <glyph glyph-name="F" unicode="F" horiz-adv-x="510" 
d="M488 627v-1h-316v-224h293v-86h-293v-316h-92v712h408v-86v0v1z" />
    <glyph glyph-name="G" unicode="G" horiz-adv-x="782" 
d="M744 328l2 -2c0 -101 -30 -183 -91 -246s-143 -94 -244 -94c-103 0 -190 36 -262 108s-108 160 -108 263s35 191 106 263s159 108 264 108c127 0 226 -48 297 -144l-78 -55c-55 73 -128 110 -219 110c-79 0 -144 -27 -196 -82s-78 -121 -78 -200c0 -81 26 -149 78 -204
s117 -82 196 -82c60 0 112 18 156 54s71 86 80 149h-192v85h289v-32v1z" />
    <glyph glyph-name="H" unicode="H" horiz-adv-x="712" 
d="M632 1v-1h-92v332h-368v-332h-92v712h92v-298h368v298h92v-712v0v1z" />
    <glyph glyph-name="I" unicode="I" horiz-adv-x="252" 
d="M172 1v-1h-92v712h92v-712v0v1z" />
    <glyph glyph-name="J" unicode="J" horiz-adv-x="446" 
d="M371 196l1 -2c0 -68 -15 -120 -45 -156c-30 -35 -74 -53 -131 -53c-78 0 -139 34 -183 102l68 56c31 -47 67 -71 107 -71c31 0 54 11 69 32c15 22 22 55 22 99v511h92v-519v1z" />
    <glyph glyph-name="K" unicode="K" horiz-adv-x="631" 
d="M620 1v-1h-122l-326 347v-347h-92v712h92v-332l324 332h116l-342 -346l350 -366v0v1z" />
    <glyph glyph-name="L" unicode="L" horiz-adv-x="496" 
d="M488 -1v1h-408v712h92v-626h316v-87v0z" />
    <glyph glyph-name="M" unicode="M" horiz-adv-x="901" 
d="M870 1v-1h-91l-85 513l-216 -513h-52l-221 513l-83 -513h-92l119 712h62l240 -556l236 556h62l121 -712v0v1z" />
    <glyph glyph-name="N" unicode="N" horiz-adv-x="735" 
d="M657 1l-1 -1h-66l-420 540v-540h-89v712h66l421 -540v540h89v-712v0v1z" />
    <glyph glyph-name="O" unicode="O" horiz-adv-x="826" 
d="M411 728h1c103 0 190 -36 262 -109s108 -160 108 -263c0 -67 -17 -129 -50 -186s-79 -103 -136 -136s-119 -50 -186 -50c-103 0 -190 36 -262 109s-108 160 -108 263c0 67 17 129 50 186s78 103 135 136s119 50 186 50zM412 75v-1c77 0 142 27 195 82s79 121 79 200
s-26 145 -78 200s-117 82 -196 82c-77 0 -142 -27 -195 -82s-80 -121 -80 -200s27 -145 80 -200s118 -82 195 -82v1z" />
    <glyph glyph-name="P" unicode="P" horiz-adv-x="547" 
d="M81 713l-1 -1h192c78 0 138 -20 181 -59s64 -91 64 -156s-22 -119 -65 -160s-102 -62 -177 -62h-102v-274h-92v712zM171 362l1 -2h98c46 0 83 13 111 38s42 59 42 100c0 40 -14 72 -41 95c-28 24 -66 36 -113 36h-98v-268v1z" />
    <glyph glyph-name="Q" unicode="Q" horiz-adv-x="826" 
d="M599 35h1c-59 -33 -121 -50 -188 -50c-103 0 -190 36 -262 109s-108 160 -108 263c0 67 17 129 50 186s78 103 135 136s119 50 186 50c103 0 190 -36 262 -109s108 -160 108 -263c0 -107 -39 -198 -118 -273l100 -117h-108zM605 156l1 -2c54 56 81 124 81 203
s-26 145 -78 200s-117 82 -196 82c-77 0 -142 -27 -195 -82s-80 -121 -80 -200s27 -145 80 -200s118 -82 195 -82c45 0 87 10 126 31l-142 166h108l100 -117v1z" />
    <glyph glyph-name="R" unicode="R" horiz-adv-x="574" 
d="M569 0h1h-116l-230 286h-51v-286h-92v712h190c77 0 136 -19 179 -57s64 -88 64 -151c0 -55 -16 -101 -48 -138s-77 -61 -135 -72zM171 370h1h94c48 0 86 12 114 36c27 24 41 57 41 98c0 39 -14 69 -42 90s-65 32 -112 32h-96v-257v1z" />
    <glyph glyph-name="S" unicode="S" horiz-adv-x="518" 
d="M255 -16h4c-41 0 -84 9 -128 26s-81 40 -112 68l58 72c59 -53 120 -79 183 -79c41 0 74 10 98 31s36 49 36 84c0 27 -10 50 -31 69s-58 39 -111 59c-89 35 -147 69 -172 104s-38 75 -38 120c0 54 22 99 66 135c43 36 97 54 162 54c71 0 138 -21 201 -62l-46 -78
c-55 35 -108 53 -160 53c-37 0 -68 -9 -92 -28s-36 -43 -36 -73s10 -54 29 -73s52 -37 98 -56c96 -39 157 -75 183 -108c25 -33 38 -71 38 -115c0 -61 -22 -111 -66 -148c-45 -37 -99 -56 -164 -56v1z" />
    <glyph glyph-name="T" unicode="T" horiz-adv-x="510" 
d="M499 627l-1 -1h-196v-626h-92v626h-196v87h485v-87v0v1z" />
    <glyph glyph-name="U" unicode="U" horiz-adv-x="685" 
d="M340 -16h2c-80 0 -145 24 -194 72s-74 113 -74 195v460h92v-456c0 -61 17 -107 51 -137c33 -29 75 -44 124 -44c53 0 96 16 129 47c32 32 48 77 48 134v456h92v-460c0 -81 -24 -146 -73 -195s-114 -73 -197 -73v1z" />
    <glyph glyph-name="V" unicode="V" horiz-adv-x="660" 
d="M648 713l1 -1l-288 -712h-62l-289 712h98l222 -557l224 557h94v0v1z" />
    <glyph glyph-name="W" unicode="W" horiz-adv-x="1002" 
d="M986 713l-1 -1l-232 -712h-66c-115 334 -177 512 -184 535l-188 -534h-66l-232 712h96c112 -344 170 -525 173 -542l190 542h56c117 -331 180 -512 188 -541l68 216l104 324h94v1z" />
    <glyph glyph-name="X" unicode="X" horiz-adv-x="642" 
d="M630 1l-2 -1h-110l-198 294l-198 -294h-106l252 362l-244 350h110l188 -278l188 278h106l-240 -346l254 -366v0v1z" />
    <glyph glyph-name="Y" unicode="Y" horiz-adv-x="616" 
d="M610 713v-1l-255 -396v-316h-92v316l-256 396h108l197 -308l194 308h104v0v1z" />
    <glyph glyph-name="Z" unicode="Z" horiz-adv-x="600" 
d="M593 712h1l-418 -626h383v-87h-549l421 626h-374v86h536v0v1z" />
    <glyph glyph-name="bracketleft" unicode="[" horiz-adv-x="306" 
d="M272 -204v-1h-192v918h192v-74h-108v-770h108v-74v0v1z" />
    <glyph glyph-name="backslash" unicode="\" horiz-adv-x="529" 
d="M502 21v-1l-62 -35l-413 708l62 35l413 -708v0v1z" />
    <glyph glyph-name="bracketright" unicode="]" horiz-adv-x="306" 
d="M226 -204v-1h-192v74h108v770h-108v74h192v-918v0v1z" />
    <glyph glyph-name="asciicircum" unicode="^" horiz-adv-x="582" 
d="M338 713v-1l178 -322h-88l-136 240l-138 -240h-88l178 322h94v0v1z" />
    <glyph glyph-name="underscore" unicode="_" horiz-adv-x="512" 
d="M518 -127v-1h-524v51h524v-51v0v1z" />
    <glyph glyph-name="grave" unicode="`" horiz-adv-x="355" 
d="M247 578l-1 -2l-39 -34l-142 132l66 57l116 -154v0v1z" />
    <glyph glyph-name="a" unicode="a" horiz-adv-x="599" 
d="M285 64l-1 -2c44 0 82 17 114 50c31 33 47 75 47 124c0 48 -16 89 -48 122s-70 50 -114 50c-47 0 -86 -16 -115 -48c-30 -32 -45 -73 -45 -124s15 -92 44 -124s69 -48 118 -48zM445 -2l-1 2v72c-21 -27 -46 -48 -77 -64s-62 -24 -94 -24c-71 0 -128 24 -173 72
s-67 108 -67 179c0 68 23 126 69 174s103 72 171 72c32 0 63 -8 94 -24s57 -38 78 -66v74h86v-468h-86v1z" />
    <glyph glyph-name="b" unicode="b" horiz-adv-x="600" 
d="M153 395l1 -1c21 28 47 50 78 66s62 24 94 24c68 0 125 -24 172 -72c46 -48 69 -106 69 -174c0 -71 -22 -131 -67 -179s-103 -72 -174 -72c-32 0 -64 8 -96 24s-58 37 -77 62v-72h-86v728h86v-334zM317 61l-1 1c49 0 89 16 118 48s44 73 44 124s-15 92 -44 124
c-30 32 -69 48 -117 48c-44 0 -82 -17 -114 -50s-48 -74 -48 -122c0 -49 16 -91 48 -124s70 -50 114 -50v1z" />
    <glyph glyph-name="c" unicode="c" horiz-adv-x="446" 
d="M286 -11l-2 -5c-73 0 -132 24 -179 71c-47 48 -70 108 -70 180c0 71 24 130 72 178s108 72 180 72c49 0 94 -10 135 -31v-85c-41 25 -85 38 -133 38c-49 0 -88 -16 -119 -48s-46 -73 -46 -122c0 -50 15 -91 44 -123s69 -48 120 -48c45 0 90 13 134 38v-85
c-43 -21 -88 -31 -136 -31v1z" />
    <glyph glyph-name="d" unicode="d" horiz-adv-x="600" 
d="M284 64v-2c44 0 82 17 114 50s48 75 48 124c0 48 -16 89 -48 122s-70 50 -114 50c-47 0 -86 -16 -116 -48c-31 -32 -46 -73 -46 -124s15 -92 44 -124s69 -48 118 -48zM445 0h1v72c-19 -25 -45 -46 -77 -62s-64 -24 -96 -24c-71 0 -128 24 -173 72s-67 108 -67 179
c0 68 23 126 69 174s103 72 171 72c32 0 63 -8 94 -24s57 -38 78 -66v334h86v-728h-86v1z" />
    <glyph glyph-name="e" unicode="e" horiz-adv-x="550" 
d="M430 280h-2c-5 39 -22 70 -49 94c-28 24 -61 36 -98 36c-40 0 -74 -12 -102 -36s-46 -55 -53 -94h304zM279 -15l1 -1c-72 0 -131 23 -177 70s-69 107 -69 182c0 69 24 128 71 176s106 72 175 72c73 0 131 -23 174 -70s64 -108 64 -184v-20h-397c3 -43 19 -79 48 -107
s66 -42 111 -42c61 0 111 25 150 76l73 -40c-53 -75 -128 -113 -224 -113v1z" />
    <glyph glyph-name="f" unicode="f" horiz-adv-x="280" 
d="M299 660l1 -4c-19 7 -40 11 -64 11c-21 0 -36 -6 -45 -19c-9 -12 -13 -33 -13 -64v-114h98v-74h-98v-394h-86v394h-72v74h72v116c0 51 11 91 34 119s56 42 100 42c27 0 52 -2 73 -7v-81v1z" />
    <glyph glyph-name="g" unicode="g" horiz-adv-x="587" 
d="M516 14h2c0 -69 -22 -126 -66 -170s-104 -66 -180 -66c-60 0 -111 16 -152 48c-42 32 -66 73 -73 123h85c6 -29 22 -53 47 -70s57 -26 94 -26c47 0 86 14 115 42s44 66 44 114v76c-20 -26 -45 -47 -75 -62c-31 -15 -61 -23 -92 -23c-68 0 -124 23 -167 70
s-65 104 -65 173c0 67 22 123 66 170s99 70 165 70c31 0 61 -8 91 -23c29 -15 54 -37 75 -64v72h86v-454zM279 77l-1 1c43 0 79 15 110 46c30 31 45 69 45 116c0 45 -15 84 -46 116s-67 48 -110 48c-46 0 -83 -15 -111 -46c-29 -31 -43 -71 -43 -120c0 -48 14 -87 42 -117
s66 -45 114 -45v1z" />
    <glyph glyph-name="h" unicode="h" horiz-adv-x="532" 
d="M467 -1l3 1h-86v290c0 41 -8 70 -23 89c-16 19 -41 28 -74 28c-47 0 -91 -28 -134 -85v-322h-86v728h86v-318c46 49 97 73 153 73c51 0 90 -16 119 -48c28 -31 42 -73 42 -125v-312v1z" />
    <glyph glyph-name="i" unicode="i" horiz-adv-x="237" 
d="M119 696c16 0 30 -6 41 -18s17 -26 17 -42s-6 -30 -17 -41s-25 -17 -41 -17c-17 0 -31 6 -42 17c-12 11 -18 25 -18 41s6 30 18 42s26 18 42 18zM162 1v-1h-86v468h86v-468v1z" />
    <glyph glyph-name="j" unicode="j" horiz-adv-x="237" 
d="M119 696c16 0 30 -6 41 -18s17 -26 17 -42s-6 -30 -17 -41s-25 -17 -41 -17c-17 0 -31 6 -42 17c-12 11 -18 25 -18 41s6 30 18 42s26 18 42 18zM162 -27v1c0 -61 -13 -109 -40 -144s-65 -52 -116 -52h-15v76c29 0 50 9 64 28s21 52 21 99v486h86v-494z" />
    <glyph glyph-name="k" unicode="k" horiz-adv-x="472" 
d="M466 1l1 -1h-110l-203 242v-242h-86v728h86v-460l196 200h110l-214 -212l220 -256v0v1z" />
    <glyph glyph-name="l" unicode="l" horiz-adv-x="223" 
d="M154 1v-1h-86v728h86v-728v0v1z" />
    <glyph glyph-name="m" unicode="m" horiz-adv-x="786" 
d="M725 2l-1 -2h-86v290c0 44 -6 74 -18 91s-32 26 -60 26c-41 0 -81 -28 -119 -84v-322h-86v290c0 40 -6 69 -17 88c-12 19 -33 28 -64 28c-39 0 -79 -28 -119 -84v-322h-86v468h86v-56c41 48 88 72 140 72c32 0 59 -7 80 -22c21 -14 37 -35 48 -63c45 57 98 85 157 85
c46 0 82 -15 107 -46s38 -73 38 -126v-312v1z" />
    <glyph glyph-name="n" unicode="n" horiz-adv-x="532" 
d="M467 -1l3 1h-86v290c0 41 -8 70 -23 89c-16 19 -41 28 -74 28c-47 0 -91 -28 -134 -85v-322h-86v468h86v-58c46 49 97 73 153 73c51 0 90 -16 119 -48c28 -31 42 -73 42 -125v-312v1z" />
    <glyph glyph-name="o" unicode="o" horiz-adv-x="569" 
d="M283 484h1c69 0 128 -24 177 -73c48 -49 72 -107 72 -176s-24 -128 -73 -177s-108 -74 -177 -74s-128 25 -177 74s-74 108 -74 177s25 127 74 176s108 73 177 73zM284 61v1c47 0 85 17 116 50s46 74 46 122s-15 88 -46 121s-69 50 -116 50c-46 0 -84 -17 -115 -50
s-47 -74 -47 -122s15 -89 46 -122s69 -50 116 -50z" />
    <glyph glyph-name="p" unicode="p" horiz-adv-x="600" 
d="M155 394l-1 2c19 25 45 46 77 62s64 24 96 24c71 0 129 -24 174 -72s67 -108 67 -179c0 -68 -23 -126 -69 -175c-47 -49 -104 -73 -172 -73c-32 0 -63 8 -94 24s-57 38 -78 66v-297h-86v690h86v-72zM316 61v1c47 0 86 16 117 48c30 32 45 73 45 124s-15 92 -44 124
s-69 48 -118 48c-44 0 -82 -17 -114 -50s-48 -74 -48 -123c0 -48 16 -89 48 -123c32 -33 70 -50 114 -50v1z" />
    <glyph glyph-name="q" unicode="q" horiz-adv-x="600" 
d="M284 62c44 0 82 17 114 50c32 34 48 75 48 123c0 49 -16 90 -48 122c-32 33 -70 49 -114 49c-49 0 -89 -16 -118 -48s-44 -73 -44 -124s15 -92 46 -124c30 -32 69 -48 116 -48zM447 -219l-1 -3v297c-21 -28 -47 -50 -78 -66s-62 -24 -94 -24c-68 0 -125 24 -171 73
s-69 107 -69 175c0 71 22 131 67 179s102 72 173 72c32 0 64 -8 96 -24s58 -37 77 -62v72h86v-690h-86v1z" />
    <glyph glyph-name="r" unicode="r" horiz-adv-x="345" 
d="M336 478v-1l-10 -92c-19 5 -35 7 -49 7c-47 0 -88 -27 -124 -80v-312h-86v468h86v-72c43 58 88 87 137 87c17 0 33 -2 46 -6v1z" />
    <glyph glyph-name="s" unicode="s" horiz-adv-x="399" 
d="M197 -17l1 1c-66 0 -126 20 -180 60l47 66c43 -33 87 -50 133 -50c27 0 48 5 61 16s20 27 20 48c0 14 -5 26 -16 37s-33 23 -66 36c-71 29 -116 55 -135 78s-28 49 -28 78c0 37 15 68 46 92s71 36 122 36c50 0 101 -13 153 -40l-35 -73c-41 25 -81 38 -120 38
c-25 0 -45 -5 -58 -14s-20 -22 -20 -38c0 -14 7 -26 20 -37s41 -24 82 -41c62 -25 102 -49 119 -72s26 -49 26 -78c0 -43 -16 -77 -47 -104s-73 -40 -125 -40v1z" />
    <glyph glyph-name="t" unicode="t" horiz-adv-x="294" 
d="M278 395v-1h-91v-394h-86v394h-84v74h84v158h86v-158h91v-74v0v1z" />
    <glyph glyph-name="u" unicode="u" horiz-adv-x="526" 
d="M262 -15l1 -1c-62 0 -111 18 -147 54s-54 84 -54 144v286h86v-284c0 -37 11 -66 32 -89s49 -34 83 -34c33 0 60 11 81 34s32 52 32 88v284h86v-286c0 -59 -18 -107 -54 -143s-85 -54 -146 -54v1z" />
    <glyph glyph-name="v" unicode="v" horiz-adv-x="482" 
d="M476 469l1 -1l-210 -468h-54l-210 468h94l145 -341l144 341h90v0v1z" />
    <glyph glyph-name="w" unicode="w" horiz-adv-x="750" 
d="M747 469l-1 -1l-192 -468h-50l-127 326l-130 -326h-50l-192 468h90l132 -331l131 331h46l127 -328l130 328h86v0v1z" />
    <glyph glyph-name="x" unicode="x" horiz-adv-x="500" 
d="M487 1l1 -1h-106l-133 182l-136 -182h-101l186 240l-176 228h106l123 -168l125 168h101l-176 -226l186 -242v0v1z" />
    <glyph glyph-name="y" unicode="y" horiz-adv-x="511" 
d="M508 469l-1 -1l-318 -690h-89l114 248l-203 442h94l156 -348l157 348h90v0v1z" />
    <glyph glyph-name="z" unicode="z" horiz-adv-x="481" 
d="M464 469v-1l-289 -391h261v-77h-420l290 391h-264v77h422v0v1z" />
    <glyph glyph-name="braceleft" unicode="{" horiz-adv-x="284" 
d="M242 -206v1h-32c-32 0 -58 11 -79 33c-21 23 -31 53 -31 92v173c0 34 -6 62 -18 84s-30 38 -53 49v59c23 10 41 26 53 47c12 22 18 50 18 83v174c0 39 10 69 31 92c20 23 46 34 77 34h34v-74h-22c-12 0 -21 -4 -28 -12s-10 -24 -10 -47v-168c0 -36 -6 -67 -18 -94
s-30 -49 -54 -66c24 -17 42 -39 54 -66s18 -58 18 -94v-168c0 -23 3 -39 10 -47s16 -12 28 -12h22v-74v1z" />
    <glyph glyph-name="bar" unicode="|" horiz-adv-x="244" 
d="M160 -255v-1h-76v1024h76v-1024v0v1z" />
    <glyph glyph-name="braceright" unicode="}" horiz-adv-x="284" 
d="M252 228l1 -4c-23 -11 -41 -27 -52 -49c-12 -22 -18 -50 -18 -84v-173c0 -40 -11 -71 -32 -92s-48 -32 -79 -32h-32v74h22c12 0 21 4 28 12s10 24 10 47v168c0 36 6 67 18 94s30 49 54 66c-24 17 -42 39 -54 66s-18 58 -18 94v168c0 23 -3 39 -10 47s-16 12 -28 12h-22
v74h34c31 0 56 -11 77 -34s31 -53 31 -92v-174c0 -33 6 -61 18 -83c11 -21 29 -37 52 -47v-59v1z" />
    <glyph glyph-name="asciitilde" unicode="~" horiz-adv-x="582" 
d="M554 338v-2c-28 -25 -52 -43 -72 -54c-21 -11 -42 -16 -65 -16c-37 0 -82 15 -134 46s-91 47 -117 47c-19 0 -39 -7 -62 -20s-48 -32 -76 -57v96c28 25 53 42 74 53s44 16 67 16c15 0 31 -3 50 -8s47 -18 84 -38c32 -17 56 -29 73 -36c16 -7 30 -10 42 -10
c17 0 37 6 60 19s48 33 76 59v-96v1z" />
    <glyph glyph-name="exclamdown" unicode="&#xa1;" horiz-adv-x="256" 
d="M165 309l13 -531h-100l12 531h75zM129 485l-1 -1c16 0 30 -6 42 -18s18 -26 18 -42s-6 -30 -18 -42s-26 -18 -42 -18s-30 6 -42 18s-18 26 -18 42s6 30 18 42s26 18 43 18v1z" />
    <glyph glyph-name="cent" unicode="&#xa2;" 
d="M478 140l2 -3c-26 -13 -60 -23 -101 -29v-93h-68v93c-67 8 -120 35 -159 82s-59 102 -59 167c0 63 20 117 60 164s93 74 159 83v90h68v-90c39 -5 72 -14 100 -29v-85c-41 25 -86 38 -134 38c-49 0 -89 -16 -120 -48s-46 -73 -46 -122c0 -51 15 -92 45 -124
c29 -32 69 -48 119 -48c45 0 90 13 134 38v-85v1z" />
    <glyph glyph-name="sterling" unicode="&#xa3;" 
d="M574 111v1c-15 -43 -35 -75 -60 -96s-56 -32 -92 -32c-28 0 -66 9 -114 28c-47 19 -73 28 -80 28c-17 5 -31 8 -43 8c-29 0 -54 -22 -74 -65l-78 16c13 42 31 74 53 97c21 23 47 36 78 39c8 19 12 40 12 65c0 33 -9 76 -26 128h-88v73h64c-17 55 -26 97 -26 127
c0 57 19 105 58 143s92 57 159 57c59 0 107 -15 145 -44s59 -70 63 -122h-96c-3 27 -14 47 -34 62c-21 15 -46 22 -77 22c-36 0 -65 -11 -88 -34s-34 -52 -34 -89c0 -31 9 -72 26 -124h180v-73h-160c15 -45 22 -88 22 -127c0 -27 -4 -51 -12 -72c4 0 23 -7 56 -20
c56 -21 94 -32 114 -32c33 0 58 18 75 54z" />
    <glyph glyph-name="currency" unicode="&#xa4;" 
d="M546 142l-2 2l-45 -45l-97 95c-32 -23 -70 -35 -114 -35c-41 0 -78 12 -111 36l-98 -96l-46 45l98 99c-24 33 -36 71 -36 112c0 44 12 81 35 112l-95 97l45 46l96 -96c35 25 73 38 114 38c43 0 82 -12 115 -37l96 94l45 -46l-93 -95c25 -33 37 -72 37 -115
c0 -39 -13 -77 -38 -114zM288 229v1c36 0 66 12 90 36s36 54 36 89c0 36 -12 67 -36 92s-55 38 -92 38c-35 0 -63 -13 -86 -38s-34 -56 -34 -92c0 -35 12 -64 36 -89c23 -25 52 -37 86 -37z" />
    <glyph glyph-name="yen" unicode="&#xa5;" 
d="M575 713l-1 -1l-190 -314h160v-73h-204l-5 -9v-76h208v-72h-208v-168h-92v168h-200v72h200v77l-5 8h-196v73h150l-190 314h106l184 -305l181 305h102v0v1z" />
    <glyph glyph-name="brokenbar" unicode="&#xa6;" horiz-adv-x="244" 
d="M160 691v-358h-76v358h76zM160 -178v-1h-76v358h76v-358v0v1z" />
    <glyph glyph-name="section" unicode="&#xa7;" horiz-adv-x="511" 
d="M342 574h-1c-3 25 -12 45 -28 59c-17 14 -37 21 -61 21c-28 0 -51 -8 -68 -24s-26 -35 -26 -58c0 -16 5 -31 14 -44s22 -25 40 -36l126 -80c37 -23 65 -44 82 -61s30 -36 39 -56s13 -41 13 -64c0 -53 -24 -100 -72 -143c32 -28 48 -70 48 -126c0 -51 -19 -94 -56 -130
s-84 -54 -141 -54s-104 17 -143 52s-58 82 -58 142h91c0 -35 11 -62 33 -83s48 -31 79 -31c29 0 54 9 74 28s30 44 30 75c0 17 -4 32 -11 47c-8 15 -25 30 -52 47l-158 96c-32 19 -55 42 -70 68s-22 55 -22 87c0 55 23 105 70 149c-28 27 -42 63 -42 110s17 86 52 117
s79 47 132 47c51 0 92 -13 123 -40c31 -26 49 -64 53 -115h-90zM329 132l2 -2c35 32 53 65 53 99c0 17 -5 34 -16 50s-28 31 -52 46l-139 86c-34 -29 -51 -62 -51 -100c0 -19 5 -37 16 -52s27 -30 49 -43l138 -85v1z" />
    <glyph glyph-name="dieresis" unicode="&#xa8;" horiz-adv-x="355" 
d="M287 696h-1c16 0 30 -6 41 -18s17 -26 17 -42s-6 -30 -17 -41s-25 -17 -41 -17s-30 6 -41 17c-12 11 -18 25 -18 41s6 30 18 42s26 18 42 18zM68 697v-1c16 0 30 -6 41 -18s17 -26 17 -42s-6 -30 -17 -41s-25 -17 -41 -17s-30 6 -42 17s-18 25 -18 41s6 30 18 42
s26 18 42 18v1z" />
    <glyph glyph-name="copyright" unicode="&#xa9;" horiz-adv-x="836" 
d="M418 729v-1c101 0 188 -37 261 -110s110 -161 110 -262c0 -67 -17 -129 -50 -186s-79 -103 -136 -136s-119 -50 -186 -50c-102 0 -189 37 -262 110s-109 161 -109 263c0 101 37 189 110 262s161 110 262 110zM420 55l-1 1c83 0 153 29 212 88s88 130 88 213
s-29 154 -87 213s-129 88 -212 88c-84 0 -155 -29 -214 -88s-88 -130 -88 -213c0 -84 29 -155 88 -214s130 -88 214 -88zM547 190l1 -2c-37 -21 -74 -32 -109 -32c-60 0 -109 19 -146 57c-37 39 -56 87 -56 144c0 55 19 101 58 140s86 59 142 59c41 0 79 -11 112 -32v-64
c-31 23 -68 34 -109 34c-37 0 -68 -13 -92 -40s-36 -59 -36 -98s12 -72 36 -99s55 -40 94 -40c38 0 73 12 105 36v-64v1z" />
    <glyph glyph-name="ordfeminine" unicode="&#xaa;" horiz-adv-x="398" 
d="M343 428l-3 -2h-58v48c-28 -37 -63 -55 -104 -55c-44 0 -80 15 -107 44s-41 65 -41 108c0 48 15 86 44 115s66 43 110 43c41 0 74 -19 101 -56v48h58v-293zM187 478l-1 -2c27 0 49 9 66 28s26 41 26 68c0 29 -9 53 -26 72c-18 19 -40 28 -65 28c-27 0 -49 -9 -66 -27
s-26 -42 -26 -72c0 -27 8 -49 24 -68s39 -28 68 -28v1z" />
    <glyph glyph-name="guillemotleft" unicode="&#xab;" horiz-adv-x="503" 
d="M359 269l129 -171l-66 -43l-162 214l162 214l66 -43zM254 99v-1l-66 -43l-162 214l162 214l66 -43l-129 -171l129 -171v0v1z" />
    <glyph glyph-name="logicalnot" unicode="&#xac;" 
d="M531 218h1h-79v196h-412v79h490v-276v0v1z" />
    <glyph glyph-name="uni00AD" unicode="&#xad;" horiz-adv-x="398" 
d="M356 214v-1h-314v87h314v-87v0v1z" />
    <glyph glyph-name="registered" unicode="&#xae;" horiz-adv-x="836" 
d="M418 729v-1c101 0 188 -37 261 -110s110 -161 110 -262c0 -67 -17 -129 -50 -186s-79 -103 -136 -136s-119 -50 -186 -50c-102 0 -189 37 -262 110s-109 161 -109 263c0 101 37 189 110 262s161 110 262 110zM420 55l-1 1c83 0 153 29 212 88s88 130 88 213
s-29 154 -87 213s-129 88 -212 88c-84 0 -155 -29 -214 -88s-88 -130 -88 -213c0 -84 29 -155 88 -214s130 -88 214 -88zM576 160l2 1h-83l-114 158h-20v-158h-70v391h130c40 0 72 -11 96 -32s36 -49 36 -84c0 -28 -8 -52 -25 -72s-42 -33 -75 -40zM360 380l2 -2h49
c24 0 42 5 54 15s18 25 18 45c0 18 -6 32 -18 41s-30 14 -53 14h-52v-114v1z" />
    <glyph glyph-name="macron" unicode="&#xaf;" horiz-adv-x="512" 
d="M518 791v-1h-524v51h524v-51v0v1z" />
    <glyph glyph-name="degree" unicode="&#xb0;" horiz-adv-x="440" 
d="M220 728c47 0 87 -17 120 -50s49 -73 49 -120s-16 -87 -49 -120s-73 -49 -120 -49s-87 16 -120 49s-50 73 -50 120s17 87 50 120s73 50 120 50zM219 463l1 -2c27 0 50 9 69 28s29 41 29 68s-10 51 -29 71c-20 20 -43 30 -70 30s-50 -10 -70 -30s-30 -43 -30 -70
s10 -49 30 -68s43 -28 70 -28v1z" />
    <glyph glyph-name="plusminus" unicode="&#xb1;" 
d="M532 463v-79h-206v-206h-78v206h-206v79h206v206h78v-206h206zM532 49v-1h-490v79h490v-79v0v1z" />
    <glyph glyph-name="twosuperior" unicode="&#xb2;" horiz-adv-x="367" 
d="M333 298l2 -3h-308c121 143 189 224 202 243s20 39 20 62c0 18 -6 32 -19 43s-29 17 -48 17c-21 0 -39 -7 -54 -21c-15 -13 -23 -33 -26 -60h-82c4 48 21 85 52 112c30 27 67 40 111 40c41 0 76 -12 104 -35s42 -53 42 -92c0 -35 -13 -69 -38 -102
c-26 -33 -65 -79 -117 -139h159v-66v1z" />
    <glyph glyph-name="threesuperior" unicode="&#xb3;" horiz-adv-x="367" 
d="M256 515h-1c23 -8 40 -22 52 -41s18 -40 18 -64c0 -35 -13 -64 -40 -88s-65 -36 -116 -36c-41 0 -75 10 -102 31s-43 49 -50 85h74c4 -17 13 -31 28 -40c14 -9 31 -14 50 -14c23 0 42 6 57 18s22 28 22 48c0 21 -8 39 -23 52c-15 14 -38 21 -67 21h-19v54h18
c27 0 47 7 62 20s22 31 22 52c0 17 -6 31 -18 40s-27 14 -46 14c-17 0 -32 -5 -45 -14s-21 -23 -24 -40h-74c5 36 21 64 48 84s59 30 96 30c43 0 77 -11 102 -34s38 -50 38 -83c0 -47 -21 -79 -62 -96v1z" />
    <glyph glyph-name="acute" unicode="&#xb4;" horiz-adv-x="355" 
d="M291 674h-1l-142 -132l-39 34l116 154l66 -57v0v1z" />
    <glyph glyph-name="mu" unicode="&#xb5;" horiz-adv-x="531" 
d="M470 183l-1 -1c0 -59 -18 -106 -54 -143s-84 -55 -144 -55c-45 0 -84 13 -116 39v-246h-86v690h86v-280c0 -39 11 -69 32 -92s48 -34 83 -34c32 0 59 12 81 36c22 25 33 55 33 91v280h86v-286v1z" />
    <glyph glyph-name="paragraph" unicode="&#xb6;" horiz-adv-x="624" 
d="M602 629l1 -1h-62v-850h-86v850h-125v-850h-86v490c-65 2 -119 24 -160 67s-62 95 -62 155c0 61 21 114 64 157s97 65 162 65h354v-84v1z" />
    <glyph glyph-name="periodcentered" unicode="&#xb7;" horiz-adv-x="236" 
d="M117 418l1 -1c16 0 30 -6 42 -18s18 -26 18 -42s-6 -30 -18 -42s-26 -18 -42 -18c-17 0 -31 6 -43 18s-18 26 -18 42s6 30 18 42s26 18 42 18v1z" />
    <glyph glyph-name="cedilla" unicode="&#xb8;" horiz-adv-x="355" 
d="M210 -44l2 -5c25 0 45 -6 59 -18s21 -29 21 -51c0 -27 -13 -49 -39 -65s-62 -24 -109 -24c-20 0 -39 1 -58 4l8 54l34 -2c33 0 57 3 74 9c16 7 24 16 24 28c0 11 -4 19 -12 24s-20 8 -35 8c-11 0 -20 -1 -29 -3l28 94h48l-16 -54v1z" />
    <glyph glyph-name="onesuperior" unicode="&#xb9;" horiz-adv-x="367" 
d="M236 295v-1h-77v354h-94l33 72h138v-426v0v1z" />
    <glyph glyph-name="ordmasculine" unicode="&#xba;" horiz-adv-x="371" 
d="M186 729v-1c44 0 81 -15 111 -45s45 -66 45 -109s-15 -79 -45 -109s-67 -45 -111 -45s-81 15 -112 45s-46 66 -46 109s15 79 46 109c31 31 68 46 112 46zM186 477v-2c26 0 48 9 65 28s26 42 26 70s-9 51 -26 70s-39 28 -65 28c-27 0 -49 -9 -66 -28s-26 -42 -26 -69
s9 -51 26 -70s39 -28 66 -28v1z" />
    <glyph glyph-name="guillemotright" unicode="&#xbb;" horiz-adv-x="503" 
d="M145 269l-129 171l66 43l162 -214l-162 -214l-66 43zM249 441v-1l66 43l162 -214l-162 -214l-66 43l129 171l-129 171v0v1z" />
    <glyph glyph-name="onequarter" unicode="&#xbc;" horiz-adv-x="841" 
d="M195 720v-426h-77v354h-94l33 72h138zM559 728l50 -30l-416 -714l-50 30zM760 145v-64h-44v-81h-74v81h-212v68l210 276h76v-280h44zM643 145v-1v179l-140 -179h140v0v1z" />
    <glyph glyph-name="onehalf" unicode="&#xbd;" horiz-adv-x="841" 
d="M195 720v-426h-77v354h-94l33 72h138zM540 728l50 -30l-416 -714l-50 30zM774 3l2 -3h-308c121 143 189 224 202 243s20 39 20 62c0 18 -6 32 -19 43s-29 17 -48 17c-21 0 -39 -7 -54 -21c-15 -13 -23 -33 -26 -60h-82c4 48 21 85 52 112c30 27 67 40 111 40
c41 0 76 -12 104 -35s42 -53 42 -92c0 -35 -13 -69 -38 -102c-26 -33 -65 -79 -117 -139h159v-66v1z" />
    <glyph glyph-name="threequarters" unicode="&#xbe;" horiz-adv-x="841" 
d="M256 514l-1 1c23 -8 40 -22 52 -41s18 -40 18 -64c0 -35 -13 -64 -40 -88s-65 -36 -116 -36c-41 0 -75 10 -102 31s-43 49 -50 85h74c4 -17 13 -31 28 -40c14 -9 31 -14 50 -14c23 0 42 6 57 18s22 28 22 48c0 21 -8 39 -23 52c-15 14 -38 21 -67 21h-19v54h18
c27 0 47 7 62 20s22 31 22 52c0 17 -6 31 -18 40s-27 14 -46 14c-17 0 -32 -5 -45 -14s-21 -23 -24 -40h-74c5 36 21 64 48 84s59 30 96 30c43 0 77 -11 102 -34s38 -50 38 -83c0 -47 -21 -79 -62 -96zM624 728l50 -30l-416 -714l-50 30zM792 145v-64h-44v-81h-74v81h-212
v68l210 276h76v-280h44zM674 145v-1v179l-140 -179h140v1z" />
    <glyph glyph-name="questiondown" unicode="&#xbf;" horiz-adv-x="555" 
d="M517 -14v2c-6 -65 -32 -117 -79 -154s-102 -56 -163 -56c-71 0 -128 20 -171 61s-65 92 -65 152c0 41 12 80 36 117s68 74 131 112c20 12 33 23 39 34c5 11 8 25 8 42v12h87v-10c0 -33 -7 -62 -20 -86s-36 -46 -68 -66c-52 -32 -85 -60 -100 -84s-22 -49 -22 -74
c0 -37 13 -68 40 -92s62 -36 106 -36c40 0 74 11 101 32s44 53 49 94h91zM297 485l-2 -1c16 0 30 -6 43 -18s19 -26 19 -42s-6 -30 -18 -42s-26 -18 -42 -18s-30 6 -42 18s-18 26 -18 42s6 30 18 42s26 18 42 18v1z" />
    <glyph glyph-name="Agrave" unicode="&#xc0;" horiz-adv-x="685" 
d="M204 234h275l-139 326zM676 0h-1h-98l-64 152h-344l-64 -152h-94l302 712h59zM391 803l-1 -2l-39 -34l-142 132l66 57l116 -154v0v1z" />
    <glyph glyph-name="Aacute" unicode="&#xc1;" horiz-adv-x="685" 
d="M204 234h275l-139 326zM676 0h-1h-98l-64 152h-344l-64 -152h-94l302 712h59zM465 898h-1l-142 -132l-39 34l116 154l66 -57v0v1z" />
    <glyph glyph-name="Acircumflex" unicode="&#xc2;" horiz-adv-x="685" 
d="M204 234h275l-139 326zM676 0h-1h-98l-64 152h-344l-64 -152h-94l302 712h59zM496 815l-1 -1l-44 -48l-113 102l-112 -102l-43 48l156 142l157 -142v0v1z" />
    <glyph glyph-name="Atilde" unicode="&#xc3;" horiz-adv-x="685" 
d="M204 234h275l-139 326zM676 0h-1h-98l-64 152h-344l-64 -152h-94l302 712h59zM508 888l-2 -2c-5 -38 -17 -67 -34 -88c-18 -21 -40 -31 -65 -31c-20 0 -46 9 -78 27c-24 13 -41 20 -52 20c-17 0 -29 -16 -34 -47h-64c5 37 17 67 34 88s38 32 62 32c21 0 46 -8 74 -24
c27 -16 46 -24 57 -24c17 0 29 16 36 48h66v1z" />
    <glyph glyph-name="Adieresis" unicode="&#xc4;" horiz-adv-x="685" 
d="M204 234h275l-139 326zM676 0h-1h-98l-64 152h-344l-64 -152h-94l302 712h59zM449 884h-1c16 0 30 -6 41 -18s17 -26 17 -42s-6 -30 -17 -41s-25 -17 -41 -17s-30 6 -41 17c-12 11 -18 25 -18 41s6 30 18 42s26 18 42 18zM230 885v-1c16 0 30 -6 41 -18s17 -26 17 -42
s-6 -30 -17 -41s-25 -17 -41 -17s-30 6 -42 17s-18 25 -18 41s6 30 18 42s26 18 42 18v1z" />
    <glyph glyph-name="Aring" unicode="&#xc5;" horiz-adv-x="685" 
d="M204 234h275l-139 326zM678 0h-3h-98l-64 152h-344l-64 -152h-94l286 677c-21 10 -38 24 -50 43s-18 40 -18 63c0 31 11 58 34 81s50 34 82 34s59 -11 82 -34s34 -50 34 -81c0 -23 -6 -44 -19 -63s-30 -34 -53 -43zM342 713v-1c19 0 35 7 49 21s21 31 21 50s-7 36 -20 49
c-14 14 -31 21 -50 21s-36 -7 -49 -21c-14 -13 -21 -30 -21 -49s7 -36 20 -50s30 -21 50 -21v1z" />
    <glyph glyph-name="AE" unicode="&#xc6;" horiz-adv-x="997" 
d="M986 -1v1h-408l-68 170h-337l-68 -170h-94l292 712h386l36 -86h-306l92 -224h291l34 -86h-290l94 -230h312zM476 253v-1l-135 330l-134 -330h269v0v1z" />
    <glyph glyph-name="Ccedilla" unicode="&#xc7;" horiz-adv-x="668" 
d="M361 -8l3 -4c-99 13 -177 54 -236 123c-59 70 -88 152 -88 245c0 67 16 129 49 186c32 57 77 102 134 135s120 50 187 50c83 0 156 -18 220 -55v-108c-69 49 -143 74 -221 74c-77 0 -141 -27 -194 -82s-80 -121 -80 -200c0 -81 26 -149 78 -203c51 -53 117 -80 198 -80
c76 0 149 24 218 72v-106c-69 -36 -143 -54 -220 -54h-1l-9 -34c25 0 45 -6 59 -18s21 -29 21 -51c0 -27 -13 -49 -39 -65s-62 -24 -109 -24c-20 0 -39 1 -58 4l8 54l34 -2c33 0 57 3 74 9c16 7 24 16 24 28c0 11 -4 19 -12 24s-20 8 -35 8c-11 0 -20 -1 -29 -3l24 76v1z
" />
    <glyph glyph-name="Egrave" unicode="&#xc8;" horiz-adv-x="525" 
d="M488 -1v1h-408v712h398v-86h-306v-224h293v-86h-293v-230h316v-87zM349 803l-1 -2l-39 -34l-142 132l66 57l116 -154v0v1z" />
    <glyph glyph-name="Eacute" unicode="&#xc9;" horiz-adv-x="525" 
d="M488 -1v1h-408v712h398v-86h-306v-224h293v-86h-293v-230h316v-87zM403 898h-1l-142 -132l-39 34l116 154l66 -57v0v1z" />
    <glyph glyph-name="Ecircumflex" unicode="&#xca;" horiz-adv-x="525" 
d="M488 -1v1h-408v712h398v-86h-306v-224h293v-86h-293v-230h316v-87zM437 815l-1 -1l-44 -48l-113 102l-112 -102l-43 48l156 142l157 -142v0v1z" />
    <glyph glyph-name="Edieresis" unicode="&#xcb;" horiz-adv-x="525" 
d="M488 -1v1h-408v712h398v-86h-306v-224h293v-86h-293v-230h316v-87zM390 884h-1c16 0 30 -6 41 -18s17 -26 17 -42s-6 -30 -17 -41s-25 -17 -41 -17s-30 6 -41 17c-12 11 -18 25 -18 41s6 30 18 42s26 18 42 18zM171 885v-1c16 0 30 -6 41 -18s17 -26 17 -42
s-6 -30 -17 -41s-25 -17 -41 -17s-30 6 -42 17s-18 25 -18 41s6 30 18 42s26 18 42 18v1z" />
    <glyph glyph-name="Igrave" unicode="&#xcc;" horiz-adv-x="252" 
d="M172 712v-712h-92v712h92zM193 803l-1 -2l-39 -34l-142 132l66 57l116 -154v0v1z" />
    <glyph glyph-name="Iacute" unicode="&#xcd;" horiz-adv-x="252" 
d="M172 712v-712h-92v712h92zM242 898h-1l-142 -132l-39 34l116 154l66 -57v0v1z" />
    <glyph glyph-name="Icircumflex" unicode="&#xce;" horiz-adv-x="252" 
d="M172 712v-712h-92v712h92zM283 815l-1 -1l-44 -48l-113 102l-112 -102l-43 48l156 142l157 -142v0v1z" />
    <glyph glyph-name="Idieresis" unicode="&#xcf;" horiz-adv-x="252" 
d="M172 712v-712h-92v712h92zM237 884h-1c16 0 30 -6 41 -18s17 -26 17 -42s-6 -30 -17 -41s-25 -17 -41 -17s-30 6 -41 17c-12 11 -18 25 -18 41s6 30 18 42s26 18 42 18zM18 885v-1c16 0 30 -6 41 -18s17 -26 17 -42s-6 -30 -17 -41s-25 -17 -41 -17s-30 6 -42 17
s-18 25 -18 41s6 30 18 42s26 18 42 18v1z" />
    <glyph glyph-name="Eth" unicode="&#xd0;" horiz-adv-x="696" 
d="M80 400v312h194c115 0 207 -33 276 -98s103 -153 103 -262c0 -110 -35 -196 -106 -259s-167 -94 -288 -94h-179v318h-66v83h66zM171 87h1h81c97 0 172 23 225 68c52 45 78 111 78 198c0 88 -27 155 -80 202s-128 70 -223 70h-82v-226h178v-83h-178v-230v1z" />
    <glyph glyph-name="Ntilde" unicode="&#xd1;" horiz-adv-x="735" 
d="M657 0h-1h-66l-420 540v-540h-89v712h66l421 -540v540h89v-712zM532 888l-2 -2c-5 -38 -17 -67 -34 -88c-18 -21 -40 -31 -65 -31c-20 0 -46 9 -78 27c-24 13 -41 20 -52 20c-17 0 -29 -16 -34 -47h-64c5 37 17 67 34 88s38 32 62 32c21 0 46 -8 74 -24
c27 -16 46 -24 57 -24c17 0 29 16 36 48h66v1z" />
    <glyph glyph-name="Ograve" unicode="&#xd2;" horiz-adv-x="826" 
d="M411 728h1c103 0 190 -36 262 -109s108 -160 108 -263c0 -67 -17 -129 -50 -186s-79 -103 -136 -136s-119 -50 -186 -50c-103 0 -190 36 -262 109s-108 160 -108 263c0 67 17 129 50 186s78 103 135 136s119 50 186 50zM412 74c77 0 142 27 195 82s79 121 79 200
s-26 145 -78 200s-117 82 -196 82c-77 0 -142 -27 -195 -82s-80 -121 -80 -200s27 -145 80 -200s118 -82 195 -82zM473 803l-1 -2l-39 -34l-142 132l66 57l116 -154v1z" />
    <glyph glyph-name="Oacute" unicode="&#xd3;" horiz-adv-x="826" 
d="M411 728h1c103 0 190 -36 262 -109s108 -160 108 -263c0 -67 -17 -129 -50 -186s-79 -103 -136 -136s-119 -50 -186 -50c-103 0 -190 36 -262 109s-108 160 -108 263c0 67 17 129 50 186s78 103 135 136s119 50 186 50zM412 74c77 0 142 27 195 82s79 121 79 200
s-26 145 -78 200s-117 82 -196 82c-77 0 -142 -27 -195 -82s-80 -121 -80 -200s27 -145 80 -200s118 -82 195 -82zM529 898h-1l-142 -132l-39 34l116 154l66 -57v1z" />
    <glyph glyph-name="Ocircumflex" unicode="&#xd4;" horiz-adv-x="826" 
d="M411 728h1c103 0 190 -36 262 -109s108 -160 108 -263c0 -67 -17 -129 -50 -186s-79 -103 -136 -136s-119 -50 -186 -50c-103 0 -190 36 -262 109s-108 160 -108 263c0 67 17 129 50 186s78 103 135 136s119 50 186 50zM412 74c77 0 142 27 195 82s79 121 79 200
s-26 145 -78 200s-117 82 -196 82c-77 0 -142 -27 -195 -82s-80 -121 -80 -200s27 -145 80 -200s118 -82 195 -82zM569 815l-1 -1l-44 -48l-113 102l-112 -102l-43 48l156 142l157 -142v1z" />
    <glyph glyph-name="Otilde" unicode="&#xd5;" horiz-adv-x="826" 
d="M411 728h1c103 0 190 -36 262 -109s108 -160 108 -263c0 -67 -17 -129 -50 -186s-79 -103 -136 -136s-119 -50 -186 -50c-103 0 -190 36 -262 109s-108 160 -108 263c0 67 17 129 50 186s78 103 135 136s119 50 186 50zM412 74c77 0 142 27 195 82s79 121 79 200
s-26 145 -78 200s-117 82 -196 82c-77 0 -142 -27 -195 -82s-80 -121 -80 -200s27 -145 80 -200s118 -82 195 -82zM578 888l-2 -2c-5 -38 -17 -67 -34 -88c-18 -21 -40 -31 -65 -31c-20 0 -46 9 -78 27c-24 13 -41 20 -52 20c-17 0 -29 -16 -34 -47h-64c5 37 17 67 34 88
s38 32 62 32c21 0 46 -8 74 -24c27 -16 46 -24 57 -24c17 0 29 16 36 48h66v1z" />
    <glyph glyph-name="Odieresis" unicode="&#xd6;" horiz-adv-x="826" 
d="M411 728h1c103 0 190 -36 262 -109s108 -160 108 -263c0 -67 -17 -129 -50 -186s-79 -103 -136 -136s-119 -50 -186 -50c-103 0 -190 36 -262 109s-108 160 -108 263c0 67 17 129 50 186s78 103 135 136s119 50 186 50zM412 74c77 0 142 27 195 82s79 121 79 200
s-26 145 -78 200s-117 82 -196 82c-77 0 -142 -27 -195 -82s-80 -121 -80 -200s27 -145 80 -200s118 -82 195 -82zM523 884h-1c16 0 30 -6 41 -18s17 -26 17 -42s-6 -30 -17 -41s-25 -17 -41 -17s-30 6 -41 17c-12 11 -18 25 -18 41s6 30 18 42s26 18 42 18zM304 885v-1
c16 0 30 -6 41 -18s17 -26 17 -42s-6 -30 -17 -41s-25 -17 -41 -17s-30 6 -42 17s-18 25 -18 41s6 30 18 42s26 18 42 18v1z" />
    <glyph glyph-name="multiply" unicode="&#xd7;" 
d="M513 187v-1l-56 -56l-170 169l-168 -169l-56 56l169 169l-169 170l56 56l168 -169l170 169l56 -56l-169 -170l169 -169v0v1z" />
    <glyph glyph-name="Oslash" unicode="&#xd8;" horiz-adv-x="826" 
d="M799 693l1 -1l-100 -99c56 -69 84 -148 84 -237c0 -67 -17 -129 -50 -186s-79 -103 -136 -136s-119 -50 -186 -50c-89 0 -169 28 -238 85l-102 -102l-50 52l102 102c-55 69 -83 148 -83 236c0 67 17 129 50 186s78 103 135 136s119 50 186 50c88 0 167 -28 236 -84
l100 100zM585 581l-1 -1c-49 40 -106 60 -170 60c-77 0 -142 -27 -195 -82s-80 -121 -80 -200c0 -63 18 -120 54 -170zM239 135l1 -1c49 -40 107 -60 172 -60c77 0 142 27 195 82s79 121 79 200c0 63 -18 120 -53 170l-394 -392v1z" />
    <glyph glyph-name="Ugrave" unicode="&#xd9;" horiz-adv-x="685" 
d="M340 -17l2 1c-80 0 -145 24 -194 72s-74 113 -74 195v460h92v-456c0 -61 17 -107 51 -137c33 -29 75 -44 124 -44c53 0 96 16 129 47c32 32 48 77 48 134v456h92v-460c0 -81 -24 -146 -73 -195s-114 -73 -197 -73zM401 803l-1 -2l-39 -34l-142 132l66 57l116 -154v1z" />
    <glyph glyph-name="Uacute" unicode="&#xda;" horiz-adv-x="685" 
d="M340 -17l2 1c-80 0 -145 24 -194 72s-74 113 -74 195v460h92v-456c0 -61 17 -107 51 -137c33 -29 75 -44 124 -44c53 0 96 16 129 47c32 32 48 77 48 134v456h92v-460c0 -81 -24 -146 -73 -195s-114 -73 -197 -73zM465 898h-1l-142 -132l-39 34l116 154l66 -57v1z" />
    <glyph glyph-name="Ucircumflex" unicode="&#xdb;" horiz-adv-x="685" 
d="M340 -17l2 1c-80 0 -145 24 -194 72s-74 113 -74 195v460h92v-456c0 -61 17 -107 51 -137c33 -29 75 -44 124 -44c53 0 96 16 129 47c32 32 48 77 48 134v456h92v-460c0 -81 -24 -146 -73 -195s-114 -73 -197 -73zM497 815l-1 -1l-44 -48l-113 102l-112 -102l-43 48
l156 142l157 -142v1z" />
    <glyph glyph-name="Udieresis" unicode="&#xdc;" horiz-adv-x="685" 
d="M340 -17l2 1c-80 0 -145 24 -194 72s-74 113 -74 195v460h92v-456c0 -61 17 -107 51 -137c33 -29 75 -44 124 -44c53 0 96 16 129 47c32 32 48 77 48 134v456h92v-460c0 -81 -24 -146 -73 -195s-114 -73 -197 -73zM451 884h-1c16 0 30 -6 41 -18s17 -26 17 -42
s-6 -30 -17 -41s-25 -17 -41 -17s-30 6 -41 17c-12 11 -18 25 -18 41s6 30 18 42s26 18 42 18zM232 885v-1c16 0 30 -6 41 -18s17 -26 17 -42s-6 -30 -17 -41s-25 -17 -41 -17s-30 6 -42 17s-18 25 -18 41s6 30 18 42s26 18 42 18v1z" />
    <glyph glyph-name="Yacute" unicode="&#xdd;" horiz-adv-x="616" 
d="M506 712h104l-255 -396v-316h-92v316l-256 396h108l197 -308zM424 898h-1l-142 -132l-39 34l116 154l66 -57v0v1z" />
    <glyph glyph-name="Thorn" unicode="&#xde;" horiz-adv-x="547" 
d="M173 610h-1h100c78 0 138 -20 181 -60c43 -39 64 -91 64 -156c0 -63 -21 -115 -63 -158s-102 -64 -179 -64h-102v-171h-92v712h92v-103zM171 258l1 -2h98c46 0 83 13 111 38s42 58 42 99c0 40 -14 72 -41 96c-28 24 -66 36 -113 36h-98v-268v1z" />
    <glyph glyph-name="germandbls" unicode="&#xdf;" horiz-adv-x="542" 
d="M367 397l-1 -1c46 -12 81 -35 106 -69c24 -34 36 -75 36 -123c0 -69 -22 -123 -65 -162c-44 -39 -107 -58 -190 -58h-47v77h41c57 0 101 12 130 36s43 60 43 108s-15 84 -45 108c-30 25 -72 37 -126 37h-16v76h14c40 0 72 11 96 34s36 52 36 87c0 29 -9 54 -28 74
c-19 21 -44 31 -74 31c-39 0 -69 -14 -90 -42s-32 -67 -32 -116v-494h-86v505c0 67 19 121 56 162s88 62 152 62c58 0 104 -16 139 -49c34 -33 51 -74 51 -124c0 -37 -9 -71 -26 -100s-42 -49 -74 -60v1z" />
    <glyph glyph-name="agrave" unicode="&#xe0;" horiz-adv-x="599" 
d="M285 64l-1 -2c44 0 82 17 114 50c31 33 47 75 47 124c0 48 -16 89 -48 122s-70 50 -114 50c-47 0 -86 -16 -115 -48c-30 -32 -45 -73 -45 -124s15 -92 44 -124s69 -48 118 -48zM445 -3l-1 3v72c-21 -27 -46 -48 -77 -64s-62 -24 -94 -24c-71 0 -128 24 -173 72
s-67 108 -67 179c0 68 23 126 69 174s103 72 171 72c32 0 63 -8 94 -24s57 -38 78 -66v74h86v-468h-86zM349 578l-1 -2l-39 -34l-142 132l66 57l116 -154v1z" />
    <glyph glyph-name="aacute" unicode="&#xe1;" horiz-adv-x="599" 
d="M285 64l-1 -2c44 0 82 17 114 50c31 33 47 75 47 124c0 48 -16 89 -48 122s-70 50 -114 50c-47 0 -86 -16 -115 -48c-30 -32 -45 -73 -45 -124s15 -92 44 -124s69 -48 118 -48zM445 -3l-1 3v72c-21 -27 -46 -48 -77 -64s-62 -24 -94 -24c-71 0 -128 24 -173 72
s-67 108 -67 179c0 68 23 126 69 174s103 72 171 72c32 0 63 -8 94 -24s57 -38 78 -66v74h86v-468h-86zM414 674h-1l-142 -132l-39 34l116 154l66 -57v1z" />
    <glyph glyph-name="acircumflex" unicode="&#xe2;" horiz-adv-x="599" 
d="M285 64l-1 -2c44 0 82 17 114 50c31 33 47 75 47 124c0 48 -16 89 -48 122s-70 50 -114 50c-47 0 -86 -16 -115 -48c-30 -32 -45 -73 -45 -124s15 -92 44 -124s69 -48 118 -48zM445 -3l-1 3v72c-21 -27 -46 -48 -77 -64s-62 -24 -94 -24c-71 0 -128 24 -173 72
s-67 108 -67 179c0 68 23 126 69 174s103 72 171 72c32 0 63 -8 94 -24s57 -38 78 -66v74h86v-468h-86zM458 590l-1 -1l-44 -48l-113 102l-112 -102l-43 48l156 142l157 -142v1z" />
    <glyph glyph-name="atilde" unicode="&#xe3;" horiz-adv-x="599" 
d="M285 64l-1 -2c44 0 82 17 114 50c31 33 47 75 47 124c0 48 -16 89 -48 122s-70 50 -114 50c-47 0 -86 -16 -115 -48c-30 -32 -45 -73 -45 -124s15 -92 44 -124s69 -48 118 -48zM445 -3l-1 3v72c-21 -27 -46 -48 -77 -64s-62 -24 -94 -24c-71 0 -128 24 -173 72
s-67 108 -67 179c0 68 23 126 69 174s103 72 171 72c32 0 63 -8 94 -24s57 -38 78 -66v74h86v-468h-86zM466 698l-2 -2c-5 -38 -17 -67 -34 -88c-18 -21 -40 -31 -65 -31c-20 0 -46 9 -78 27c-24 13 -41 20 -52 20c-17 0 -29 -16 -34 -47h-64c5 37 17 67 34 88s38 32 62 32
c21 0 46 -8 74 -24c27 -16 46 -24 57 -24c17 0 29 16 36 48h66v1z" />
    <glyph glyph-name="adieresis" unicode="&#xe4;" horiz-adv-x="599" 
d="M285 64l-1 -2c44 0 82 17 114 50c31 33 47 75 47 124c0 48 -16 89 -48 122s-70 50 -114 50c-47 0 -86 -16 -115 -48c-30 -32 -45 -73 -45 -124s15 -92 44 -124s69 -48 118 -48zM445 -3l-1 3v72c-21 -27 -46 -48 -77 -64s-62 -24 -94 -24c-71 0 -128 24 -173 72
s-67 108 -67 179c0 68 23 126 69 174s103 72 171 72c32 0 63 -8 94 -24s57 -38 78 -66v74h86v-468h-86zM411 696h-1c16 0 30 -6 41 -18s17 -26 17 -42s-6 -30 -17 -41s-25 -17 -41 -17s-30 6 -41 17c-12 11 -18 25 -18 41s6 30 18 42s26 18 42 18zM192 697v-1
c16 0 30 -6 41 -18s17 -26 17 -42s-6 -30 -17 -41s-25 -17 -41 -17s-30 6 -42 17s-18 25 -18 41s6 30 18 42s26 18 42 18v1z" />
    <glyph glyph-name="aring" unicode="&#xe5;" horiz-adv-x="599" 
d="M285 64l-1 -2c44 0 82 17 114 50c31 33 47 75 47 124c0 48 -16 89 -48 122s-70 50 -114 50c-47 0 -86 -16 -115 -48c-30 -32 -45 -73 -45 -124s15 -92 44 -124s69 -48 118 -48zM445 -3l-1 3v72c-21 -27 -46 -48 -77 -64s-62 -24 -94 -24c-71 0 -128 24 -173 72
s-67 108 -67 179c0 68 23 126 69 174s103 72 171 72c32 0 63 -8 94 -24s57 -38 78 -66v74h86v-468h-86zM295 742c29 0 54 -11 75 -32s31 -46 31 -74c0 -29 -10 -54 -31 -75s-46 -31 -75 -31c-28 0 -53 10 -74 31s-32 46 -32 75c0 28 11 53 32 74s46 32 74 32zM295 577v-1
c16 0 30 6 42 18s18 26 18 42s-6 30 -18 42s-26 18 -42 18s-30 -6 -42 -18s-18 -26 -18 -42s6 -30 18 -42s26 -18 42 -18v1z" />
    <glyph glyph-name="ae" unicode="&#xe6;" horiz-adv-x="844" 
d="M813 207v2h-372c3 -45 19 -81 48 -108s62 -40 99 -40c55 0 101 25 138 76l72 -40c-49 -75 -118 -113 -209 -113c-73 0 -133 31 -179 94c-52 -63 -116 -94 -192 -94c-56 0 -101 14 -136 42s-52 66 -52 114s17 86 52 113s79 41 134 41c51 0 97 -14 137 -42v30
c0 41 -11 73 -32 94s-52 32 -92 32s-87 -11 -141 -34v78c45 20 94 30 146 30c79 0 136 -31 172 -92c45 61 107 92 184 92c65 0 118 -23 160 -68s63 -107 63 -185v-22zM726 280h-1c-9 42 -25 74 -49 96c-25 22 -54 33 -87 33c-36 0 -68 -12 -96 -35s-45 -54 -51 -94h284z
M237 59l-1 -1c27 0 53 8 80 24s40 37 40 62s-12 45 -35 60s-53 22 -90 22c-33 0 -59 -7 -79 -22c-21 -15 -31 -35 -31 -60s11 -46 32 -62s49 -24 84 -24v1z" />
    <glyph glyph-name="ccedilla" unicode="&#xe7;" horiz-adv-x="446" 
d="M236 -4v-8c-63 11 -112 40 -148 85s-54 99 -54 161c0 71 24 130 72 178s108 72 180 72c49 0 94 -10 135 -31v-85c-41 25 -85 38 -133 38c-49 0 -88 -16 -119 -48s-46 -73 -46 -122c0 -50 15 -91 44 -123s69 -48 120 -48c45 0 90 13 134 38v-85c-43 -21 -88 -31 -136 -31
h-1l-9 -34c25 0 45 -6 59 -18s21 -29 21 -51c0 -27 -13 -49 -39 -65c-27 -16 -63 -24 -109 -24c-20 0 -39 1 -58 4l8 54l34 -2c33 0 57 3 73 9c16 7 24 16 24 28c0 11 -4 19 -12 24s-20 8 -35 8c-11 0 -20 -1 -29 -3l24 78v1z" />
    <glyph glyph-name="egrave" unicode="&#xe8;" horiz-adv-x="550" 
d="M430 280h-2c-5 39 -22 70 -49 94c-28 24 -61 36 -98 36c-40 0 -74 -12 -102 -36s-46 -55 -53 -94h304zM279 -16h1c-72 0 -131 23 -177 70s-69 107 -69 182c0 69 24 128 71 176s106 72 175 72c73 0 131 -23 174 -70s64 -108 64 -184v-20h-397c3 -43 19 -79 48 -107
s66 -42 111 -42c61 0 111 25 150 76l73 -40c-53 -75 -128 -113 -224 -113zM339 578l-1 -2l-39 -34l-142 132l66 57l116 -154v1z" />
    <glyph glyph-name="eacute" unicode="&#xe9;" horiz-adv-x="550" 
d="M430 280h-2c-5 39 -22 70 -49 94c-28 24 -61 36 -98 36c-40 0 -74 -12 -102 -36s-46 -55 -53 -94h304zM279 -16h1c-72 0 -131 23 -177 70s-69 107 -69 182c0 69 24 128 71 176s106 72 175 72c73 0 131 -23 174 -70s64 -108 64 -184v-20h-397c3 -43 19 -79 48 -107
s66 -42 111 -42c61 0 111 25 150 76l73 -40c-53 -75 -128 -113 -224 -113zM414 674h-1l-142 -132l-39 34l116 154l66 -57v1z" />
    <glyph glyph-name="ecircumflex" unicode="&#xea;" horiz-adv-x="550" 
d="M430 280h-2c-5 39 -22 70 -49 94c-28 24 -61 36 -98 36c-40 0 -74 -12 -102 -36s-46 -55 -53 -94h304zM279 -16h1c-72 0 -131 23 -177 70s-69 107 -69 182c0 69 24 128 71 176s106 72 175 72c73 0 131 -23 174 -70s64 -108 64 -184v-20h-397c3 -43 19 -79 48 -107
s66 -42 111 -42c61 0 111 25 150 76l73 -40c-53 -75 -128 -113 -224 -113zM439 590l-1 -1l-44 -48l-113 102l-112 -102l-43 48l156 142l157 -142v1z" />
    <glyph glyph-name="edieresis" unicode="&#xeb;" horiz-adv-x="550" 
d="M430 280h-2c-5 39 -22 70 -49 94c-28 24 -61 36 -98 36c-40 0 -74 -12 -102 -36s-46 -55 -53 -94h304zM279 -16h1c-72 0 -131 23 -177 70s-69 107 -69 182c0 69 24 128 71 176s106 72 175 72c73 0 131 -23 174 -70s64 -108 64 -184v-20h-397c3 -43 19 -79 48 -107
s66 -42 111 -42c61 0 111 25 150 76l73 -40c-53 -75 -128 -113 -224 -113zM390 696h-1c16 0 30 -6 41 -18s17 -26 17 -42s-6 -30 -17 -41s-25 -17 -41 -17s-30 6 -41 17c-12 11 -18 25 -18 41s6 30 18 42s26 18 42 18zM171 697v-1c16 0 30 -6 41 -18s17 -26 17 -42
s-6 -30 -17 -41s-25 -17 -41 -17s-30 6 -42 17s-18 25 -18 41s6 30 18 42s26 18 42 18v1z" />
    <glyph glyph-name="igrave" unicode="&#xec;" horiz-adv-x="237" 
d="M162 468v-468h-86v468h86zM185 578l-1 -2l-39 -34l-142 132l66 57l116 -154v0v1z" />
    <glyph glyph-name="iacute" unicode="&#xed;" horiz-adv-x="237" 
d="M162 468v-468h-86v468h86zM235 674h-1l-142 -132l-39 34l116 154l66 -57v0v1z" />
    <glyph glyph-name="icircumflex" unicode="&#xee;" horiz-adv-x="237" 
d="M162 468v-468h-86v468h86zM275 590l-1 -1l-44 -48l-113 102l-112 -102l-43 48l156 142l157 -142v0v1z" />
    <glyph glyph-name="idieresis" unicode="&#xef;" horiz-adv-x="237" 
d="M162 468v-468h-86v468h86zM229 696h-1c16 0 30 -6 41 -18s17 -26 17 -42s-6 -30 -17 -41s-25 -17 -41 -17s-30 6 -41 17c-12 11 -18 25 -18 41s6 30 18 42s26 18 42 18zM10 697v-1c16 0 30 -6 41 -18s17 -26 17 -42s-6 -30 -17 -41s-25 -17 -41 -17s-30 6 -42 17
s-18 25 -18 41s6 30 18 42s26 18 42 18v1z" />
    <glyph glyph-name="eth" unicode="&#xf0;" horiz-adv-x="569" 
d="M342 624v-2c64 -66 112 -131 144 -195s48 -127 48 -190c0 -71 -24 -131 -73 -180s-108 -73 -177 -73s-128 24 -177 73s-73 109 -73 178s24 127 73 176c48 49 106 73 174 73c36 0 70 -9 102 -26c-27 40 -62 81 -106 124l-108 -70l-35 50l100 64c-31 29 -54 49 -69 61
l57 42c30 -23 55 -43 76 -62l95 62l36 -49zM283 62h1c46 0 84 17 115 50s46 74 46 122s-15 88 -46 121s-69 50 -116 50c-46 0 -84 -17 -115 -50s-47 -74 -47 -122s15 -89 46 -122s69 -50 116 -50v1z" />
    <glyph glyph-name="ntilde" unicode="&#xf1;" horiz-adv-x="532" 
d="M467 -2l3 2h-86v290c0 41 -8 70 -23 89c-16 19 -41 28 -74 28c-47 0 -91 -28 -134 -85v-322h-86v468h86v-58c46 49 97 73 153 73c51 0 90 -16 119 -48c28 -31 42 -73 42 -125v-312zM446 698l-2 -2c-5 -38 -17 -67 -34 -88c-18 -21 -40 -31 -65 -31c-20 0 -46 9 -78 27
c-24 13 -41 20 -52 20c-17 0 -29 -16 -34 -47h-64c5 37 17 67 34 88s38 32 62 32c21 0 46 -8 74 -24c27 -16 46 -24 57 -24c17 0 29 16 36 48h66v1z" />
    <glyph glyph-name="ograve" unicode="&#xf2;" horiz-adv-x="569" 
d="M283 484h1c69 0 128 -24 177 -73c48 -49 72 -107 72 -176s-24 -128 -73 -177s-108 -74 -177 -74s-128 25 -177 74s-74 108 -74 177s25 127 74 176s108 73 177 73zM284 61v1c47 0 85 17 116 50s46 74 46 122s-15 88 -46 121s-69 50 -116 50c-46 0 -84 -17 -115 -50
s-47 -74 -47 -122s15 -89 46 -122s69 -50 116 -50zM339 578l-1 -2l-39 -34l-142 132l66 57l116 -154v1z" />
    <glyph glyph-name="oacute" unicode="&#xf3;" horiz-adv-x="569" 
d="M283 484h1c69 0 128 -24 177 -73c48 -49 72 -107 72 -176s-24 -128 -73 -177s-108 -74 -177 -74s-128 25 -177 74s-74 108 -74 177s25 127 74 176s108 73 177 73zM284 61v1c47 0 85 17 116 50s46 74 46 122s-15 88 -46 121s-69 50 -116 50c-46 0 -84 -17 -115 -50
s-47 -74 -47 -122s15 -89 46 -122s69 -50 116 -50zM403 674h-1l-142 -132l-39 34l116 154l66 -57v1z" />
    <glyph glyph-name="ocircumflex" unicode="&#xf4;" horiz-adv-x="569" 
d="M283 484h1c69 0 128 -24 177 -73c48 -49 72 -107 72 -176s-24 -128 -73 -177s-108 -74 -177 -74s-128 25 -177 74s-74 108 -74 177s25 127 74 176s108 73 177 73zM284 61v1c47 0 85 17 116 50s46 74 46 122s-15 88 -46 121s-69 50 -116 50c-46 0 -84 -17 -115 -50
s-47 -74 -47 -122s15 -89 46 -122s69 -50 116 -50zM443 590l-1 -1l-44 -48l-113 102l-112 -102l-43 48l156 142l157 -142v1z" />
    <glyph glyph-name="otilde" unicode="&#xf5;" horiz-adv-x="569" 
d="M283 484h1c69 0 128 -24 177 -73c48 -49 72 -107 72 -176s-24 -128 -73 -177s-108 -74 -177 -74s-128 25 -177 74s-74 108 -74 177s25 127 74 176s108 73 177 73zM284 61v1c47 0 85 17 116 50s46 74 46 122s-15 88 -46 121s-69 50 -116 50c-46 0 -84 -17 -115 -50
s-47 -74 -47 -122s15 -89 46 -122s69 -50 116 -50zM450 698l-2 -2c-5 -38 -17 -67 -34 -88c-18 -21 -40 -31 -65 -31c-20 0 -46 9 -78 27c-24 13 -41 20 -52 20c-17 0 -29 -16 -34 -47h-64c5 37 17 67 34 88s38 32 62 32c21 0 46 -8 74 -24c27 -16 46 -24 57 -24
c17 0 29 16 36 48h66v1z" />
    <glyph glyph-name="odieresis" unicode="&#xf6;" horiz-adv-x="569" 
d="M283 484h1c69 0 128 -24 177 -73c48 -49 72 -107 72 -176s-24 -128 -73 -177s-108 -74 -177 -74s-128 25 -177 74s-74 108 -74 177s25 127 74 176s108 73 177 73zM284 61v1c47 0 85 17 116 50s46 74 46 122s-15 88 -46 121s-69 50 -116 50c-46 0 -84 -17 -115 -50
s-47 -74 -47 -122s15 -89 46 -122s69 -50 116 -50zM395 696h-1c16 0 30 -6 41 -18s17 -26 17 -42s-6 -30 -17 -41s-25 -17 -41 -17s-30 6 -41 17c-12 11 -18 25 -18 41s6 30 18 42s26 18 42 18zM176 697v-1c16 0 30 -6 41 -18s17 -26 17 -42s-6 -30 -17 -41s-25 -17 -41 -17
s-30 6 -42 17s-18 25 -18 41s6 30 18 42s26 18 42 18v1z" />
    <glyph glyph-name="divide" unicode="&#xf7;" 
d="M288 600c16 0 30 -6 42 -18s18 -26 18 -42s-6 -30 -18 -42s-26 -18 -42 -18s-30 6 -42 18s-18 26 -18 42s6 30 18 42s26 18 42 18zM532 395v-79h-490v79h490zM288 233v-1c16 0 30 -6 42 -18s18 -26 18 -42s-6 -30 -18 -42s-26 -18 -42 -18s-30 6 -42 18s-18 26 -18 42
s6 30 18 42s26 18 42 18v1z" />
    <glyph glyph-name="oslash" unicode="&#xf8;" horiz-adv-x="569" 
d="M547 444l-2 2l-60 -60c33 -44 50 -94 50 -151c0 -69 -24 -128 -73 -177s-108 -74 -177 -74c-57 0 -108 17 -153 52l-62 -60l-46 46l62 60c-34 47 -51 97 -51 152c0 69 25 127 74 176s108 73 177 73c57 0 109 -17 154 -52l61 60zM381 373l-1 2c-27 20 -59 30 -95 30
c-46 0 -84 -17 -115 -50s-47 -74 -47 -122c0 -35 8 -65 24 -92zM188 95l2 -2c27 -20 58 -30 94 -30c47 0 85 17 116 50s46 74 46 122c0 33 -8 64 -24 91l-234 -232v1z" />
    <glyph glyph-name="ugrave" unicode="&#xf9;" horiz-adv-x="526" 
d="M262 -16h1c-62 0 -111 18 -147 54s-54 84 -54 144v286h86v-284c0 -37 11 -66 32 -89s49 -34 83 -34c33 0 60 11 81 34s32 52 32 88v284h86v-286c0 -59 -18 -107 -54 -143s-85 -54 -146 -54zM331 578l-1 -2l-39 -34l-142 132l66 57l116 -154v1z" />
    <glyph glyph-name="uacute" unicode="&#xfa;" horiz-adv-x="526" 
d="M262 -16h1c-62 0 -111 18 -147 54s-54 84 -54 144v286h86v-284c0 -37 11 -66 32 -89s49 -34 83 -34c33 0 60 11 81 34s32 52 32 88v284h86v-286c0 -59 -18 -107 -54 -143s-85 -54 -146 -54zM389 674h-1l-142 -132l-39 34l116 154l66 -57v1z" />
    <glyph glyph-name="ucircumflex" unicode="&#xfb;" horiz-adv-x="526" 
d="M262 -16h1c-62 0 -111 18 -147 54s-54 84 -54 144v286h86v-284c0 -37 11 -66 32 -89s49 -34 83 -34c33 0 60 11 81 34s32 52 32 88v284h86v-286c0 -59 -18 -107 -54 -143s-85 -54 -146 -54zM421 590l-1 -1l-44 -48l-113 102l-112 -102l-43 48l156 142l157 -142v1z" />
    <glyph glyph-name="udieresis" unicode="&#xfc;" horiz-adv-x="526" 
d="M262 -16h1c-62 0 -111 18 -147 54s-54 84 -54 144v286h86v-284c0 -37 11 -66 32 -89s49 -34 83 -34c33 0 60 11 81 34s32 52 32 88v284h86v-286c0 -59 -18 -107 -54 -143s-85 -54 -146 -54zM373 696h-1c16 0 30 -6 41 -18s17 -26 17 -42s-6 -30 -17 -41s-25 -17 -41 -17
s-30 6 -41 17c-12 11 -18 25 -18 41s6 30 18 42s26 18 42 18zM154 697v-1c16 0 30 -6 41 -18s17 -26 17 -42s-6 -30 -17 -41s-25 -17 -41 -17s-30 6 -42 17s-18 25 -18 41s6 30 18 42s26 18 42 18v1z" />
    <glyph glyph-name="yacute" unicode="&#xfd;" horiz-adv-x="511" 
d="M508 468h-1l-318 -690h-89l114 248l-203 442h94l156 -348l157 348h90zM383 674h-1l-142 -132l-39 34l116 154l66 -57v0v1z" />
    <glyph glyph-name="thorn" unicode="&#xfe;" horiz-adv-x="600" 
d="M155 394l-1 2c19 25 45 46 77 62s64 24 96 24c71 0 129 -24 174 -72s67 -108 67 -179c0 -68 -23 -126 -69 -175c-47 -49 -104 -73 -172 -73c-32 0 -63 8 -94 24s-57 38 -78 66v-297h-86v950h86v-332zM316 61v1c47 0 86 16 117 48c30 32 45 73 45 124s-15 92 -44 124
s-69 48 -118 48c-44 0 -82 -17 -114 -50s-48 -74 -48 -123c0 -48 16 -89 48 -123c32 -33 70 -50 114 -50v1z" />
    <glyph glyph-name="ydieresis" unicode="&#xff;" horiz-adv-x="511" 
d="M508 468h-1l-318 -690h-89l114 248l-203 442h94l156 -348l157 348h90zM365 696h-1c16 0 30 -6 41 -18s17 -26 17 -42s-6 -30 -17 -41s-25 -17 -41 -17s-30 6 -41 17c-12 11 -18 25 -18 41s6 30 18 42s26 18 42 18zM146 697v-1c16 0 30 -6 41 -18s17 -26 17 -42
s-6 -30 -17 -41s-25 -17 -41 -17s-30 6 -42 17s-18 25 -18 41s6 30 18 42s26 18 42 18v1z" />
    <glyph glyph-name="Amacron" unicode="&#x100;" horiz-adv-x="685" 
d="M204 234h275l-139 326zM676 0h-1h-98l-64 152h-344l-64 -152h-94l302 712h59zM502 790v-1h-324v73h324v-73v0v1z" />
    <glyph glyph-name="amacron" unicode="&#x101;" horiz-adv-x="599" 
d="M285 64l-1 -2c44 0 82 17 114 50c31 33 47 75 47 124c0 48 -16 89 -48 122s-70 50 -114 50c-47 0 -86 -16 -115 -48c-30 -32 -45 -73 -45 -124s15 -92 44 -124s69 -48 118 -48zM445 -3l-1 3v72c-21 -27 -46 -48 -77 -64s-62 -24 -94 -24c-71 0 -128 24 -173 72
s-67 108 -67 179c0 68 23 126 69 174s103 72 171 72c32 0 63 -8 94 -24s57 -38 78 -66v74h86v-468h-86zM462 601v-1h-324v73h324v-73v1z" />
    <glyph glyph-name="Abreve" unicode="&#x102;" horiz-adv-x="685" 
d="M204 234h275l-139 326zM676 0h-1h-98l-64 152h-344l-64 -152h-94l302 712h59zM490 904v-1c-9 -41 -27 -74 -55 -99s-59 -38 -94 -38s-66 13 -94 38s-47 59 -56 100h60c7 -21 19 -39 36 -52s35 -20 54 -20c20 0 38 6 54 19s28 31 36 52h59v1z" />
    <glyph glyph-name="abreve" unicode="&#x103;" horiz-adv-x="599" 
d="M285 64l-1 -2c44 0 82 17 114 50c31 33 47 75 47 124c0 48 -16 89 -48 122s-70 50 -114 50c-47 0 -86 -16 -115 -48c-30 -32 -45 -73 -45 -124s15 -92 44 -124s69 -48 118 -48zM445 -3l-1 3v72c-21 -27 -46 -48 -77 -64s-62 -24 -94 -24c-71 0 -128 24 -173 72
s-67 108 -67 179c0 68 23 126 69 174s103 72 171 72c32 0 63 -8 94 -24s57 -38 78 -66v74h86v-468h-86zM450 707v-1c-9 -41 -27 -74 -55 -99s-59 -38 -94 -38s-66 13 -94 38s-47 59 -56 100h60c7 -21 19 -39 36 -52s35 -20 54 -20c20 0 38 6 54 19s28 31 36 52h59v1z" />
    <glyph glyph-name="Aogonek" unicode="&#x104;" horiz-adv-x="685" 
d="M204 234h275l-139 326zM580 0h-2h-1l-64 152h-344l-64 -152h-94l302 712h59l304 -712h-29c-32 -29 -52 -51 -61 -66s-14 -28 -14 -39c0 -16 5 -28 16 -36s27 -12 48 -12c17 0 33 2 48 5l-12 -56c-15 -3 -33 -5 -54 -5c-37 0 -64 7 -82 22c-19 15 -28 37 -28 66
c0 39 24 79 72 120v1z" />
    <glyph glyph-name="aogonek" unicode="&#x105;" horiz-adv-x="599" 
d="M285 64l-1 -2c44 0 82 17 114 50c31 33 47 75 47 124c0 48 -16 89 -48 122s-70 50 -114 50c-47 0 -86 -16 -115 -48c-30 -32 -45 -73 -45 -124s15 -92 44 -124s69 -48 118 -48zM445 -3l-1 3v72c-21 -27 -46 -48 -77 -64s-62 -24 -94 -24c-71 0 -128 24 -173 72
s-67 108 -67 179c0 68 23 126 69 174s103 72 171 72c32 0 63 -8 94 -24s57 -38 78 -66v74h86v-468h-86zM547 -148h1l-12 -56c-15 -3 -33 -5 -56 -5c-34 0 -61 7 -80 22c-20 15 -30 37 -30 65c0 20 6 40 18 60s30 40 54 61h68c-33 -29 -54 -51 -62 -66
c-9 -15 -13 -28 -13 -39c0 -16 5 -28 16 -36s27 -12 48 -12c20 0 36 2 48 5v1z" />
    <glyph glyph-name="Cacute" unicode="&#x106;" horiz-adv-x="668" 
d="M411 -14l1 -2c-107 0 -196 36 -265 107c-70 72 -105 161 -105 266c0 67 16 129 49 186c32 57 77 102 134 135s120 50 187 50c83 0 156 -18 220 -55v-108c-69 49 -143 74 -221 74c-77 0 -141 -27 -194 -82s-80 -121 -80 -200c0 -81 26 -149 78 -203
c51 -53 117 -80 198 -80c76 0 149 24 218 72v-106c-69 -36 -143 -54 -220 -54zM517 898h-1l-142 -132l-39 34l116 154l66 -57v1z" />
    <glyph glyph-name="cacute" unicode="&#x107;" horiz-adv-x="446" 
d="M286 -12l-2 -4c-73 0 -132 24 -179 71c-47 48 -70 108 -70 180c0 71 24 130 72 178s108 72 180 72c49 0 94 -10 135 -31v-85c-41 25 -85 38 -133 38c-49 0 -88 -16 -119 -48s-46 -73 -46 -122c0 -50 15 -91 44 -123s69 -48 120 -48c45 0 90 13 134 38v-85
c-43 -21 -88 -31 -136 -31zM399 674h-1l-142 -132l-39 34l116 154l66 -57v1z" />
    <glyph glyph-name="Ccircumflex" unicode="&#x108;" horiz-adv-x="668" 
d="M411 -14l1 -2c-107 0 -196 36 -265 107c-70 72 -105 161 -105 266c0 67 16 129 49 186c32 57 77 102 134 135s120 50 187 50c83 0 156 -18 220 -55v-108c-69 49 -143 74 -221 74c-77 0 -141 -27 -194 -82s-80 -121 -80 -200c0 -81 26 -149 78 -203
c51 -53 117 -80 198 -80c76 0 149 24 218 72v-106c-69 -36 -143 -54 -220 -54zM563 815l-1 -1l-44 -48l-113 102l-112 -102l-43 48l156 142l157 -142v1z" />
    <glyph glyph-name="ccircumflex" unicode="&#x109;" horiz-adv-x="446" 
d="M286 -12l-2 -4c-73 0 -132 24 -179 71c-47 48 -70 108 -70 180c0 71 24 130 72 178s108 72 180 72c49 0 94 -10 135 -31v-85c-41 25 -85 38 -133 38c-49 0 -88 -16 -119 -48s-46 -73 -46 -122c0 -50 15 -91 44 -123s69 -48 120 -48c45 0 90 13 134 38v-85
c-43 -21 -88 -31 -136 -31zM428 590l-1 -1l-44 -48l-113 102l-112 -102l-43 48l156 142l157 -142v1z" />
    <glyph glyph-name="Cdotaccent" unicode="&#x10a;" horiz-adv-x="668" 
d="M411 -14l1 -2c-107 0 -196 36 -265 107c-70 72 -105 161 -105 266c0 67 16 129 49 186c32 57 77 102 134 135s120 50 187 50c83 0 156 -18 220 -55v-108c-69 49 -143 74 -221 74c-77 0 -141 -27 -194 -82s-80 -121 -80 -200c0 -81 26 -149 78 -203
c51 -53 117 -80 198 -80c76 0 149 24 218 72v-106c-69 -36 -143 -54 -220 -54zM410 892v-1c18 0 34 -6 47 -19s19 -28 19 -45s-6 -32 -19 -45s-29 -19 -47 -19c-17 0 -32 6 -44 18c-12 13 -18 28 -18 46s6 33 18 45c12 13 27 19 44 19v1z" />
    <glyph glyph-name="cdotaccent" unicode="&#x10b;" horiz-adv-x="446" 
d="M286 -12l-2 -4c-73 0 -132 24 -179 71c-47 48 -70 108 -70 180c0 71 24 130 72 178s108 72 180 72c49 0 94 -10 135 -31v-85c-41 25 -85 38 -133 38c-49 0 -88 -16 -119 -48s-46 -73 -46 -122c0 -50 15 -91 44 -123s69 -48 120 -48c45 0 90 13 134 38v-85
c-43 -21 -88 -31 -136 -31zM282 703v-1c18 0 34 -6 47 -19s19 -28 19 -45s-6 -32 -19 -45s-29 -19 -47 -19c-17 0 -32 6 -44 18c-12 13 -18 28 -18 46s6 33 18 45c12 13 27 19 44 19v1z" />
    <glyph glyph-name="Ccaron" unicode="&#x10c;" horiz-adv-x="668" 
d="M411 -14l1 -2c-107 0 -196 36 -265 107c-70 72 -105 161 -105 266c0 67 16 129 49 186c32 57 77 102 134 135s120 50 187 50c83 0 156 -18 220 -55v-108c-69 49 -143 74 -221 74c-77 0 -141 -27 -194 -82s-80 -121 -80 -200c0 -81 26 -149 78 -203
c51 -53 117 -80 198 -80c76 0 149 24 218 72v-106c-69 -36 -143 -54 -220 -54zM566 909v-1l-156 -142l-156 142l44 47l112 -101l113 101l43 -47v1z" />
    <glyph glyph-name="ccaron" unicode="&#x10d;" horiz-adv-x="446" 
d="M286 -12l-2 -4c-73 0 -132 24 -179 71c-47 48 -70 108 -70 180c0 71 24 130 72 178s108 72 180 72c49 0 94 -10 135 -31v-85c-41 25 -85 38 -133 38c-49 0 -88 -16 -119 -48s-46 -73 -46 -122c0 -50 15 -91 44 -123s69 -48 120 -48c45 0 90 13 134 38v-85
c-43 -21 -88 -31 -136 -31zM432 685v-1l-156 -142l-156 142l44 47l112 -101l113 101l43 -47v1z" />
    <glyph glyph-name="Dcaron" unicode="&#x10e;" horiz-adv-x="696" 
d="M80 711v1h194c115 0 207 -33 276 -98s103 -153 103 -262c0 -110 -35 -196 -106 -259s-167 -94 -288 -94h-179v712zM171 85l1 2h81c97 0 172 23 225 68c52 45 78 111 78 198c0 88 -27 155 -80 202s-128 70 -223 70h-82v-540zM463 909v-1l-156 -142l-156 142l44 47
l112 -101l113 101l43 -47v1z" />
    <glyph glyph-name="dcaron" unicode="&#x10f;" horiz-adv-x="750" 
d="M284 64v-2c44 0 82 17 114 50s48 75 48 124c0 48 -16 89 -48 122s-70 50 -114 50c-47 0 -86 -16 -116 -48c-31 -32 -46 -73 -46 -124s15 -92 44 -124s69 -48 118 -48zM445 -1l1 1v72c-19 -25 -45 -46 -77 -62s-64 -24 -96 -24c-71 0 -128 24 -173 72s-67 108 -67 179
c0 68 23 126 69 174s103 72 171 72c32 0 63 -8 94 -24s57 -38 78 -66v334h86v-728h-86zM642 620l-2 -2c-30 7 -45 25 -45 53c0 15 6 28 17 39s25 17 41 17s30 -6 42 -17s18 -24 18 -39c0 -44 -24 -90 -72 -138h-47c29 37 45 66 48 86v1z" />
    <glyph glyph-name="Dcroat" unicode="&#x110;" horiz-adv-x="696" 
d="M80 400v312h194c115 0 207 -33 276 -98s103 -153 103 -262c0 -110 -35 -196 -106 -259s-167 -94 -288 -94h-179v318h-66v83h66zM171 87h1h81c97 0 172 23 225 68c52 45 78 111 78 198c0 88 -27 155 -80 202s-128 70 -223 70h-82v-226h178v-83h-178v-230v1z" />
    <glyph glyph-name="dcroat" unicode="&#x111;" horiz-adv-x="600" 
d="M284 63v-1c44 0 82 17 114 50c31 33 47 74 47 123c0 48 -16 89 -48 122s-70 50 -114 50c-48 0 -87 -16 -116 -48c-30 -32 -45 -73 -45 -124s15 -92 44 -124s69 -48 118 -48zM445 3l1 -3v72c-18 -25 -43 -46 -75 -63c-32 -16 -64 -24 -97 -24c-71 0 -128 24 -173 72
s-67 108 -67 180c0 69 23 127 69 175c45 48 102 72 170 72c35 0 67 -7 96 -22s54 -37 76 -66v156h-202v74h202v104h86v-104h69v-74h-69v-550h-86v1z" />
    <glyph glyph-name="Emacron" unicode="&#x112;" horiz-adv-x="525" 
d="M488 -1v1h-408v712h398v-86h-306v-224h293v-86h-293v-230h316v-87zM442 790v-1h-324v73h324v-73v0v1z" />
    <glyph glyph-name="emacron" unicode="&#x113;" horiz-adv-x="550" 
d="M430 280h-2c-5 39 -22 70 -49 94c-28 24 -61 36 -98 36c-40 0 -74 -12 -102 -36s-46 -55 -53 -94h304zM279 -16h1c-72 0 -131 23 -177 70s-69 107 -69 182c0 69 24 128 71 176s106 72 175 72c73 0 131 -23 174 -70s64 -108 64 -184v-20h-397c3 -43 19 -79 48 -107
s66 -42 111 -42c61 0 111 25 150 76l73 -40c-53 -75 -128 -113 -224 -113zM437 601v-1h-324v73h324v-73v1z" />
    <glyph glyph-name="Ebreve" unicode="&#x114;" horiz-adv-x="525" 
d="M488 -1v1h-408v712h398v-86h-306v-224h293v-86h-293v-230h316v-87zM433 904v-1c-9 -41 -27 -74 -55 -99s-59 -38 -94 -38s-66 13 -94 38s-47 59 -56 100h60c7 -21 19 -39 36 -52s35 -20 54 -20c20 0 38 6 54 19s28 31 36 52h59v1z" />
    <glyph glyph-name="ebreve" unicode="&#x115;" horiz-adv-x="550" 
d="M430 280h-2c-5 39 -22 70 -49 94c-28 24 -61 36 -98 36c-40 0 -74 -12 -102 -36s-46 -55 -53 -94h304zM279 -16h1c-72 0 -131 23 -177 70s-69 107 -69 182c0 69 24 128 71 176s106 72 175 72c73 0 131 -23 174 -70s64 -108 64 -184v-20h-397c3 -43 19 -79 48 -107
s66 -42 111 -42c61 0 111 25 150 76l73 -40c-53 -75 -128 -113 -224 -113zM425 707v-1c-9 -41 -27 -74 -55 -99s-59 -38 -94 -38s-66 13 -94 38s-47 59 -56 100h60c7 -21 19 -39 36 -52s35 -20 54 -20c20 0 38 6 54 19s28 31 36 52h59v1z" />
    <glyph glyph-name="Edotaccent" unicode="&#x116;" horiz-adv-x="525" 
d="M488 -1v1h-408v712h398v-86h-306v-224h293v-86h-293v-230h316v-87zM292 892v-1c18 0 34 -6 47 -19s19 -28 19 -45s-6 -32 -19 -45s-29 -19 -47 -19c-17 0 -32 6 -44 18c-12 13 -18 28 -18 46s6 33 18 45c12 13 27 19 44 19v1z" />
    <glyph glyph-name="edotaccent" unicode="&#x117;" horiz-adv-x="550" 
d="M430 280h-2c-5 39 -22 70 -49 94c-28 24 -61 36 -98 36c-40 0 -74 -12 -102 -36s-46 -55 -53 -94h304zM279 -16h1c-72 0 -131 23 -177 70s-69 107 -69 182c0 69 24 128 71 176s106 72 175 72c73 0 131 -23 174 -70s64 -108 64 -184v-20h-397c3 -43 19 -79 48 -107
s66 -42 111 -42c61 0 111 25 150 76l73 -40c-53 -75 -128 -113 -224 -113zM278 703v-1c18 0 34 -6 47 -19s19 -28 19 -45s-6 -32 -19 -45s-29 -19 -47 -19c-17 0 -32 6 -44 18c-12 13 -18 28 -18 46s6 33 18 45c12 13 27 19 44 19v1z" />
    <glyph glyph-name="Eogonek" unicode="&#x118;" horiz-adv-x="525" 
d="M383 1v-1h-303v712h398v-86h-306v-224h293v-86h-293v-230h316v-87h-37c-37 -34 -59 -58 -65 -71c-7 -13 -10 -24 -10 -33c0 -16 5 -28 16 -36s27 -12 48 -12c20 0 36 2 48 5l-12 -56c-14 -3 -32 -5 -55 -5c-37 0 -64 7 -82 22c-19 15 -28 37 -28 66c0 20 6 40 18 60
s30 40 54 61v1z" />
    <glyph glyph-name="eogonek" unicode="&#x119;" horiz-adv-x="550" 
d="M428 281v-1c-5 37 -22 68 -49 92c-27 25 -60 37 -99 37c-41 0 -76 -12 -104 -36s-45 -55 -52 -92h304zM243 -12l1 -1c-63 8 -114 35 -153 80s-58 102 -58 170c0 69 24 128 71 176s105 72 175 72c73 0 131 -23 174 -70s64 -108 64 -185v-20h-397c1 -41 17 -77 46 -106
s66 -43 113 -43c61 0 111 25 150 76l73 -40c-48 -67 -112 -104 -193 -111c-39 -36 -59 -66 -59 -91c0 -16 5 -28 16 -36s27 -12 48 -12c20 0 36 2 48 5l-12 -56c-14 -3 -32 -5 -55 -5c-37 0 -64 7 -82 22c-19 15 -28 37 -28 66c0 36 19 72 58 108v1z" />
    <glyph glyph-name="Ecaron" unicode="&#x11a;" horiz-adv-x="525" 
d="M488 -1v1h-408v712h398v-86h-306v-224h293v-86h-293v-230h316v-87zM419 909v-1l-156 -142l-156 142l44 47l112 -101l113 101l43 -47v0v1z" />
    <glyph glyph-name="ecaron" unicode="&#x11b;" horiz-adv-x="550" 
d="M430 280h-2c-5 39 -22 70 -49 94c-28 24 -61 36 -98 36c-40 0 -74 -12 -102 -36s-46 -55 -53 -94h304zM279 -16h1c-72 0 -131 23 -177 70s-69 107 -69 182c0 69 24 128 71 176s106 72 175 72c73 0 131 -23 174 -70s64 -108 64 -184v-20h-397c3 -43 19 -79 48 -107
s66 -42 111 -42c61 0 111 25 150 76l73 -40c-53 -75 -128 -113 -224 -113zM432 685v-1l-156 -142l-156 142l44 47l112 -101l113 101l43 -47v1z" />
    <glyph glyph-name="Gcircumflex" unicode="&#x11c;" horiz-adv-x="782" 
d="M744 327l2 -1c0 -101 -30 -183 -91 -246s-143 -94 -244 -94c-103 0 -190 36 -262 108s-108 160 -108 263s35 191 106 263s159 108 264 108c127 0 226 -48 297 -144l-78 -55c-55 73 -128 110 -219 110c-79 0 -144 -27 -196 -82s-78 -121 -78 -200c0 -81 26 -149 78 -204
s117 -82 196 -82c60 0 112 18 156 54s71 86 80 149h-192v85h289v-32zM571 815l-1 -1l-44 -48l-113 102l-112 -102l-43 48l156 142l157 -142v1z" />
    <glyph glyph-name="gcircumflex" unicode="&#x11d;" horiz-adv-x="587" 
d="M516 14h2c0 -69 -22 -126 -66 -170s-104 -66 -180 -66c-60 0 -111 16 -152 48c-42 32 -66 73 -73 123h85c6 -29 22 -53 47 -70s57 -26 94 -26c47 0 86 14 115 42s44 66 44 114v76c-20 -26 -45 -47 -75 -62c-31 -15 -61 -23 -92 -23c-68 0 -124 23 -167 70
s-65 104 -65 173c0 67 22 123 66 170s99 70 165 70c31 0 61 -8 91 -23c29 -15 54 -37 75 -64v72h86v-454zM279 76l-1 2c43 0 79 15 110 46c30 31 45 69 45 116c0 45 -15 84 -46 116s-67 48 -110 48c-46 0 -83 -15 -111 -46c-29 -31 -43 -71 -43 -120c0 -48 14 -87 42 -117
s66 -45 114 -45zM451 590l-1 -1l-44 -48l-113 102l-112 -102l-43 48l156 142l157 -142v1z" />
    <glyph glyph-name="Gbreve" unicode="&#x11e;" horiz-adv-x="782" 
d="M744 327l2 -1c0 -101 -30 -183 -91 -246s-143 -94 -244 -94c-103 0 -190 36 -262 108s-108 160 -108 263s35 191 106 263s159 108 264 108c127 0 226 -48 297 -144l-78 -55c-55 73 -128 110 -219 110c-79 0 -144 -27 -196 -82s-78 -121 -78 -200c0 -81 26 -149 78 -204
s117 -82 196 -82c60 0 112 18 156 54s71 86 80 149h-192v85h289v-32zM562 904v-1c-9 -41 -27 -74 -55 -99s-59 -38 -94 -38s-66 13 -94 38s-47 59 -56 100h60c7 -21 19 -39 36 -52s35 -20 54 -20c20 0 38 6 54 19s28 31 36 52h59v1z" />
    <glyph glyph-name="gbreve" unicode="&#x11f;" horiz-adv-x="587" 
d="M516 14h2c0 -69 -22 -126 -66 -170s-104 -66 -180 -66c-60 0 -111 16 -152 48c-42 32 -66 73 -73 123h85c6 -29 22 -53 47 -70s57 -26 94 -26c47 0 86 14 115 42s44 66 44 114v76c-20 -26 -45 -47 -75 -62c-31 -15 -61 -23 -92 -23c-68 0 -124 23 -167 70
s-65 104 -65 173c0 67 22 123 66 170s99 70 165 70c31 0 61 -8 91 -23c29 -15 54 -37 75 -64v72h86v-454zM279 76l-1 2c43 0 79 15 110 46c30 31 45 69 45 116c0 45 -15 84 -46 116s-67 48 -110 48c-46 0 -83 -15 -111 -46c-29 -31 -43 -71 -43 -120c0 -48 14 -87 42 -117
s66 -45 114 -45zM423 707v-1c-9 -41 -27 -74 -55 -99s-59 -38 -94 -38s-66 13 -94 38s-47 59 -56 100h60c7 -21 19 -39 36 -52s35 -20 54 -20c20 0 38 6 54 19s28 31 36 52h59v1z" />
    <glyph glyph-name="Gdotaccent" unicode="&#x120;" horiz-adv-x="782" 
d="M744 327l2 -1c0 -101 -30 -183 -91 -246s-143 -94 -244 -94c-103 0 -190 36 -262 108s-108 160 -108 263s35 191 106 263s159 108 264 108c127 0 226 -48 297 -144l-78 -55c-55 73 -128 110 -219 110c-79 0 -144 -27 -196 -82s-78 -121 -78 -200c0 -81 26 -149 78 -204
s117 -82 196 -82c60 0 112 18 156 54s71 86 80 149h-192v85h289v-32zM412 892v-1c18 0 34 -6 47 -19s19 -28 19 -45s-6 -32 -19 -45s-29 -19 -47 -19c-17 0 -32 6 -44 18c-12 13 -18 28 -18 46s6 33 18 45c12 13 27 19 44 19v1z" />
    <glyph glyph-name="gdotaccent" unicode="&#x121;" horiz-adv-x="587" 
d="M516 14h2c0 -69 -22 -126 -66 -170s-104 -66 -180 -66c-60 0 -111 16 -152 48c-42 32 -66 73 -73 123h85c6 -29 22 -53 47 -70s57 -26 94 -26c47 0 86 14 115 42s44 66 44 114v76c-20 -26 -45 -47 -75 -62c-31 -15 -61 -23 -92 -23c-68 0 -124 23 -167 70
s-65 104 -65 173c0 67 22 123 66 170s99 70 165 70c31 0 61 -8 91 -23c29 -15 54 -37 75 -64v72h86v-454zM279 76l-1 2c43 0 79 15 110 46c30 31 45 69 45 116c0 45 -15 84 -46 116s-67 48 -110 48c-46 0 -83 -15 -111 -46c-29 -31 -43 -71 -43 -120c0 -48 14 -87 42 -117
s66 -45 114 -45zM272 703v-1c18 0 34 -6 47 -19s19 -28 19 -45s-6 -32 -19 -45s-29 -19 -47 -19c-17 0 -32 6 -44 18c-12 13 -18 28 -18 46s6 33 18 45c12 13 27 19 44 19v1z" />
    <glyph glyph-name="Gcommaaccent" unicode="&#x122;" horiz-adv-x="782" 
d="M744 327l2 -1c0 -101 -30 -183 -91 -246s-143 -94 -244 -94c-103 0 -190 36 -262 108s-108 160 -108 263s35 191 106 263s159 108 264 108c127 0 226 -48 297 -144l-78 -55c-55 73 -128 110 -219 110c-79 0 -144 -27 -196 -82s-78 -121 -78 -200c0 -81 26 -149 78 -204
s117 -82 196 -82c60 0 112 18 156 54s71 86 80 149h-192v85h289v-32zM402 -151v1c-37 4 -55 22 -55 53c0 15 6 28 18 39c11 11 26 17 43 17s32 -6 44 -18s18 -27 18 -44c0 -35 -19 -72 -58 -113h-50c19 21 32 43 40 65z" />
    <glyph glyph-name="gcommaaccent" unicode="&#x123;" horiz-adv-x="587" 
d="M520 14h-2c0 -70 -22 -127 -66 -171c-44 -43 -104 -65 -180 -65c-61 0 -113 16 -154 49c-42 33 -66 74 -71 122h85c5 -29 21 -53 46 -70s57 -26 96 -26c48 0 87 14 116 42s44 66 44 114v76c-20 -25 -45 -46 -75 -62c-30 -15 -60 -23 -91 -23c-68 0 -124 23 -167 70
s-65 105 -65 174c0 67 22 123 66 170s99 70 165 70c34 0 65 -7 93 -22s53 -37 74 -66v72h86v-454zM278 78c43 0 79 15 109 46s45 70 45 117c0 46 -15 85 -46 117s-67 48 -110 48c-47 0 -84 -15 -112 -46s-42 -71 -42 -120s14 -89 42 -118s66 -44 114 -44zM280 688h-2h48
c-20 -17 -35 -36 -46 -55c37 -4 56 -22 56 -54c0 -15 -6 -28 -18 -39s-27 -16 -44 -16c-16 0 -30 6 -42 18s-18 26 -18 42c0 31 22 65 66 103v1z" />
    <glyph glyph-name="Hcircumflex" unicode="&#x124;" horiz-adv-x="712" 
d="M632 712v-712h-92v332h-368v-332h-92v712h92v-298h368v298h92zM513 815l-1 -1l-44 -48l-113 102l-112 -102l-43 48l156 142l157 -142v0v1z" />
    <glyph glyph-name="hcircumflex" unicode="&#x125;" horiz-adv-x="532" 
d="M467 -2l3 2h-86v290c0 41 -8 70 -23 89c-16 19 -41 28 -74 28c-47 0 -91 -28 -134 -85v-322h-86v728h86v-318c46 49 97 73 153 73c51 0 90 -16 119 -48c28 -31 42 -73 42 -125v-312zM423 830l-1 -1l-44 -48l-113 102l-112 -102l-43 48l156 142l157 -142v1z" />
    <glyph glyph-name="Hbar" unicode="&#x126;" horiz-adv-x="712" 
d="M686 606v-78h-54v-528h-92v332h-368v-332h-92v528h-54v78h54v106h92v-106h368v106h92v-106h54zM540 415v-1v113h-368v-113h368v0v1z" />
    <glyph glyph-name="hbar" unicode="&#x127;" horiz-adv-x="532" 
d="M386 0h-2v290c0 39 -8 68 -24 87c-16 20 -40 30 -72 30c-47 0 -91 -28 -132 -85v-322h-86v564h-61v66h61v97h86v-97h196v-66h-196v-154c47 49 98 73 154 73c49 0 89 -15 118 -46s44 -73 44 -126v-312h-86v1z" />
    <glyph glyph-name="Itilde" unicode="&#x128;" horiz-adv-x="252" 
d="M172 712v-712h-92v712h92zM292 888l-2 -2c-5 -38 -17 -67 -34 -88c-18 -21 -40 -31 -65 -31c-20 0 -46 9 -78 27c-24 13 -41 20 -52 20c-17 0 -29 -16 -34 -47h-64c5 37 17 67 34 88s38 32 62 32c21 0 46 -8 74 -24c27 -16 46 -24 57 -24c17 0 29 16 36 48h66v1z" />
    <glyph glyph-name="itilde" unicode="&#x129;" horiz-adv-x="237" 
d="M162 468v-468h-86v468h86zM284 698l-2 -2c-5 -38 -17 -67 -34 -88c-18 -21 -40 -31 -65 -31c-20 0 -46 9 -78 27c-24 13 -41 20 -52 20c-17 0 -29 -16 -34 -47h-64c5 37 17 67 34 88s38 32 62 32c21 0 46 -8 74 -24c27 -16 46 -24 57 -24c17 0 29 16 36 48h66v1z" />
    <glyph glyph-name="uni012A" unicode="&#x12a;" horiz-adv-x="252" 
d="M172 712v-712h-92v712h92zM288 790v-1h-324v73h324v-73v0v1z" />
    <glyph glyph-name="imacron" unicode="&#x12b;" horiz-adv-x="237" 
d="M162 468v-468h-86v468h86zM280 601v-1h-324v73h324v-73v0v1z" />
    <glyph glyph-name="Ibreve" unicode="&#x12c;" horiz-adv-x="252" 
d="M172 712v-712h-92v712h92zM276 904v-1c-9 -41 -27 -74 -55 -99s-59 -38 -94 -38s-66 13 -94 38s-47 59 -56 100h60c7 -21 19 -39 36 -52s35 -20 54 -20c20 0 38 6 54 19s28 31 36 52h59v1z" />
    <glyph glyph-name="uni012D" unicode="&#x12d;" horiz-adv-x="237" 
d="M162 468v-468h-86v468h86zM268 707v-1c-9 -41 -27 -74 -55 -99s-59 -38 -94 -38s-66 13 -94 38s-47 59 -56 100h60c7 -21 19 -39 36 -52s35 -20 54 -20c20 0 38 6 54 19s28 31 36 52h59v1z" />
    <glyph glyph-name="Iogonek" unicode="&#x12e;" horiz-adv-x="252" 
d="M105 1l-1 -1h-24v712h92v-712l-46 -44c-8 -8 -15 -17 -20 -28s-8 -21 -8 -32c0 -16 5 -28 16 -36s27 -12 48 -12c20 0 36 2 48 5l-12 -56c-14 -3 -32 -5 -55 -5c-37 0 -64 7 -83 22s-28 37 -28 66c0 39 24 79 73 120v1z" />
    <glyph glyph-name="iogonek" unicode="&#x12f;" horiz-adv-x="237" 
d="M119 696c16 0 30 -6 41 -18c11 -11 16 -25 16 -42s-5 -31 -16 -42s-25 -16 -41 -16c-17 0 -31 6 -42 17c-12 11 -18 25 -18 41s6 30 18 42s26 18 42 18zM94 1v-1h-18v468h86v-468c-37 -37 -59 -62 -65 -74c-7 -12 -10 -22 -10 -30c0 -16 5 -28 16 -36s27 -12 48 -12
c17 0 33 2 48 5l-12 -56c-14 -3 -32 -5 -55 -5c-37 0 -64 7 -82 22c-19 15 -28 37 -28 66c0 39 24 79 72 120v1z" />
    <glyph glyph-name="Idotaccent" unicode="&#x130;" horiz-adv-x="252" 
d="M172 712v-712h-92v712h92zM125 892v-1c18 0 34 -6 47 -19s19 -28 19 -45s-6 -32 -19 -45s-29 -19 -47 -19c-17 0 -32 6 -44 18c-12 13 -18 28 -18 46s6 33 18 45c12 13 27 19 44 19v1z" />
    <glyph glyph-name="dotlessi" unicode="&#x131;" horiz-adv-x="237" 
d="M162 1v-1h-86v468h86v-468v0v1z" />
    <glyph glyph-name="IJ" unicode="&#x132;" horiz-adv-x="638" 
d="M172 712v-712h-92v712h92zM561 196l1 -2c0 -68 -15 -120 -45 -156c-30 -35 -74 -53 -131 -53c-78 0 -139 34 -183 102l68 56c31 -47 67 -71 107 -71c31 0 54 11 69 32c15 22 22 55 22 99v511h92v-519v1z" />
    <glyph glyph-name="ij" unicode="&#x133;" horiz-adv-x="473" 
d="M119 696c16 0 30 -6 41 -18s17 -26 17 -42s-6 -30 -17 -41s-25 -17 -41 -17c-17 0 -31 6 -42 17c-12 11 -18 25 -18 41s6 30 18 42s26 18 42 18zM162 468v-468h-86v468h86zM356 696c16 0 30 -6 41 -18s17 -26 17 -42s-6 -30 -17 -41s-25 -17 -41 -17c-17 0 -31 6 -42 17
c-12 11 -18 25 -18 41s6 30 18 42s26 18 42 18zM398 -27v1c0 -61 -13 -109 -40 -144s-65 -52 -116 -52h-15v76c29 0 50 9 64 28s21 52 21 99v486h86v-494z" />
    <glyph glyph-name="Jcircumflex" unicode="&#x134;" horiz-adv-x="446" 
d="M371 195l1 -1c0 -68 -15 -120 -45 -156c-30 -35 -74 -53 -131 -53c-78 0 -139 34 -183 102l68 56c31 -47 67 -71 107 -71c31 0 54 11 69 32c15 22 22 55 22 99v511h92v-519zM483 815l-1 -1l-44 -48l-113 102l-112 -102l-43 48l156 142l157 -142v1z" />
    <glyph glyph-name="jcircumflex" unicode="&#x135;" horiz-adv-x="237" 
d="M118 731l156 -142l-44 -48l-112 102l-113 -102l-43 48zM162 -25v-1c0 -61 -13 -109 -40 -144s-65 -52 -116 -52h-15v76c28 0 49 11 64 32c14 21 21 53 21 96v486h86v-494v1z" />
    <glyph glyph-name="Kcommaaccent" unicode="&#x136;" horiz-adv-x="631" 
d="M270 366l350 -366h-122l-326 347v-347h-92v712h92v-332l324 332h116zM318 -151v1c-37 4 -55 22 -55 53c0 15 6 28 18 39c11 11 26 17 43 17s32 -6 44 -18s18 -27 18 -44c0 -35 -19 -72 -58 -113h-50c19 21 32 43 40 65z" />
    <glyph glyph-name="kcommaaccent" unicode="&#x137;" horiz-adv-x="472" 
d="M466 0h1h-110l-203 242v-242h-86v728h86v-460l196 200h110l-214 -212zM234 -151v1c-37 4 -55 22 -55 53c0 15 6 28 18 39c11 11 26 17 43 17s32 -6 44 -18s18 -27 18 -44c0 -35 -19 -72 -58 -113h-50c19 21 32 43 40 65z" />
    <glyph glyph-name="kgreenlandic" unicode="&#x138;" horiz-adv-x="472" 
d="M466 1l1 -1h-110l-203 242v-242h-86v468h86v-200l196 200h110l-214 -212l220 -256v0v1z" />
    <glyph glyph-name="Lacute" unicode="&#x139;" horiz-adv-x="496" 
d="M488 -1v1h-408v712h92v-626h316v-87zM366 898h-1l-142 -132l-39 34l116 154l66 -57v0v1z" />
    <glyph glyph-name="lacute" unicode="&#x13a;" horiz-adv-x="223" 
d="M154 728v-728h-86v728h86zM239 914h-1l-142 -132l-39 34l116 154l66 -57v0v1z" />
    <glyph glyph-name="Lcommaaccent" unicode="&#x13b;" horiz-adv-x="496" 
d="M488 -1v1h-408v712h92v-626h316v-87zM285 -151v1c-37 4 -55 22 -55 53c0 15 6 28 18 39c11 11 26 17 43 17s32 -6 44 -18s18 -27 18 -44c0 -35 -19 -72 -58 -113h-50c19 21 32 43 40 65z" />
    <glyph glyph-name="lcommaaccent" unicode="&#x13c;" horiz-adv-x="223" 
d="M154 728v-728h-86v728h86zM110 -151v1c-37 4 -55 22 -55 53c0 15 6 28 18 39c11 11 26 17 43 17s32 -6 44 -18s18 -27 18 -44c0 -35 -19 -72 -58 -113h-50c19 21 32 43 40 65z" />
    <glyph glyph-name="Lcaron" unicode="&#x13d;" horiz-adv-x="496" 
d="M488 -1v1h-408v712h92v-626h316v-87zM319 620l-2 -2c-30 7 -45 25 -45 53c0 15 6 28 17 39s25 17 41 17s30 -6 42 -17s18 -24 18 -39c0 -44 -24 -90 -72 -138h-47c29 37 45 66 48 86v1z" />
    <glyph glyph-name="lcaron" unicode="&#x13e;" horiz-adv-x="385" 
d="M154 728v-728h-86v728h86zM263 620l-2 -2c-30 7 -45 25 -45 53c0 15 6 28 17 39s25 17 41 17s30 -6 42 -17s18 -24 18 -39c0 -44 -24 -90 -72 -138h-47c29 37 45 66 48 86v1z" />
    <glyph glyph-name="Ldot" unicode="&#x13f;" horiz-adv-x="496" 
d="M488 -1v1h-408v712h92v-626h316v-87zM322 429v-1c18 0 34 -6 47 -19s19 -28 19 -45s-6 -32 -19 -45s-29 -19 -47 -19c-17 0 -32 6 -44 18c-12 13 -18 28 -18 46s6 33 18 45c12 13 27 19 44 19v1z" />
    <glyph glyph-name="ldot" unicode="&#x140;" horiz-adv-x="354" 
d="M154 728v-728h-86v728h86zM256 441v-1c18 0 34 -6 47 -19s19 -28 19 -45s-6 -32 -19 -45s-29 -19 -47 -19c-17 0 -32 6 -44 18c-12 13 -18 28 -18 46s6 33 18 45c12 13 27 19 44 19v1z" />
    <glyph glyph-name="Lslash" unicode="&#x141;" horiz-adv-x="496" 
d="M488 -1v1h-408v250l-74 -50v96l74 49v366h92v-304l168 112v-96l-168 -112v-226h316v-87v0v1z" />
    <glyph glyph-name="lslash" unicode="&#x142;" horiz-adv-x="223" 
d="M223 412v-2l-68 -49v-360h-86v298l-68 -49v89l68 49v341h86v-278l68 49v-89v0v1z" />
    <glyph glyph-name="Nacute" unicode="&#x143;" horiz-adv-x="735" 
d="M657 0h-1h-66l-420 540v-540h-89v712h66l421 -540v540h89v-712zM496 898h-1l-142 -132l-39 34l116 154l66 -57v0v1z" />
    <glyph glyph-name="nacute" unicode="&#x144;" horiz-adv-x="532" 
d="M467 -2l3 2h-86v290c0 41 -8 70 -23 89c-16 19 -41 28 -74 28c-47 0 -91 -28 -134 -85v-322h-86v468h86v-58c46 49 97 73 153 73c51 0 90 -16 119 -48c28 -31 42 -73 42 -125v-312zM393 674h-1l-142 -132l-39 34l116 154l66 -57v1z" />
    <glyph glyph-name="Ncommaaccent" unicode="&#x145;" horiz-adv-x="735" 
d="M657 0h-1h-66l-420 540v-540h-89v712h66l421 -540v540h89v-712zM360 -151v1c-37 4 -55 22 -55 53c0 15 6 28 18 39c11 11 26 17 43 17s32 -6 44 -18s18 -27 18 -44c0 -35 -19 -72 -58 -113h-50c19 21 32 43 40 65z" />
    <glyph glyph-name="ncommaaccent" unicode="&#x146;" horiz-adv-x="532" 
d="M467 -2l3 2h-86v290c0 41 -8 70 -23 89c-16 19 -41 28 -74 28c-47 0 -91 -28 -134 -85v-322h-86v468h86v-58c46 49 97 73 153 73c51 0 90 -16 119 -48c28 -31 42 -73 42 -125v-312zM258 -151v1c-37 4 -55 22 -55 53c0 15 6 28 18 39c11 11 26 17 43 17s32 -6 44 -18
s18 -27 18 -44c0 -35 -19 -72 -58 -113h-50c19 21 32 43 40 65z" />
    <glyph glyph-name="Ncaron" unicode="&#x147;" horiz-adv-x="735" 
d="M657 0h-1h-66l-420 540v-540h-89v712h66l421 -540v540h89v-712zM524 909v-1l-156 -142l-156 142l44 47l112 -101l113 101l43 -47v0v1z" />
    <glyph glyph-name="ncaron" unicode="&#x148;" horiz-adv-x="532" 
d="M467 -2l3 2h-86v290c0 41 -8 70 -23 89c-16 19 -41 28 -74 28c-47 0 -91 -28 -134 -85v-322h-86v468h86v-58c46 49 97 73 153 73c51 0 90 -16 119 -48c28 -31 42 -73 42 -125v-312zM422 685v-1l-156 -142l-156 142l44 47l112 -101l113 101l43 -47v1z" />
    <glyph glyph-name="napostrophe" unicode="&#x149;" horiz-adv-x="654" 
d="M588 -2l3 2h-86v290c0 41 -8 70 -23 89c-16 19 -41 28 -74 28c-47 0 -91 -28 -134 -85v-322h-86v468h86v-58c46 49 97 73 153 73c51 0 90 -16 119 -48c28 -31 42 -73 42 -125v-312zM106 608h4c-32 9 -48 29 -48 58c0 16 6 30 18 42s26 18 42 18s30 -6 42 -18
s18 -26 18 -42c0 -39 -25 -92 -76 -161h-50c27 44 43 78 50 102v1z" />
    <glyph glyph-name="Eng" unicode="&#x14a;" horiz-adv-x="712" 
d="M630 196l2 -2c0 -69 -14 -121 -42 -156s-70 -52 -126 -52c-57 0 -109 25 -154 74l68 56c29 -31 57 -46 83 -46c23 0 41 8 55 23c14 16 21 53 21 110v266c0 57 -14 101 -41 130c-28 29 -62 44 -102 44c-32 0 -64 -6 -97 -17s-75 -40 -126 -85v-538h-92v712h92v-85
c48 41 90 68 126 81s73 19 110 19c69 0 123 -25 163 -74s60 -107 60 -174v-287v1z" />
    <glyph glyph-name="eng" unicode="&#x14b;" horiz-adv-x="544" 
d="M364 -113l-1 -1c14 21 21 53 21 96v308c0 39 -8 68 -24 87c-16 20 -40 30 -72 30c-47 0 -91 -28 -132 -85v-322h-86v468h86v-58c47 49 98 73 154 73c51 0 90 -16 119 -47s43 -73 43 -125v-337c0 -61 -13 -109 -40 -144s-65 -52 -116 -52h-16v76c28 0 49 11 64 32v1z" />
    <glyph glyph-name="Omacron" unicode="&#x14c;" horiz-adv-x="826" 
d="M411 728h1c103 0 190 -36 262 -109s108 -160 108 -263c0 -67 -17 -129 -50 -186s-79 -103 -136 -136s-119 -50 -186 -50c-103 0 -190 36 -262 109s-108 160 -108 263c0 67 17 129 50 186s78 103 135 136s119 50 186 50zM412 74c77 0 142 27 195 82s79 121 79 200
s-26 145 -78 200s-117 82 -196 82c-77 0 -142 -27 -195 -82s-80 -121 -80 -200s27 -145 80 -200s118 -82 195 -82zM576 790v-1h-324v73h324v-73v1z" />
    <glyph glyph-name="omacron" unicode="&#x14d;" horiz-adv-x="569" 
d="M283 484h1c69 0 128 -24 177 -73c48 -49 72 -107 72 -176s-24 -128 -73 -177s-108 -74 -177 -74s-128 25 -177 74s-74 108 -74 177s25 127 74 176s108 73 177 73zM284 61v1c47 0 85 17 116 50s46 74 46 122s-15 88 -46 121s-69 50 -116 50c-46 0 -84 -17 -115 -50
s-47 -74 -47 -122s15 -89 46 -122s69 -50 116 -50zM446 601v-1h-324v73h324v-73v1z" />
    <glyph glyph-name="Obreve" unicode="&#x14e;" horiz-adv-x="826" 
d="M411 728h1c103 0 190 -36 262 -109s108 -160 108 -263c0 -67 -17 -129 -50 -186s-79 -103 -136 -136s-119 -50 -186 -50c-103 0 -190 36 -262 109s-108 160 -108 263c0 67 17 129 50 186s78 103 135 136s119 50 186 50zM412 74c77 0 142 27 195 82s79 121 79 200
s-26 145 -78 200s-117 82 -196 82c-77 0 -142 -27 -195 -82s-80 -121 -80 -200s27 -145 80 -200s118 -82 195 -82zM562 904v-1c-9 -41 -27 -74 -55 -99s-59 -38 -94 -38s-66 13 -94 38s-47 59 -56 100h60c7 -21 19 -39 36 -52s35 -20 54 -20c20 0 38 6 54 19s28 31 36 52h59
v1z" />
    <glyph glyph-name="obreve" unicode="&#x14f;" horiz-adv-x="569" 
d="M283 484h1c69 0 128 -24 177 -73c48 -49 72 -107 72 -176s-24 -128 -73 -177s-108 -74 -177 -74s-128 25 -177 74s-74 108 -74 177s25 127 74 176s108 73 177 73zM284 61v1c47 0 85 17 116 50s46 74 46 122s-15 88 -46 121s-69 50 -116 50c-46 0 -84 -17 -115 -50
s-47 -74 -47 -122s15 -89 46 -122s69 -50 116 -50zM434 707v-1c-9 -41 -27 -74 -55 -99s-59 -38 -94 -38s-66 13 -94 38s-47 59 -56 100h60c7 -21 19 -39 36 -52s35 -20 54 -20c20 0 38 6 54 19s28 31 36 52h59v1z" />
    <glyph glyph-name="Ohungarumlaut" unicode="&#x150;" horiz-adv-x="826" 
d="M411 728h1c103 0 190 -36 262 -109s108 -160 108 -263c0 -67 -17 -129 -50 -186s-79 -103 -136 -136s-119 -50 -186 -50c-103 0 -190 36 -262 109s-108 160 -108 263c0 67 17 129 50 186s78 103 135 136s119 50 186 50zM412 74c77 0 142 27 195 82s79 121 79 200
s-26 145 -78 200s-117 82 -196 82c-77 0 -142 -27 -195 -82s-80 -121 -80 -200s27 -145 80 -200s118 -82 195 -82zM639 897l-2 1l-142 -132l-38 34l116 154zM443 898h-1l-142 -132l-39 34l116 154l66 -57v1z" />
    <glyph glyph-name="ohungarumlaut" unicode="&#x151;" horiz-adv-x="569" 
d="M283 484h1c69 0 128 -24 177 -73c48 -49 72 -107 72 -176s-24 -128 -73 -177s-108 -74 -177 -74s-128 25 -177 74s-74 108 -74 177s25 127 74 176s108 73 177 73zM284 61v1c47 0 85 17 116 50s46 74 46 122s-15 88 -46 121s-69 50 -116 50c-46 0 -84 -17 -115 -50
s-47 -74 -47 -122s15 -89 46 -122s69 -50 116 -50zM510 673l-2 1l-142 -132l-38 34l116 154zM315 674h-1l-142 -132l-39 34l116 154l66 -57v1z" />
    <glyph glyph-name="OE" unicode="&#x152;" horiz-adv-x="1103" 
d="M1065 -4l1 4h-406v112c-71 -85 -158 -128 -261 -128c-101 0 -185 36 -254 108s-104 160 -104 263c0 67 16 129 47 186s74 102 129 135s115 49 180 49c107 0 194 -42 262 -126v110h396v-86h-304v-224h291v-86h-291v-230h314v-87zM399 76l1 -2c75 0 137 27 186 82
s74 122 74 202s-25 147 -74 202s-112 82 -188 82c-75 0 -138 -27 -187 -82c-49 -54 -74 -121 -74 -201s25 -147 74 -202s112 -82 188 -82v1z" />
    <glyph glyph-name="oe" unicode="&#x153;" horiz-adv-x="961" 
d="M928 209h2h-398c3 -43 19 -78 48 -106s66 -42 111 -42c61 0 110 25 149 76l73 -40c-55 -75 -129 -113 -223 -113c-89 0 -157 37 -204 110c-51 -73 -119 -110 -204 -110c-69 0 -128 24 -177 73s-73 109 -73 178s25 127 74 176s108 73 177 73c41 0 80 -10 116 -30
s65 -48 88 -84c48 75 115 113 202 113c73 0 132 -23 175 -70s64 -108 64 -184v-20zM839 280h-1c-5 39 -22 70 -49 94s-60 36 -98 36c-40 0 -74 -12 -102 -36s-46 -55 -54 -94h304zM284 63v-1c46 0 84 17 115 50s46 74 46 122s-15 89 -46 122s-69 50 -115 50
s-84 -17 -115 -50s-47 -74 -47 -122s15 -89 46 -122s69 -50 116 -50v1z" />
    <glyph glyph-name="Racute" unicode="&#x154;" horiz-adv-x="574" 
d="M569 0h1h-116l-230 286h-51v-286h-92v712h190c77 0 136 -19 179 -57s64 -88 64 -151c0 -55 -16 -101 -48 -138s-77 -61 -135 -72zM171 369l1 1h94c48 0 86 12 114 36c27 24 41 57 41 98c0 39 -14 69 -42 90s-65 32 -112 32h-96v-257zM401 898h-1l-142 -132l-39 34
l116 154l66 -57v1z" />
    <glyph glyph-name="racute" unicode="&#x155;" horiz-adv-x="345" 
d="M336 477l-10 -92c-19 5 -35 7 -49 7c-47 0 -88 -27 -124 -80v-312h-86v468h86v-72c43 58 88 87 137 87c17 0 33 -2 46 -6zM301 674h-1l-142 -132l-39 34l116 154l66 -57v1z" />
    <glyph glyph-name="Rcommaaccent" unicode="&#x156;" horiz-adv-x="574" 
d="M569 0h1h-116l-230 286h-51v-286h-92v712h190c77 0 136 -19 179 -57s64 -88 64 -151c0 -55 -16 -101 -48 -138s-77 -61 -135 -72zM171 369l1 1h94c48 0 86 12 114 36c27 24 41 57 41 98c0 39 -14 69 -42 90s-65 32 -112 32h-96v-257zM285 -151v1c-37 4 -55 22 -55 53
c0 15 6 28 18 39c11 11 26 17 43 17s32 -6 44 -18s18 -27 18 -44c0 -35 -19 -72 -58 -113h-50c19 21 32 43 40 65z" />
    <glyph glyph-name="rcommaaccent" unicode="&#x157;" horiz-adv-x="345" 
d="M336 477l-10 -92c-19 5 -35 7 -49 7c-47 0 -88 -27 -124 -80v-312h-86v468h86v-72c43 58 88 87 137 87c17 0 33 -2 46 -6zM172 -151v1c-37 4 -55 22 -55 53c0 15 6 28 18 39c11 11 26 17 43 17s32 -6 44 -18s18 -27 18 -44c0 -35 -19 -72 -58 -113h-50c19 21 32 43 40 65
z" />
    <glyph glyph-name="Rcaron" unicode="&#x158;" horiz-adv-x="574" 
d="M569 0h1h-116l-230 286h-51v-286h-92v712h190c77 0 136 -19 179 -57s64 -88 64 -151c0 -55 -16 -101 -48 -138s-77 -61 -135 -72zM171 369l1 1h94c48 0 86 12 114 36c27 24 41 57 41 98c0 39 -14 69 -42 90s-65 32 -112 32h-96v-257zM434 909v-1l-156 -142l-156 142
l44 47l112 -101l113 101l43 -47v1z" />
    <glyph glyph-name="rcaron" unicode="&#x159;" horiz-adv-x="345" 
d="M336 477l-10 -92c-19 5 -35 7 -49 7c-47 0 -88 -27 -124 -80v-312h-86v468h86v-72c43 58 88 87 137 87c17 0 33 -2 46 -6zM329 685v-1l-156 -142l-156 142l44 47l112 -101l113 101l43 -47v1z" />
    <glyph glyph-name="Sacute" unicode="&#x15a;" horiz-adv-x="518" 
d="M255 -17l4 1c-41 0 -84 9 -128 26s-81 40 -112 68l58 72c59 -53 120 -79 183 -79c41 0 74 10 98 31s36 49 36 84c0 27 -10 50 -31 69s-58 39 -111 59c-89 35 -147 69 -172 104s-38 75 -38 120c0 54 22 99 66 135c43 36 97 54 162 54c71 0 138 -21 201 -62l-46 -78
c-55 35 -108 53 -160 53c-37 0 -68 -9 -92 -28s-36 -43 -36 -73s10 -54 29 -73s52 -37 98 -56c96 -39 157 -75 183 -108c25 -33 38 -71 38 -115c0 -61 -22 -111 -66 -148c-45 -37 -99 -56 -164 -56zM387 898h-1l-142 -132l-39 34l116 154l66 -57v1z" />
    <glyph glyph-name="sacute" unicode="&#x15b;" horiz-adv-x="399" 
d="M197 -18l1 2c-66 0 -126 20 -180 60l47 66c43 -33 87 -50 133 -50c27 0 48 5 61 16s20 27 20 48c0 14 -5 26 -16 37s-33 23 -66 36c-71 29 -116 55 -135 78s-28 49 -28 78c0 37 15 68 46 92s71 36 122 36c50 0 101 -13 153 -40l-35 -73c-41 25 -81 38 -120 38
c-25 0 -45 -5 -58 -14s-20 -22 -20 -38c0 -14 7 -26 20 -37s41 -24 82 -41c62 -25 102 -49 119 -72s26 -49 26 -78c0 -43 -16 -77 -47 -104s-73 -40 -125 -40zM327 674h-1l-142 -132l-39 34l116 154l66 -57v1z" />
    <glyph glyph-name="Scircumflex" unicode="&#x15c;" horiz-adv-x="518" 
d="M255 -17l4 1c-41 0 -84 9 -128 26s-81 40 -112 68l58 72c59 -53 120 -79 183 -79c41 0 74 10 98 31s36 49 36 84c0 27 -10 50 -31 69s-58 39 -111 59c-89 35 -147 69 -172 104s-38 75 -38 120c0 54 22 99 66 135c43 36 97 54 162 54c71 0 138 -21 201 -62l-46 -78
c-55 35 -108 53 -160 53c-37 0 -68 -9 -92 -28s-36 -43 -36 -73s10 -54 29 -73s52 -37 98 -56c96 -39 157 -75 183 -108c25 -33 38 -71 38 -115c0 -61 -22 -111 -66 -148c-45 -37 -99 -56 -164 -56zM430 815l-1 -1l-44 -48l-113 102l-112 -102l-43 48l156 142l157 -142v1z
" />
    <glyph glyph-name="scircumflex" unicode="&#x15d;" horiz-adv-x="399" 
d="M197 -18l1 2c-66 0 -126 20 -180 60l47 66c43 -33 87 -50 133 -50c27 0 48 5 61 16s20 27 20 48c0 14 -5 26 -16 37s-33 23 -66 36c-71 29 -116 55 -135 78s-28 49 -28 78c0 37 15 68 46 92s71 36 122 36c50 0 101 -13 153 -40l-35 -73c-41 25 -81 38 -120 38
c-25 0 -45 -5 -58 -14s-20 -22 -20 -38c0 -14 7 -26 20 -37s41 -24 82 -41c62 -25 102 -49 119 -72s26 -49 26 -78c0 -43 -16 -77 -47 -104s-73 -40 -125 -40zM357 590l-1 -1l-44 -48l-113 102l-112 -102l-43 48l156 142l157 -142v1z" />
    <glyph glyph-name="Scedilla" unicode="&#x15e;" horiz-adv-x="519" 
d="M231 -8l3 -6c-41 4 -80 14 -116 29c-36 16 -69 38 -100 66l58 72c59 -53 120 -79 183 -79c41 0 74 10 99 30c24 21 36 49 36 85c0 26 -10 49 -31 68s-58 39 -111 60c-89 35 -146 69 -171 104s-38 75 -38 122c0 55 22 100 66 136s98 54 162 54c71 0 138 -21 202 -62
l-46 -78c-53 35 -107 53 -160 53c-37 0 -68 -9 -92 -28s-36 -43 -36 -74c0 -29 10 -53 29 -72s51 -37 98 -56c96 -39 157 -75 183 -108c25 -33 38 -71 38 -115c0 -57 -19 -104 -58 -140s-88 -57 -149 -62l-10 -34c53 0 80 -23 80 -70c0 -28 -13 -50 -39 -66
c-27 -16 -63 -24 -109 -24c-21 0 -41 1 -58 4l8 54l34 -2c65 0 98 12 98 37c0 20 -15 30 -46 30c-11 0 -20 -1 -29 -3l22 74v1z" />
    <glyph glyph-name="scedilla" unicode="&#x15f;" horiz-adv-x="399" 
d="M171 -14h3c-57 5 -109 24 -156 59l47 66c41 -33 86 -50 133 -50c27 0 48 5 61 16s20 27 20 48c0 14 -5 26 -16 37s-33 23 -66 36c-70 28 -114 53 -133 76s-29 49 -29 78c0 38 15 69 46 93s71 36 122 36c49 0 100 -13 152 -40l-35 -73c-41 25 -81 38 -120 38
c-27 0 -47 -4 -60 -13s-20 -22 -20 -39c0 -14 7 -26 20 -37s40 -24 81 -40c63 -25 103 -49 120 -72s26 -49 26 -78c0 -40 -13 -73 -40 -98s-63 -40 -108 -44l-10 -34c53 0 80 -23 80 -70c0 -28 -13 -50 -39 -66c-27 -16 -63 -24 -109 -24c-21 0 -41 1 -58 4l8 54l34 -2
c65 0 98 12 98 37c0 20 -15 30 -46 30c-11 0 -20 -1 -29 -3l23 74v1z" />
    <glyph glyph-name="Scaron" unicode="&#x160;" horiz-adv-x="518" 
d="M255 -17l4 1c-41 0 -84 9 -128 26s-81 40 -112 68l58 72c59 -53 120 -79 183 -79c41 0 74 10 98 31s36 49 36 84c0 27 -10 50 -31 69s-58 39 -111 59c-89 35 -147 69 -172 104s-38 75 -38 120c0 54 22 99 66 135c43 36 97 54 162 54c71 0 138 -21 201 -62l-46 -78
c-55 35 -108 53 -160 53c-37 0 -68 -9 -92 -28s-36 -43 -36 -73s10 -54 29 -73s52 -37 98 -56c96 -39 157 -75 183 -108c25 -33 38 -71 38 -115c0 -61 -22 -111 -66 -148c-45 -37 -99 -56 -164 -56zM421 911v-1l-156 -142l-156 142l44 47l112 -101l113 101l43 -47v1z" />
    <glyph glyph-name="scaron" unicode="&#x161;" horiz-adv-x="399" 
d="M197 -18l1 2c-66 0 -126 20 -180 60l47 66c43 -33 87 -50 133 -50c27 0 48 5 61 16s20 27 20 48c0 14 -5 26 -16 37s-33 23 -66 36c-71 29 -116 55 -135 78s-28 49 -28 78c0 37 15 68 46 92s71 36 122 36c50 0 101 -13 153 -40l-35 -73c-41 25 -81 38 -120 38
c-25 0 -45 -5 -58 -14s-20 -22 -20 -38c0 -14 7 -26 20 -37s41 -24 82 -41c62 -25 102 -49 119 -72s26 -49 26 -78c0 -43 -16 -77 -47 -104s-73 -40 -125 -40zM354 685v-1l-156 -142l-156 142l44 47l112 -101l113 101l43 -47v1z" />
    <glyph glyph-name="Tcommaaccent" unicode="&#x162;" horiz-adv-x="510" 
d="M499 626h-1h-196v-626h-92v626h-196v87h485v-87zM250 -151v1c-37 4 -55 22 -55 53c0 15 6 28 18 39c11 11 26 17 43 17s32 -6 44 -18s18 -27 18 -44c0 -35 -19 -72 -58 -113h-50c19 21 32 43 40 65z" />
    <glyph glyph-name="tcommaaccent" unicode="&#x163;" horiz-adv-x="294" 
d="M278 468v-74h-91v-394h-86v394h-84v74h84v158h86v-158h91zM138 -151v1c-37 4 -55 22 -55 53c0 15 6 28 18 39c11 11 26 17 43 17s32 -6 44 -18s18 -27 18 -44c0 -35 -19 -72 -58 -113h-50c19 21 32 43 40 65z" />
    <glyph glyph-name="Tcaron" unicode="&#x164;" horiz-adv-x="510" 
d="M499 626h-1h-196v-626h-92v626h-196v87h485v-87zM412 909v-1l-156 -142l-156 142l44 47l112 -101l113 101l43 -47v0v1z" />
    <glyph glyph-name="tcaron" unicode="&#x165;" horiz-adv-x="419" 
d="M278 468v-74h-91v-394h-86v394h-84v74h84v158h86v-158h91zM313 620l-2 -2c-30 7 -45 25 -45 53c0 15 6 28 17 39s25 17 41 17s30 -6 42 -17s18 -24 18 -39c0 -44 -24 -90 -72 -138h-47c29 37 45 66 48 86v1z" />
    <glyph glyph-name="Tbar" unicode="&#x166;" horiz-adv-x="510" 
d="M499 627l-1 -1h-196v-234h156v-76h-156v-316h-92v316h-157v76h157v234h-196v87h485v-87v0v1z" />
    <glyph glyph-name="tbar" unicode="&#x167;" horiz-adv-x="294" 
d="M278 248v-1h-91v-247h-86v247h-84v74h84v74h-84v74h84v158h86v-158h91v-74h-91v-74h91v-74v0v1z" />
    <glyph glyph-name="Utilde" unicode="&#x168;" horiz-adv-x="685" 
d="M340 -17l2 1c-80 0 -145 24 -194 72s-74 113 -74 195v460h92v-456c0 -61 17 -107 51 -137c33 -29 75 -44 124 -44c53 0 96 16 129 47c32 32 48 77 48 134v456h92v-460c0 -81 -24 -146 -73 -195s-114 -73 -197 -73zM509 888l-2 -2c-5 -38 -17 -67 -34 -88
c-18 -21 -40 -31 -65 -31c-20 0 -46 9 -78 27c-24 13 -41 20 -52 20c-17 0 -29 -16 -34 -47h-64c5 37 17 67 34 88s38 32 62 32c21 0 46 -8 74 -24c27 -16 46 -24 57 -24c17 0 29 16 36 48h66v1z" />
    <glyph glyph-name="utilde" unicode="&#x169;" horiz-adv-x="526" 
d="M262 -16h1c-62 0 -111 18 -147 54s-54 84 -54 144v286h86v-284c0 -37 11 -66 32 -89s49 -34 83 -34c33 0 60 11 81 34s32 52 32 88v284h86v-286c0 -59 -18 -107 -54 -143s-85 -54 -146 -54zM429 698l-2 -2c-5 -38 -17 -67 -34 -88c-18 -21 -40 -31 -65 -31
c-20 0 -46 9 -78 27c-24 13 -41 20 -52 20c-17 0 -29 -16 -34 -47h-64c5 37 17 67 34 88s38 32 62 32c21 0 46 -8 74 -24c27 -16 46 -24 57 -24c17 0 29 16 36 48h66v1z" />
    <glyph glyph-name="Umacron" unicode="&#x16a;" horiz-adv-x="685" 
d="M340 -17l2 1c-80 0 -145 24 -194 72s-74 113 -74 195v460h92v-456c0 -61 17 -107 51 -137c33 -29 75 -44 124 -44c53 0 96 16 129 47c32 32 48 77 48 134v456h92v-460c0 -81 -24 -146 -73 -195s-114 -73 -197 -73zM505 790v-1h-324v73h324v-73v1z" />
    <glyph glyph-name="umacron" unicode="&#x16b;" horiz-adv-x="526" 
d="M262 -16h1c-62 0 -111 18 -147 54s-54 84 -54 144v286h86v-284c0 -37 11 -66 32 -89s49 -34 83 -34c33 0 60 11 81 34s32 52 32 88v284h86v-286c0 -59 -18 -107 -54 -143s-85 -54 -146 -54zM425 601v-1h-324v73h324v-73v1z" />
    <glyph glyph-name="Ubreve" unicode="&#x16c;" horiz-adv-x="685" 
d="M340 -17l2 1c-80 0 -145 24 -194 72s-74 113 -74 195v460h92v-456c0 -61 17 -107 51 -137c33 -29 75 -44 124 -44c53 0 96 16 129 47c32 32 48 77 48 134v456h92v-460c0 -81 -24 -146 -73 -195s-114 -73 -197 -73zM492 903v-1c-9 -41 -27 -74 -55 -99s-59 -38 -94 -38
s-66 13 -94 38s-47 59 -56 100h60c7 -21 19 -39 36 -52s35 -20 54 -20c20 0 38 6 54 19s28 31 36 52h59v1z" />
    <glyph glyph-name="ubreve" unicode="&#x16d;" horiz-adv-x="526" 
d="M262 -16h1c-62 0 -111 18 -147 54s-54 84 -54 144v286h86v-284c0 -37 11 -66 32 -89s49 -34 83 -34c33 0 60 11 81 34s32 52 32 88v284h86v-286c0 -59 -18 -107 -54 -143s-85 -54 -146 -54zM412 707v-1c-9 -41 -27 -74 -55 -99s-59 -38 -94 -38s-66 13 -94 38
s-47 59 -56 100h60c7 -21 19 -39 36 -52s35 -20 54 -20c20 0 38 6 54 19s28 31 36 52h59v1z" />
    <glyph glyph-name="Uring" unicode="&#x16e;" horiz-adv-x="685" 
d="M340 -17l2 1c-80 0 -145 24 -194 72s-74 113 -74 195v460h92v-456c0 -61 17 -107 51 -137c33 -29 75 -44 124 -44c53 0 96 16 129 47c32 32 48 77 48 134v456h92v-460c0 -81 -24 -146 -73 -195s-114 -73 -197 -73zM343 962c29 0 54 -11 75 -32s31 -46 31 -74
c0 -29 -10 -54 -31 -75s-46 -31 -75 -31c-28 0 -53 10 -74 31s-32 46 -32 75c0 28 11 53 32 74s46 32 74 32zM343 797v-1c16 0 30 6 42 18s18 26 18 42s-6 30 -18 42s-26 18 -42 18s-30 -6 -42 -18s-18 -26 -18 -42s6 -30 18 -42s26 -18 42 -18v1z" />
    <glyph glyph-name="uring" unicode="&#x16f;" horiz-adv-x="526" 
d="M262 -16h1c-62 0 -111 18 -147 54s-54 84 -54 144v286h86v-284c0 -37 11 -66 32 -89s49 -34 83 -34c33 0 60 11 81 34s32 52 32 88v284h86v-286c0 -59 -18 -107 -54 -143s-85 -54 -146 -54zM263 742c29 0 54 -11 75 -32s31 -46 31 -74c0 -29 -10 -54 -31 -75
s-46 -31 -75 -31c-28 0 -53 10 -74 31s-32 46 -32 75c0 28 11 53 32 74s46 32 74 32zM263 577v-1c16 0 30 6 42 18s18 26 18 42s-6 30 -18 42s-26 18 -42 18s-30 -6 -42 -18s-18 -26 -18 -42s6 -30 18 -42s26 -18 42 -18v1z" />
    <glyph glyph-name="Uhungarumlaut" unicode="&#x170;" horiz-adv-x="685" 
d="M340 -17l2 1c-80 0 -145 24 -194 72s-74 113 -74 195v460h92v-456c0 -61 17 -107 51 -137c33 -29 75 -44 124 -44c53 0 96 16 129 47c32 32 48 77 48 134v456h92v-460c0 -81 -24 -146 -73 -195s-114 -73 -197 -73zM589 897l-2 1l-142 -132l-38 34l116 154zM393 898h-1
l-142 -132l-39 34l116 154l66 -57v1z" />
    <glyph glyph-name="uhungarumlaut" unicode="&#x171;" horiz-adv-x="526" 
d="M262 -16h1c-62 0 -111 18 -147 54s-54 84 -54 144v286h86v-284c0 -37 11 -66 32 -89s49 -34 83 -34c33 0 60 11 81 34s32 52 32 88v284h86v-286c0 -59 -18 -107 -54 -143s-85 -54 -146 -54zM498 673l-2 1l-142 -132l-38 34l116 154zM303 674h-1l-142 -132l-39 34l116 154
l66 -57v1z" />
    <glyph glyph-name="Uogonek" unicode="&#x172;" horiz-adv-x="685" 
d="M309 -14h2c-74 7 -132 34 -174 82c-43 48 -64 109 -64 184v460h92v-456c0 -57 16 -102 48 -134s75 -48 128 -48s96 16 128 47c32 32 48 77 48 134v456h92v-460c0 -72 -20 -132 -60 -181c-40 -48 -97 -76 -172 -84c-40 -35 -60 -65 -60 -92c0 -16 5 -28 16 -36
s27 -12 48 -12c23 0 39 2 48 5l-12 -56c-15 -3 -33 -5 -55 -5c-37 0 -64 7 -82 22c-19 15 -28 37 -28 66c0 36 19 72 57 107v1z" />
    <glyph glyph-name="uogonek" unicode="&#x173;" horiz-adv-x="526" 
d="M232 -12v-2c-53 6 -94 26 -124 61s-45 80 -45 135v286h86v-284c0 -37 11 -66 32 -89s49 -34 83 -34c33 0 61 11 82 34s32 52 32 88v284h86v-286c0 -53 -15 -98 -44 -133s-69 -55 -120 -62c-41 -37 -61 -67 -61 -91c0 -16 5 -28 16 -36s27 -12 48 -12c20 0 36 2 48 5
l-12 -56c-14 -3 -32 -5 -55 -5c-37 0 -64 7 -82 22c-19 15 -28 37 -28 66c0 36 19 72 58 108v1z" />
    <glyph glyph-name="Wcircumflex" unicode="&#x174;" horiz-adv-x="1002" 
d="M986 712h-1l-232 -712h-66c-115 334 -177 512 -184 535l-188 -534h-66l-232 712h96c112 -344 170 -525 173 -542l190 542h56c117 -331 180 -512 188 -541l68 216l104 324h94zM659 815l-1 -1l-44 -48l-113 102l-112 -102l-43 48l156 142l157 -142v1z" />
    <glyph glyph-name="wcircumflex" unicode="&#x175;" horiz-adv-x="750" 
d="M747 468h-1l-192 -468h-50l-127 326l-130 -326h-50l-192 468h90l132 -331l131 331h46l127 -328l130 328h86zM533 590l-1 -1l-44 -48l-113 102l-112 -102l-43 48l156 142l157 -142v0v1z" />
    <glyph glyph-name="Ycircumflex" unicode="&#x176;" horiz-adv-x="616" 
d="M506 712h104l-255 -396v-316h-92v316l-256 396h108l197 -308zM465 815l-1 -1l-44 -48l-113 102l-112 -102l-43 48l156 142l157 -142v0v1z" />
    <glyph glyph-name="ycircumflex" unicode="&#x177;" horiz-adv-x="511" 
d="M508 468h-1l-318 -690h-89l114 248l-203 442h94l156 -348l157 348h90zM420 590l-1 -1l-44 -48l-113 102l-112 -102l-43 48l156 142l157 -142v0v1z" />
    <glyph glyph-name="Ydieresis" unicode="&#x178;" horiz-adv-x="616" 
d="M506 712h104l-255 -396v-316h-92v316l-256 396h108l197 -308zM411 884h-1c16 0 30 -6 41 -18s17 -26 17 -42s-6 -30 -17 -41s-25 -17 -41 -17s-30 6 -41 17c-12 11 -18 25 -18 41s6 30 18 42s26 18 42 18zM192 885v-1c16 0 30 -6 41 -18s17 -26 17 -42s-6 -30 -17 -41
s-25 -17 -41 -17s-30 6 -42 17s-18 25 -18 41s6 30 18 42s26 18 42 18v1z" />
    <glyph glyph-name="Zacute" unicode="&#x179;" horiz-adv-x="600" 
d="M593 711l1 1l-418 -626h383v-87h-549l421 626h-374v86h536zM445 898h-1l-142 -132l-39 34l116 154l66 -57v0v1z" />
    <glyph glyph-name="zacute" unicode="&#x17a;" horiz-adv-x="481" 
d="M42 468h422l-289 -391h261v-77h-420l290 391h-264v77zM372 674h-1l-142 -132l-39 34l116 154l66 -57v0v1z" />
    <glyph glyph-name="Zdotaccent" unicode="&#x17b;" horiz-adv-x="600" 
d="M593 711l1 1l-418 -626h383v-87h-549l421 626h-374v86h536zM320 897v-1c18 0 34 -6 47 -19s19 -28 19 -45s-6 -32 -19 -45s-29 -19 -47 -19c-17 0 -32 6 -44 18c-12 13 -18 28 -18 46s6 33 18 45c12 13 27 19 44 19v1z" />
    <glyph glyph-name="zdotaccent" unicode="&#x17c;" horiz-adv-x="481" 
d="M42 468h422l-289 -391h261v-77h-420l290 391h-264v77zM240 703v-1c18 0 34 -6 47 -19s19 -28 19 -45s-6 -32 -19 -45s-29 -19 -47 -19c-17 0 -32 6 -44 18c-12 13 -18 28 -18 46s6 33 18 45c12 13 27 19 44 19v1z" />
    <glyph glyph-name="Zcaron" unicode="&#x17d;" horiz-adv-x="600" 
d="M593 711l1 1l-418 -626h383v-87h-549l421 626h-374v86h536zM457 911v-1l-156 -142l-156 142l44 47l112 -101l113 101l43 -47v0v1z" />
    <glyph glyph-name="zcaron" unicode="&#x17e;" horiz-adv-x="481" 
d="M42 468h422l-289 -391h261v-77h-420l290 391h-264v77zM396 685v-1l-156 -142l-156 142l44 47l112 -101l113 101l43 -47v0v1z" />
    <glyph glyph-name="longs" unicode="&#x17f;" horiz-adv-x="280" 
d="M302 658l-2 -2c-19 7 -40 11 -64 11c-21 0 -36 -6 -44 -19c-9 -13 -13 -34 -13 -65v-582h-86v584c0 53 11 93 34 120s57 40 102 40c29 0 53 -2 73 -7v-81v1z" />
    <glyph glyph-name="florin" unicode="&#x192;" 
d="M471 719h-3l-14 -79c-17 7 -33 10 -46 10c-19 0 -33 -7 -44 -20s-18 -34 -22 -62l-16 -100h94l-12 -70h-93l-75 -468c-7 -45 -25 -82 -53 -110s-63 -42 -104 -42c-15 0 -34 3 -55 10l12 78c17 -7 33 -10 46 -10c19 0 34 7 46 21c12 15 20 36 25 64l73 457h-58l11 70h60
c12 79 20 127 24 143s13 34 27 54s31 35 52 46c20 11 43 16 68 16c19 0 38 -3 57 -9v1z" />
    <glyph glyph-name="uni01CE" unicode="&#x1ce;" horiz-adv-x="599" 
d="M285 64l-1 -2c44 0 82 17 114 50c31 33 47 75 47 124c0 48 -16 89 -48 122s-70 50 -114 50c-47 0 -86 -16 -115 -48c-30 -32 -45 -73 -45 -124s15 -92 44 -124s69 -48 118 -48zM445 -3l-1 3v72c-21 -27 -46 -48 -77 -64s-62 -24 -94 -24c-71 0 -128 24 -173 72
s-67 108 -67 179c0 68 23 126 69 174s103 72 171 72c32 0 63 -8 94 -24s57 -38 78 -66v74h86v-468h-86zM434 685v-1l-156 -142l-156 142l44 47l112 -101l113 101l43 -47v1z" />
    <glyph glyph-name="uni01D0" unicode="&#x1d0;" horiz-adv-x="237" 
d="M162 468v-468h-86v468h86zM275 685v-1l-156 -142l-156 142l44 47l112 -101l113 101l43 -47v0v1z" />
    <glyph glyph-name="uni01D2" unicode="&#x1d2;" horiz-adv-x="569" 
d="M283 484h1c69 0 128 -24 177 -73c48 -49 72 -107 72 -176s-24 -128 -73 -177s-108 -74 -177 -74s-128 25 -177 74s-74 108 -74 177s25 127 74 176s108 73 177 73zM284 61v1c47 0 85 17 116 50s46 74 46 122s-15 88 -46 121s-69 50 -116 50c-46 0 -84 -17 -115 -50
s-47 -74 -47 -122s15 -89 46 -122s69 -50 116 -50zM440 685v-1l-156 -142l-156 142l44 47l112 -101l113 101l43 -47v1z" />
    <glyph glyph-name="uni01D4" unicode="&#x1d4;" horiz-adv-x="526" 
d="M262 -16h1c-62 0 -111 18 -147 54s-54 84 -54 144v286h86v-284c0 -37 11 -66 32 -89s49 -34 83 -34c33 0 60 11 81 34s32 52 32 88v284h86v-286c0 -59 -18 -107 -54 -143s-85 -54 -146 -54zM419 685v-1l-156 -142l-156 142l44 47l112 -101l113 101l43 -47v1z" />
    <glyph glyph-name="uni01D6" unicode="&#x1d6;" horiz-adv-x="526" 
d="M262 -16h1c-62 0 -111 18 -147 54s-54 84 -54 144v286h86v-284c0 -37 11 -66 32 -89s49 -34 83 -34c33 0 60 11 81 34s32 52 32 88v284h86v-286c0 -59 -18 -107 -54 -143s-85 -54 -146 -54zM373 696h-1c16 0 30 -6 41 -18s17 -26 17 -42s-6 -30 -17 -41s-25 -17 -41 -17
s-30 6 -41 17c-12 11 -18 25 -18 41s6 30 18 42s26 18 42 18zM154 696c16 0 30 -6 41 -18s17 -26 17 -42s-6 -30 -17 -41s-25 -17 -41 -17s-30 6 -42 17s-18 25 -18 41s6 30 18 42s26 18 42 18zM424 743v-1h-324v73h324v-73v1z" />
    <glyph glyph-name="uni01D8" unicode="&#x1d8;" horiz-adv-x="526" 
d="M262 -16h1c-62 0 -111 18 -147 54s-54 84 -54 144v286h86v-284c0 -37 11 -66 32 -89s49 -34 83 -34c33 0 60 11 81 34s32 52 32 88v284h86v-286c0 -59 -18 -107 -54 -143s-85 -54 -146 -54zM373 696h-1c16 0 30 -6 41 -18s17 -26 17 -42s-6 -30 -17 -41s-25 -17 -41 -17
s-30 6 -41 17c-12 11 -18 25 -18 41s6 30 18 42s26 18 42 18zM154 696c16 0 30 -6 41 -18s17 -26 17 -42s-6 -30 -17 -41s-25 -17 -41 -17s-30 6 -42 17s-18 25 -18 41s6 30 18 42s26 18 42 18zM377 874h-1l-142 -132l-39 34l116 154l66 -57v1z" />
    <glyph glyph-name="uni01DA" unicode="&#x1da;" horiz-adv-x="526" 
d="M262 -16h1c-62 0 -111 18 -147 54s-54 84 -54 144v286h86v-284c0 -37 11 -66 32 -89s49 -34 83 -34c33 0 60 11 81 34s32 52 32 88v284h86v-286c0 -59 -18 -107 -54 -143s-85 -54 -146 -54zM373 696h-1c16 0 30 -6 41 -18s17 -26 17 -42s-6 -30 -17 -41s-25 -17 -41 -17
s-30 6 -41 17c-12 11 -18 25 -18 41s6 30 18 42s26 18 42 18zM154 696c16 0 30 -6 41 -18s17 -26 17 -42s-6 -30 -17 -41s-25 -17 -41 -17s-30 6 -42 17s-18 25 -18 41s6 30 18 42s26 18 42 18zM419 886v-1l-156 -142l-156 142l44 47l112 -101l113 101l43 -47v1z" />
    <glyph glyph-name="uni01DC" unicode="&#x1dc;" horiz-adv-x="526" 
d="M262 -16h1c-62 0 -111 18 -147 54s-54 84 -54 144v286h86v-284c0 -37 11 -66 32 -89s49 -34 83 -34c33 0 60 11 81 34s32 52 32 88v284h86v-286c0 -59 -18 -107 -54 -143s-85 -54 -146 -54zM373 696h-1c16 0 30 -6 41 -18s17 -26 17 -42s-6 -30 -17 -41s-25 -17 -41 -17
s-30 6 -41 17c-12 11 -18 25 -18 41s6 30 18 42s26 18 42 18zM154 696c16 0 30 -6 41 -18s17 -26 17 -42s-6 -30 -17 -41s-25 -17 -41 -17s-30 6 -42 17s-18 25 -18 41s6 30 18 42s26 18 42 18zM333 778l-1 -2l-39 -34l-142 132l66 57l116 -154v1z" />
    <glyph glyph-name="Aringacute" unicode="&#x1fa;" horiz-adv-x="685" 
d="M204 234h275l-139 326zM678 0h-3h-98l-64 152h-344l-64 -152h-94l286 677c-21 10 -38 24 -50 43s-18 40 -18 63c0 31 11 58 34 81s50 34 82 34s59 -11 82 -34s34 -50 34 -81c0 -23 -6 -44 -19 -63s-30 -34 -53 -43zM342 712c19 0 35 7 49 21s21 31 21 50s-7 36 -20 49
c-14 14 -31 21 -50 21s-36 -7 -49 -21c-14 -13 -21 -30 -21 -49s7 -36 20 -50s30 -21 50 -21zM456 1068h-1l-142 -132l-39 34l116 154l66 -57v1z" />
    <glyph glyph-name="aringacute" unicode="&#x1fb;" horiz-adv-x="599" 
d="M285 64l-1 -2c44 0 82 17 114 50c31 33 47 75 47 124c0 48 -16 89 -48 122s-70 50 -114 50c-47 0 -86 -16 -115 -48c-30 -32 -45 -73 -45 -124s15 -92 44 -124s69 -48 118 -48zM445 -3l-1 3v72c-21 -27 -46 -48 -77 -64s-62 -24 -94 -24c-71 0 -128 24 -173 72
s-67 108 -67 179c0 68 23 126 69 174s103 72 171 72c32 0 63 -8 94 -24s57 -38 78 -66v74h86v-468h-86zM299 742c29 0 54 -11 75 -32s31 -46 31 -74c0 -29 -10 -54 -31 -75s-46 -31 -75 -31c-28 0 -53 10 -74 31s-32 46 -32 75c0 28 11 53 32 74s46 32 74 32zM299 576
c16 0 30 6 42 18s18 26 18 42s-6 30 -18 42s-26 18 -42 18s-30 -6 -42 -18s-18 -26 -18 -42s6 -30 18 -42s26 -18 42 -18zM405 920h-1l-142 -132l-39 34l116 154l66 -57v1z" />
    <glyph glyph-name="AEacute" unicode="&#x1fc;" horiz-adv-x="997" 
d="M986 -1v1h-408l-68 170h-337l-68 -170h-94l292 712h386l36 -86h-306l92 -224h291l34 -86h-290l94 -230h312zM207 252h269l-135 330zM626 898h-1l-142 -132l-39 34l116 154l66 -57v0v1z" />
    <glyph glyph-name="aeacute" unicode="&#x1fd;" horiz-adv-x="844" 
d="M813 207v2h-372c3 -45 19 -81 48 -108s62 -40 99 -40c55 0 101 25 138 76l72 -40c-49 -75 -118 -113 -209 -113c-73 0 -133 31 -179 94c-52 -63 -116 -94 -192 -94c-56 0 -101 14 -136 42s-52 66 -52 114s17 86 52 113s79 41 134 41c51 0 97 -14 137 -42v30
c0 41 -11 73 -32 94s-52 32 -92 32s-87 -11 -141 -34v78c45 20 94 30 146 30c79 0 136 -31 172 -92c45 61 107 92 184 92c65 0 118 -23 160 -68s63 -107 63 -185v-22zM726 280h-1c-9 42 -25 74 -49 96c-25 22 -54 33 -87 33c-36 0 -68 -12 -96 -35s-45 -54 -51 -94h284z
M237 58h-1c27 0 53 8 80 24s40 37 40 62s-12 45 -35 60s-53 22 -90 22c-33 0 -59 -7 -79 -22c-21 -15 -31 -35 -31 -60s11 -46 32 -62s49 -24 84 -24zM550 674h-1l-142 -132l-39 34l116 154l66 -57v1z" />
    <glyph glyph-name="Oslashacute" unicode="&#x1fe;" horiz-adv-x="826" 
d="M799 693l1 -1l-100 -99c56 -69 84 -148 84 -237c0 -67 -17 -129 -50 -186s-79 -103 -136 -136s-119 -50 -186 -50c-89 0 -169 28 -238 85l-102 -102l-50 52l102 102c-55 69 -83 148 -83 236c0 67 17 129 50 186s78 103 135 136s119 50 186 50c88 0 167 -28 236 -84
l100 100zM585 581l-1 -1c-49 40 -106 60 -170 60c-77 0 -142 -27 -195 -82s-80 -121 -80 -200c0 -63 18 -120 54 -170zM239 134h1c49 -40 107 -60 172 -60c77 0 142 27 195 82s79 121 79 200c0 63 -18 120 -53 170zM541 898h-1l-142 -132l-39 34l116 154l66 -57v1z" />
    <glyph glyph-name="oslashacute" unicode="&#x1ff;" horiz-adv-x="569" 
d="M547 444l-2 2l-60 -60c33 -44 50 -94 50 -151c0 -69 -24 -128 -73 -177s-108 -74 -177 -74c-57 0 -108 17 -153 52l-62 -60l-46 46l62 60c-34 47 -51 97 -51 152c0 69 25 127 74 176s108 73 177 73c57 0 109 -17 154 -52l61 60zM381 373l-1 2c-27 20 -59 30 -95 30
c-46 0 -84 -17 -115 -50s-47 -74 -47 -122c0 -35 8 -65 24 -92zM188 94l2 -1c27 -20 58 -30 94 -30c47 0 85 17 116 50s46 74 46 122c0 33 -8 64 -24 91zM412 674h-1l-142 -132l-39 34l116 154l66 -57v1z" />
    <glyph glyph-name="Scommaaccent" unicode="&#x218;" horiz-adv-x="518" 
d="M255 -17l4 1c-41 0 -84 9 -128 26s-81 40 -112 68l58 72c59 -53 120 -79 183 -79c41 0 74 10 98 31s36 49 36 84c0 27 -10 50 -31 69s-58 39 -111 59c-89 35 -147 69 -172 104s-38 75 -38 120c0 54 22 99 66 135c43 36 97 54 162 54c71 0 138 -21 201 -62l-46 -78
c-55 35 -108 53 -160 53c-37 0 -68 -9 -92 -28s-36 -43 -36 -73s10 -54 29 -73s52 -37 98 -56c96 -39 157 -75 183 -108c25 -33 38 -71 38 -115c0 -61 -22 -111 -66 -148c-45 -37 -99 -56 -164 -56zM256 -151v1c-37 4 -55 22 -55 53c0 15 6 28 18 39c11 11 26 17 43 17
s32 -6 44 -18s18 -27 18 -44c0 -35 -19 -72 -58 -113h-50c19 21 32 43 40 65z" />
    <glyph glyph-name="scommaaccent" unicode="&#x219;" horiz-adv-x="399" 
d="M197 -18l1 2c-66 0 -126 20 -180 60l47 66c43 -33 87 -50 133 -50c27 0 48 5 61 16s20 27 20 48c0 14 -5 26 -16 37s-33 23 -66 36c-71 29 -116 55 -135 78s-28 49 -28 78c0 37 15 68 46 92s71 36 122 36c50 0 101 -13 153 -40l-35 -73c-41 25 -81 38 -120 38
c-25 0 -45 -5 -58 -14s-20 -22 -20 -38c0 -14 7 -26 20 -37s41 -24 82 -41c62 -25 102 -49 119 -72s26 -49 26 -78c0 -43 -16 -77 -47 -104s-73 -40 -125 -40zM196 -151v1c-37 4 -55 22 -55 53c0 15 6 28 18 39c11 11 26 17 43 17s32 -6 44 -18s18 -27 18 -44
c0 -35 -19 -72 -58 -113h-50c19 21 32 43 40 65z" />
    <glyph glyph-name="circumflex" unicode="&#x2c6;" horiz-adv-x="355" 
d="M335 590l-1 -1l-44 -48l-113 102l-112 -102l-43 48l156 142l157 -142v0v1z" />
    <glyph glyph-name="tilde" unicode="&#x2dc;" horiz-adv-x="355" 
d="M343 698l-2 -2c-5 -38 -17 -67 -34 -88c-18 -21 -40 -31 -65 -31c-20 0 -46 9 -78 27c-24 13 -41 20 -52 20c-17 0 -29 -16 -34 -47h-64c5 37 17 67 34 88s38 32 62 32c21 0 46 -8 74 -24c27 -16 46 -24 57 -24c17 0 29 16 36 48h66v1z" />
    <glyph glyph-name="Wgrave" unicode="&#x1e80;" horiz-adv-x="1002" 
d="M986 712h-1l-232 -712h-66c-115 334 -177 512 -184 535l-188 -534h-66l-232 712h96c112 -344 170 -525 173 -542l190 542h56c117 -331 180 -512 188 -541l68 216l104 324h94zM554 808l-1 -2l-39 -34l-142 132l66 57l116 -154v1z" />
    <glyph glyph-name="wgrave" unicode="&#x1e81;" horiz-adv-x="750" 
d="M747 468h-1l-192 -468h-50l-127 326l-130 -326h-50l-192 468h90l132 -331l131 331h46l127 -328l130 328h86zM421 578l-1 -2l-39 -34l-142 132l66 57l116 -154v0v1z" />
    <glyph glyph-name="Wacute" unicode="&#x1e82;" horiz-adv-x="1002" 
d="M986 712h-1l-232 -712h-66c-115 334 -177 512 -184 535l-188 -534h-66l-232 712h96c112 -344 170 -525 173 -542l190 542h56c117 -331 180 -512 188 -541l68 216l104 324h94zM640 904h-1l-142 -132l-39 34l116 154l66 -57v1z" />
    <glyph glyph-name="wacute" unicode="&#x1e83;" horiz-adv-x="750" 
d="M747 468h-1l-192 -468h-50l-127 326l-130 -326h-50l-192 468h90l132 -331l131 331h46l127 -328l130 328h86zM506 674h-1l-142 -132l-39 34l116 154l66 -57v0v1z" />
    <glyph glyph-name="Wdieresis" unicode="&#x1e84;" horiz-adv-x="1002" 
d="M986 712h-1l-232 -712h-66c-115 334 -177 512 -184 535l-188 -534h-66l-232 712h96c112 -344 170 -525 173 -542l190 542h56c117 -331 180 -512 188 -541l68 216l104 324h94zM611 890h-1c16 0 30 -6 41 -18s17 -26 17 -42s-6 -30 -17 -41s-25 -17 -41 -17s-30 6 -41 17
c-12 11 -18 25 -18 41s6 30 18 42s26 18 42 18zM392 891v-1c16 0 30 -6 41 -18s17 -26 17 -42s-6 -30 -17 -41s-25 -17 -41 -17s-30 6 -42 17s-18 25 -18 41s6 30 18 42s26 18 42 18v1z" />
    <glyph glyph-name="wdieresis" unicode="&#x1e85;" horiz-adv-x="750" 
d="M747 468h-1l-192 -468h-50l-127 326l-130 -326h-50l-192 468h90l132 -331l131 331h46l127 -328l130 328h86zM485 696h-1c16 0 30 -6 41 -18s17 -26 17 -42s-6 -30 -17 -41s-25 -17 -41 -17s-30 6 -41 17c-12 11 -18 25 -18 41s6 30 18 42s26 18 42 18zM266 697v-1
c16 0 30 -6 41 -18s17 -26 17 -42s-6 -30 -17 -41s-25 -17 -41 -17s-30 6 -42 17s-18 25 -18 41s6 30 18 42s26 18 42 18v1z" />
    <glyph glyph-name="Ygrave" unicode="&#x1ef2;" horiz-adv-x="616" 
d="M506 712h104l-255 -396v-316h-92v316l-256 396h108l197 -308zM359 808l-1 -2l-39 -34l-142 132l66 57l116 -154v0v1z" />
    <glyph glyph-name="ygrave" unicode="&#x1ef3;" horiz-adv-x="511" 
d="M508 468h-1l-318 -690h-89l114 248l-203 442h94l156 -348l157 348h90zM329 578l-1 -2l-39 -34l-142 132l66 57l116 -154v0v1z" />
    <glyph glyph-name="endash" unicode="&#x2013;" horiz-adv-x="512" 
d="M518 218v-1h-524v79h524v-79v0v1z" />
    <glyph glyph-name="emdash" unicode="&#x2014;" horiz-adv-x="1024" 
d="M1030 218v-1h-1036v79h1036v-79v0v1z" />
    <glyph glyph-name="afii00208" unicode="&#x2015;" horiz-adv-x="768" 
d="M774 218v-1h-780v79h780v-79v0v1z" />
    <glyph glyph-name="underscoredbl" unicode="&#x2017;" horiz-adv-x="512" 
d="M518 -77v-51h-524v51h524zM518 -229v-1h-524v52h524v-52v0v1z" />
    <glyph glyph-name="quoteleft" unicode="&#x2018;" horiz-adv-x="236" 
d="M185 722l-3 -2c-27 -45 -44 -79 -51 -103c32 -9 48 -29 48 -58c0 -16 -6 -30 -18 -42s-26 -18 -42 -18s-30 6 -42 18s-18 26 -18 42c0 39 25 93 76 162h50v1z" />
    <glyph glyph-name="quoteright" unicode="&#x2019;" horiz-adv-x="236" 
d="M106 608h4c-32 9 -48 29 -48 58c0 16 6 30 18 42s26 18 42 18s30 -6 42 -18s18 -26 18 -42c0 -39 -25 -92 -76 -161h-50c27 44 43 78 50 102v1z" />
    <glyph glyph-name="quotesinglbase" unicode="&#x201a;" horiz-adv-x="236" 
d="M101 -14h3c-32 9 -48 29 -48 58c0 16 6 30 18 42s26 18 42 18s30 -6 42 -18s18 -26 18 -42c0 -39 -25 -92 -76 -161h-50c27 44 44 78 51 102v1z" />
    <glyph glyph-name="quotereversed" unicode="&#x201b;" horiz-adv-x="236" 
d="M180 498h2h-50c-51 68 -76 121 -76 160c0 16 6 30 18 42s26 18 42 18s30 -6 42 -18s18 -26 18 -42c0 -31 -16 -50 -48 -58c7 -23 24 -58 52 -103v1z" />
    <glyph glyph-name="quotedblleft" unicode="&#x201c;" horiz-adv-x="411" 
d="M361 721l-3 -1c-27 -45 -44 -79 -51 -103c32 -9 48 -29 48 -58c0 -16 -6 -30 -18 -42s-26 -18 -42 -18s-30 6 -42 18s-18 26 -18 42c0 39 25 93 76 162h50zM185 722l-3 -2c-27 -45 -44 -79 -51 -103c32 -9 48 -29 48 -58c0 -16 -6 -30 -18 -42s-26 -18 -42 -18
s-30 6 -42 18s-18 26 -18 42c0 39 25 93 76 162h50v1z" />
    <glyph glyph-name="quotedblright" unicode="&#x201d;" horiz-adv-x="411" 
d="M276 607l4 1c-32 9 -48 29 -48 58c0 16 6 30 18 42s26 18 42 18s30 -6 42 -18s18 -26 18 -42c0 -39 -25 -92 -76 -161h-50c27 44 43 78 50 102zM102 608h2c-32 9 -48 29 -48 58c0 16 6 30 18 42s26 18 43 18c16 0 30 -6 42 -18s18 -26 18 -42c0 -39 -25 -92 -76 -161h-50
c27 44 44 78 51 102v1z" />
    <glyph glyph-name="quotedblbase" unicode="&#x201e;" horiz-adv-x="411" 
d="M276 -15l4 1c-32 9 -48 29 -48 58c0 16 6 30 18 42s26 18 42 18s30 -6 42 -18s18 -26 18 -42c0 -39 -25 -92 -76 -161h-50c27 44 43 78 50 102zM101 -14h3c-32 9 -48 29 -48 58c0 16 6 30 18 42s26 18 42 18s30 -6 42 -18s18 -26 18 -42c0 -39 -25 -92 -76 -161h-50
c27 44 44 78 51 102v1z" />
    <glyph glyph-name="dagger" unicode="&#x2020;" horiz-adv-x="553" 
d="M502 399v-1h-184v-620h-83v620h-184v74h184v257h83v-257h184v-74v0v1z" />
    <glyph glyph-name="daggerdbl" unicode="&#x2021;" horiz-adv-x="553" 
d="M502 33v-1h-184v-254h-83v254h-184v74h184v292h-184v74h184v257h83v-257h184v-74h-184v-292h184v-74v0v1z" />
    <glyph glyph-name="bullet" unicode="&#x2022;" horiz-adv-x="365" 
d="M182 493v-1c37 0 69 -13 96 -40s40 -59 40 -96s-13 -69 -40 -96s-59 -40 -96 -40s-69 13 -96 40s-40 59 -40 96s13 69 40 96s59 40 96 40v1z" />
    <glyph glyph-name="ellipsis" unicode="&#x2026;" horiz-adv-x="975" 
d="M857 106c16 0 30 -6 42 -18s18 -26 18 -42s-6 -30 -18 -42s-26 -18 -42 -18s-30 6 -42 18s-18 26 -18 42s6 30 18 42s26 18 42 18zM488 106c16 0 30 -6 42 -18s18 -26 18 -42s-6 -30 -18 -42s-26 -18 -42 -18s-30 6 -42 18s-18 26 -18 42s6 30 18 42s26 18 42 18z
M118 107v-1c16 0 30 -6 42 -18s18 -26 18 -42s-6 -30 -18 -42s-26 -18 -42 -18c-17 0 -31 6 -43 18s-18 26 -18 42s6 30 18 42s26 18 43 18v1z" />
    <glyph glyph-name="perthousand" unicode="&#x2030;" horiz-adv-x="1243" 
d="M660 697v-1l-420 -711l-56 34l418 710zM204 728c49 0 90 -16 122 -48s48 -72 48 -120s-16 -88 -48 -120s-73 -48 -122 -48s-90 16 -122 48s-48 72 -48 120s16 88 48 120s73 48 122 48zM205 454h-1c29 0 53 10 70 29c17 20 26 46 26 77s-9 56 -26 75s-40 29 -69 29
s-53 -10 -70 -29s-26 -44 -26 -75s9 -56 26 -76s41 -30 70 -30zM1040 322c49 0 90 -16 122 -48s48 -72 48 -120s-16 -88 -48 -120s-73 -48 -122 -48s-90 16 -122 48s-48 72 -48 120s16 88 48 120s73 48 122 48zM1042 48h-2c29 0 53 10 70 29c17 20 26 46 26 77s-9 56 -26 75
s-40 29 -69 29s-53 -10 -70 -29s-26 -44 -26 -75s9 -56 26 -76s41 -30 71 -30zM641 322c49 0 90 -16 122 -48s48 -72 48 -120s-16 -88 -48 -120s-73 -48 -122 -48s-90 16 -122 48s-48 72 -48 120s16 88 48 120s73 48 122 48zM642 49l-1 -1c29 0 53 10 70 29
c17 20 26 46 26 77s-9 56 -26 75s-41 29 -70 29s-53 -10 -70 -29s-26 -44 -26 -75s9 -56 26 -76s41 -30 71 -30v1z" />
    <glyph glyph-name="minute" unicode="&#x2032;" horiz-adv-x="192" 
d="M200 734l-1 -1l-26 -122l-52 -137h-56l6 137l26 122h103v0v1z" />
    <glyph glyph-name="second" unicode="&#x2033;" horiz-adv-x="363" 
d="M341 733h-1l-26 -122l-52 -137h-56l6 137l26 122h103zM200 734l-1 -1l-26 -122l-52 -137h-56l6 137l26 122h103v0v1z" />
    <glyph glyph-name="guilsinglleft" unicode="&#x2039;" horiz-adv-x="270" 
d="M254 99v-1l-66 -43l-162 214l162 214l66 -43l-129 -171l129 -171v0v1z" />
    <glyph glyph-name="guilsinglright" unicode="&#x203a;" horiz-adv-x="270" 
d="M16 441v-1l66 43l162 -214l-162 -214l-66 43l129 171l-129 171v0v1z" />
    <glyph glyph-name="exclamdbl" unicode="&#x203c;" horiz-adv-x="433" 
d="M256 728h100l-12 -552h-75zM78 728h100l-12 -552h-75zM303 -15h2c-17 0 -31 6 -43 17c-12 12 -18 26 -18 42s6 30 18 42s26 18 42 18s30 -6 42 -18s18 -26 18 -42s-6 -30 -18 -42c-12 -11 -26 -17 -43 -17zM126 -15l2 -1c-17 0 -31 6 -43 18s-18 26 -18 42s6 30 18 42
s26 18 42 18s30 -6 42 -18s18 -26 18 -42s-6 -30 -18 -42s-26 -18 -43 -18v1z" />
    <glyph glyph-name="uni203E" unicode="&#x203e;" horiz-adv-x="512" 
d="M518 791v-1h-524v51h524v-51v0v1z" />
    <glyph glyph-name="fraction" unicode="&#x2044;" horiz-adv-x="108" 
d="M286 699v-1l-416 -714l-50 30l416 714l50 -30v0v1z" />
    <glyph glyph-name="franc" unicode="&#x20a3;" horiz-adv-x="510" 
d="M488 627v-1h-316v-204h293v-86h-293v-122h152v-79h-152v-136h-92v136h-66v79h66v498h408v-86v0v1z" />
    <glyph glyph-name="lira" unicode="&#x20a4;" 
d="M573 112h1c-15 -43 -35 -75 -60 -96s-56 -32 -92 -32c-9 0 -20 1 -33 4l-37 9c-11 4 -35 13 -70 28c-33 12 -51 17 -54 16c-16 6 -30 9 -42 9c-29 0 -54 -22 -74 -66l-78 16c13 42 31 74 53 97c21 23 47 36 77 39c8 18 12 40 12 65v12h-114v72h102c-5 17 -10 32 -14 43
h-88v73h64c-17 55 -26 98 -26 127c0 59 20 107 60 144c39 37 92 56 157 56c60 0 109 -15 146 -45c37 -29 57 -69 60 -120h-96c-2 26 -13 47 -33 62s-46 23 -78 23c-36 0 -65 -11 -88 -34s-34 -53 -34 -90c0 -29 9 -71 26 -124h180v-73h-160c3 -9 6 -24 11 -43h148v-72h-138
v-12c0 -28 -4 -52 -12 -73c63 -24 105 -39 125 -44s36 -8 47 -8c34 0 59 18 75 54l77 -18v1z" />
    <glyph glyph-name="peseta" unicode="&#x20a7;" horiz-adv-x="1167" 
d="M963 -18l3 2c-66 0 -126 20 -180 60l47 66c41 -33 86 -50 133 -50c27 0 48 5 61 16s20 27 20 48c0 14 -5 26 -16 37s-33 23 -66 36c-70 28 -114 53 -133 76s-29 49 -29 78c0 38 15 69 46 93s71 36 122 36c49 0 100 -13 152 -40l-35 -73c-41 25 -81 38 -120 38
c-27 0 -47 -4 -60 -13s-20 -22 -20 -39c0 -14 7 -26 20 -37s40 -24 81 -40c63 -25 103 -49 120 -72s26 -49 26 -78c0 -43 -16 -78 -47 -105c-31 -26 -73 -39 -125 -39zM171 276l1 -2v-274h-92v712h192c77 0 137 -19 180 -58s64 -91 64 -156s-22 -119 -65 -160
c-44 -41 -103 -62 -178 -62h-102zM172 629v-1v-268h98c47 0 84 13 112 38s42 59 42 100c0 40 -14 72 -41 95c-28 24 -66 36 -113 36h-98zM777 395v-1h-74v-394h-86v394h-74v74h74v158h86v-158h74v-74v1z" />
    <glyph glyph-name="Euro" unicode="&#x20ac;" 
d="M560 29l1 1c-49 -31 -112 -46 -189 -46c-72 0 -136 23 -192 70s-95 110 -116 190h-58l16 71h30l-2 41l2 40h-46l16 70h42c21 81 60 144 116 191s120 70 191 70c77 0 140 -16 191 -47v-102c-56 40 -119 60 -190 60c-45 0 -88 -16 -127 -48c-40 -32 -68 -74 -84 -127h340
l-16 -70h-338c-1 -8 -2 -21 -2 -40c0 -14 1 -28 3 -41h324l-16 -71h-296c16 -53 44 -94 83 -125s81 -46 128 -46c75 0 138 20 189 60v-102v1z" />
    <glyph glyph-name="afii61248" unicode="&#x2105;" horiz-adv-x="831" 
d="M599 730l50 -30l-416 -714l-50 30zM295 440v-3c-25 -12 -56 -18 -92 -18c-51 0 -91 15 -122 45c-31 31 -46 67 -46 110c0 42 16 78 48 109c31 31 72 46 121 46c33 0 63 -7 91 -20v-60c-27 16 -57 24 -90 24c-35 0 -61 -8 -78 -24s-26 -40 -26 -73c0 -28 9 -51 27 -70
s44 -28 77 -28c29 0 59 8 90 24v-62zM639 -14c-44 0 -81 15 -112 45c-31 31 -46 67 -46 110s15 79 46 109s68 45 112 45s81 -15 111 -45c29 -29 44 -66 44 -109s-15 -80 -44 -110c-30 -30 -67 -45 -111 -45zM637 241l2 -1c-27 0 -49 -9 -66 -28s-26 -42 -26 -70
s9 -51 26 -70s39 -28 65 -28s48 9 65 28s26 42 26 70s-9 51 -26 70s-39 28 -66 28v1z" />
    <glyph glyph-name="afii61289" unicode="&#x2113;" horiz-adv-x="331" 
d="M181 328l-1 4v-208c0 -29 3 -48 8 -55s12 -11 21 -11c8 0 18 3 30 8s35 20 70 44v-81c-37 -29 -75 -44 -113 -44c-33 0 -58 10 -74 30c-17 20 -25 50 -25 90v112l-40 -49l-49 39l88 118v228c0 75 10 126 31 151c20 25 49 38 86 38c33 0 60 -11 80 -34
c20 -22 30 -51 30 -86c0 -31 -10 -68 -30 -113s-57 -105 -112 -181zM179 451l1 -1c33 57 54 96 62 117c7 21 11 40 11 59s-3 33 -10 44s-16 16 -28 16c-9 0 -16 -3 -21 -10c-5 -6 -9 -18 -11 -37c-3 -19 -4 -44 -4 -75v-114v1z" />
    <glyph glyph-name="afii61352" unicode="&#x2116;" horiz-adv-x="1097" 
d="M613 0h-1h-66l-377 540v-540h-89v712h66l378 -540v540h89v-712zM886 300c-47 0 -87 16 -121 48s-51 71 -51 117s17 85 51 118s74 49 121 49s87 -16 120 -49c33 -32 49 -71 49 -118c0 -46 -16 -85 -49 -117s-73 -48 -120 -48zM887 563l-1 -1c-25 0 -47 -9 -64 -28
s-26 -41 -26 -68s9 -49 26 -68s39 -28 65 -28c25 0 46 9 62 27s24 41 24 69s-8 51 -24 69c-16 19 -37 28 -62 28zM1044 138v-1h-318v78h318v-78v1z" />
    <glyph glyph-name="trademark" unicode="&#x2122;" horiz-adv-x="853" 
d="M823 320h-1h-69l-43 280l-99 -280h-44l-104 278l-41 -278h-66l55 393h71l108 -274l102 274h71zM339 651l-1 -1h-110v-330h-68v330h-112v62h291v-62v0v1z" />
    <glyph glyph-name="Omega" unicode="&#x2126;" horiz-adv-x="836" 
d="M790 1l-2 -1h-274v84c51 19 93 55 127 108c33 53 50 111 50 174c0 77 -26 142 -78 194s-117 78 -196 78s-144 -26 -196 -78s-78 -117 -78 -194c0 -63 17 -121 51 -174c33 -53 75 -89 126 -108v-84h-274v87l152 -5c-101 75 -152 169 -152 284c0 101 36 186 108 256
c72 71 160 106 264 106s192 -35 264 -106c72 -70 108 -155 108 -256c0 -115 -51 -209 -152 -284l152 5v-87v1z" />
    <glyph glyph-name="estimated" unicode="&#x212e;" horiz-adv-x="615" 
d="M161 266h-1v-186c43 -40 92 -60 149 -60c85 0 150 41 197 123l36 -22c-33 -47 -67 -82 -102 -105s-79 -34 -132 -34c-79 0 -142 27 -191 80s-73 121 -73 202c0 83 25 151 74 204s113 80 192 80c71 0 132 -24 183 -71s78 -118 82 -211h-414zM458 301v1v148
c-43 40 -93 60 -150 60c-59 0 -108 -20 -148 -61v-148h298z" />
    <glyph glyph-name="oneeighth" unicode="&#x215b;" horiz-adv-x="841" 
d="M196 720v-426h-77v354h-94l33 72h138zM561 728l50 -30l-416 -714l-50 30zM718 220l4 -1c28 -11 49 -25 63 -44s21 -41 21 -66c0 -37 -15 -67 -46 -90s-69 -34 -114 -34s-83 11 -114 34s-46 53 -46 90c0 27 7 49 22 68c14 19 35 33 63 43c-24 11 -42 24 -54 40
s-18 35 -18 56c0 32 14 59 41 80c27 22 61 33 103 33c43 0 78 -10 105 -30s40 -48 40 -83c0 -21 -6 -40 -18 -56s-29 -29 -52 -40zM645 244l1 1c21 0 39 5 52 16s20 25 20 44c0 20 -6 35 -18 45c-12 11 -30 16 -54 16s-42 -5 -54 -16c-12 -10 -18 -25 -18 -45
c0 -18 7 -33 20 -44s30 -17 51 -17zM645 47l1 -2c27 0 47 6 60 17c13 12 20 30 20 53c0 20 -7 37 -22 50s-35 20 -60 20c-24 0 -43 -6 -58 -18s-22 -29 -22 -51c0 -23 8 -40 23 -52s35 -18 58 -18v1z" />
    <glyph glyph-name="threeeighths" unicode="&#x215c;" horiz-adv-x="841" 
d="M256 514l-1 1c23 -8 40 -22 52 -41s18 -40 18 -64c0 -35 -13 -64 -40 -88s-65 -36 -116 -36c-41 0 -75 10 -102 31s-43 49 -50 85h74c4 -17 13 -31 28 -40c14 -9 31 -14 50 -14c23 0 42 6 57 18s22 28 22 48c0 21 -8 39 -23 52c-15 14 -38 21 -67 21h-19v54h18
c27 0 47 7 62 20s22 31 22 52c0 17 -6 31 -18 40s-27 14 -46 14c-17 0 -32 -5 -45 -14s-21 -23 -24 -40h-74c5 36 21 64 48 84s59 30 96 30c43 0 77 -11 102 -34s38 -50 38 -83c0 -47 -21 -79 -62 -96zM601 728l50 -30l-416 -714l-50 30zM718 220l4 -1c28 -11 49 -25 63 -44
s21 -41 21 -66c0 -37 -15 -67 -46 -90s-69 -34 -114 -34s-83 11 -114 34s-46 53 -46 90c0 27 7 49 22 68c14 19 35 33 63 43c-24 11 -42 24 -54 40s-18 35 -18 56c0 32 14 59 41 80c27 22 61 33 103 33c43 0 78 -10 105 -30s40 -48 40 -83c0 -21 -6 -40 -18 -56
s-29 -29 -52 -40zM645 244l1 1c21 0 39 5 52 16s20 25 20 44c0 20 -6 35 -18 45c-12 11 -30 16 -54 16s-42 -5 -54 -16c-12 -10 -18 -25 -18 -45c0 -18 7 -33 20 -44s30 -17 51 -17zM645 47l1 -2c27 0 47 6 60 17c13 12 20 30 20 53c0 20 -7 37 -22 50s-35 20 -60 20
c-24 0 -43 -6 -58 -18s-22 -29 -22 -51c0 -23 8 -40 23 -52s35 -18 58 -18v1z" />
    <glyph glyph-name="fiveeighths" unicode="&#x215d;" horiz-adv-x="841" 
d="M144 574h4c23 5 39 8 50 8c47 0 85 -13 114 -40s44 -63 44 -108c0 -40 -15 -75 -45 -105s-73 -45 -128 -45c-56 0 -109 20 -158 60l39 49c45 -35 85 -52 118 -52c31 0 56 9 75 26c19 18 29 40 29 67c0 25 -9 47 -28 64s-41 26 -66 26c-41 0 -83 -9 -124 -27l32 224h238
v-71h-184zM609 728l50 -30l-416 -714l-50 30zM718 220l4 -1c28 -11 49 -25 63 -44s21 -41 21 -66c0 -37 -15 -67 -46 -90s-69 -34 -114 -34s-83 11 -114 34s-46 53 -46 90c0 27 7 49 22 68c14 19 35 33 63 43c-24 11 -42 24 -54 40s-18 35 -18 56c0 32 14 59 41 80
c27 22 61 33 103 33c43 0 78 -10 105 -30s40 -48 40 -83c0 -21 -6 -40 -18 -56s-29 -29 -52 -40zM645 244l1 1c21 0 39 5 52 16s20 25 20 44c0 20 -6 35 -18 45c-12 11 -30 16 -54 16s-42 -5 -54 -16c-12 -10 -18 -25 -18 -45c0 -18 7 -33 20 -44s30 -17 51 -17zM645 47
l1 -2c27 0 47 6 60 17c13 12 20 30 20 53c0 20 -7 37 -22 50s-35 20 -60 20c-24 0 -43 -6 -58 -18s-22 -29 -22 -51c0 -23 8 -40 23 -52s35 -18 58 -18v1z" />
    <glyph glyph-name="seveneighths" unicode="&#x215e;" horiz-adv-x="841" 
d="M48 719h336l-232 -427h-85l192 358h-211v69zM576 728l50 -30l-416 -714l-50 30zM718 220l4 -1c28 -11 49 -25 63 -44s21 -41 21 -66c0 -37 -15 -67 -46 -90s-69 -34 -114 -34s-83 11 -114 34s-46 53 -46 90c0 27 7 49 22 68c14 19 35 33 63 43c-24 11 -42 24 -54 40
s-18 35 -18 56c0 32 14 59 41 80c27 22 61 33 103 33c43 0 78 -10 105 -30s40 -48 40 -83c0 -21 -6 -40 -18 -56s-29 -29 -52 -40zM645 244l1 1c21 0 39 5 52 16s20 25 20 44c0 20 -6 35 -18 45c-12 11 -30 16 -54 16s-42 -5 -54 -16c-12 -10 -18 -25 -18 -45
c0 -18 7 -33 20 -44s30 -17 51 -17zM645 47l1 -2c27 0 47 6 60 17c13 12 20 30 20 53c0 20 -7 37 -22 50s-35 20 -60 20c-24 0 -43 -6 -58 -18s-22 -29 -22 -51c0 -23 8 -40 23 -52s35 -18 58 -18v1z" />
  </font>
</defs>
</svg>
